{"glyphs":{"0":{"ha":872,"x_min":60,"x_max":813,"o":"m 436 -14 q 227 49 311 -14 q 101 224 143 111 q 60 485 60 336 q 101 746 60 633 q 227 921 143 858 q 436 983 311 983 q 644 921 561 983 q 770 746 728 858 q 813 485 813 633 q 770 224 813 336 q 644 49 728 111 q 436 -14 561 -14 m 436 103 q 623 206 560 103 q 686 485 686 308 q 623 763 686 660 q 436 865 560 865 q 250 763 314 865 q 186 485 186 660 q 250 206 186 308 q 436 103 314 103 z "},"1":{"ha":872,"x_min":178,"x_max":735,"o":"m 246 0 q 204 17 221 0 q 188 58 188 33 q 204 101 188 83 q 246 118 221 118 l 411 118 l 411 822 l 269 753 q 256 747 263 750 q 238 744 249 744 q 194 761 211 744 q 178 804 178 778 q 214 861 178 843 l 403 960 q 442 969 422 969 l 471 969 q 518 950 499 969 q 538 903 538 931 l 538 118 l 675 118 q 717 101 700 118 q 735 58 735 83 q 717 17 735 33 q 675 0 700 0 l 246 0 z "},"2":{"ha":872,"x_min":90,"x_max":768,"o":"m 164 0 q 111 20 132 0 q 90 72 90 40 q 131 205 90 146 q 234 313 171 264 q 368 407 297 363 q 502 495 439 451 q 606 587 565 539 q 646 692 646 635 q 597 815 646 765 q 426 864 547 864 q 296 849 356 864 q 189 814 236 835 q 179 810 188 813 q 163 807 171 807 q 125 823 140 807 q 110 861 110 839 q 140 913 110 896 q 276 963 199 942 q 449 983 353 983 q 610 948 538 983 q 725 849 682 913 q 768 701 768 786 q 733 570 768 631 q 642 459 699 510 q 521 363 586 408 q 393 278 456 318 q 283 198 331 238 q 217 118 236 158 l 700 118 q 742 101 725 118 q 760 58 760 83 q 742 17 760 33 q 700 0 725 0 l 164 0 z "},"3":{"ha":872,"x_min":82,"x_max":768,"o":"m 408 -14 q 242 3 315 -14 q 118 42 169 21 q 92 62 103 49 q 82 94 82 75 q 97 135 82 117 q 138 153 113 153 q 164 147 150 153 q 261 119 206 131 q 385 107 317 107 q 505 120 446 107 q 603 167 564 133 q 642 261 642 200 q 613 352 642 313 q 517 414 583 392 q 335 436 450 436 l 313 436 q 272 453 289 436 q 254 494 254 471 q 272 535 254 518 q 313 553 289 553 l 321 553 q 532 594 457 553 q 607 721 607 636 q 553 826 607 786 q 388 865 499 865 q 269 852 322 865 q 172 819 215 839 q 161 816 167 818 q 147 814 156 814 q 111 828 126 814 q 96 865 96 843 q 124 913 96 897 q 242 961 172 939 q 399 983 311 983 q 647 918 560 983 q 733 733 733 853 q 708 617 733 664 q 644 544 682 571 q 565 501 606 517 q 629 479 594 494 q 696 435 664 464 q 748 363 728 407 q 768 254 768 318 q 720 106 768 165 q 591 17 672 47 q 408 -14 510 -14 z "},"4":{"ha":872,"x_min":35,"x_max":828,"o":"m 601 -7 q 557 11 575 -7 q 539 56 539 29 l 539 244 l 115 244 q 58 267 82 244 q 35 324 35 290 l 35 336 q 51 386 35 365 l 488 943 q 517 967 499 958 q 557 976 536 976 l 585 976 q 643 953 621 976 q 665 896 665 929 l 665 357 l 771 357 q 811 340 794 357 q 828 300 828 324 q 811 260 828 276 q 771 244 794 244 l 665 244 l 665 56 q 647 11 665 29 q 601 -7 628 -7 m 169 357 l 539 357 l 539 833 l 169 357 z "},"5":{"ha":872,"x_min":89,"x_max":793,"o":"m 413 -14 q 242 10 315 -14 q 117 67 169 33 q 98 84 107 74 q 89 117 89 94 q 104 158 89 140 q 144 176 119 176 q 174 169 160 176 q 274 128 218 146 q 396 111 331 111 q 539 129 478 111 q 633 190 600 147 q 667 307 667 232 q 609 443 667 393 q 451 493 551 493 q 326 474 381 493 q 238 433 272 454 q 217 422 228 428 q 189 417 206 417 q 124 438 150 417 q 97 497 97 460 q 100 531 97 514 l 163 900 q 187 951 167 932 q 236 969 207 969 l 682 969 q 724 952 707 969 q 742 910 742 935 q 724 868 742 885 q 682 851 707 851 l 279 851 l 235 557 q 335 597 278 581 q 469 614 393 614 q 647 573 575 614 q 756 461 718 532 q 793 300 793 390 q 753 140 793 211 q 628 28 713 69 q 413 -14 544 -14 z "},"6":{"ha":872,"x_min":82,"x_max":806,"o":"m 463 -14 q 291 19 360 -14 q 181 106 222 51 q 117 226 139 161 q 89 359 96 292 q 82 483 82 426 q 102 652 82 565 q 169 815 122 739 q 293 937 215 890 q 485 983 371 983 q 630 965 571 983 q 731 924 689 946 q 760 874 760 910 q 744 834 760 851 q 703 817 729 817 q 679 821 690 817 q 598 849 644 838 q 494 861 551 861 q 349 824 406 861 q 262 731 293 788 q 218 613 231 674 q 203 506 206 553 q 306 589 238 550 q 488 628 374 628 q 653 588 582 628 q 765 474 725 547 q 806 301 806 401 q 764 142 806 214 q 646 28 722 71 q 463 -14 569 -14 m 464 104 q 578 132 531 104 q 653 206 626 160 q 679 304 679 251 q 628 454 679 396 q 472 513 576 513 q 338 485 390 513 q 255 423 285 458 q 210 360 225 388 q 246 235 219 293 q 325 140 272 176 q 464 104 378 104 z "},"7":{"ha":872,"x_min":83,"x_max":788,"o":"m 319 -7 q 275 11 293 -7 q 257 56 257 29 q 265 89 257 72 l 647 849 l 143 849 q 101 866 118 849 q 83 908 83 883 q 101 951 83 933 q 143 969 118 969 l 710 969 q 765 949 743 969 q 788 896 788 928 q 774 835 788 865 l 379 28 q 319 -7 361 -7 z "},"8":{"ha":872,"x_min":65,"x_max":807,"o":"m 436 -14 q 261 10 332 -14 q 147 75 190 35 q 85 163 104 115 q 65 257 65 211 q 122 426 65 364 q 272 519 179 489 q 160 594 208 542 q 111 731 111 646 q 128 815 111 771 q 183 898 144 860 q 283 960 221 936 q 436 983 344 983 q 590 960 528 983 q 690 898 651 936 q 744 815 728 860 q 761 731 761 771 q 713 594 761 646 q 600 519 665 542 q 750 426 693 489 q 807 257 807 364 q 788 163 807 211 q 725 75 768 115 q 611 10 682 35 q 436 -14 540 -14 m 436 572 q 556 597 513 572 q 617 656 599 621 q 635 722 635 690 q 586 828 635 783 q 436 872 538 872 q 286 828 335 872 q 238 722 238 783 q 256 656 238 690 q 317 597 274 621 q 436 572 361 572 m 436 97 q 583 128 529 97 q 658 199 636 158 q 681 271 681 240 q 646 375 681 333 q 556 438 611 417 q 436 458 500 458 q 317 438 372 458 q 226 375 261 417 q 192 271 192 333 q 214 199 192 240 q 290 128 236 158 q 436 97 343 97 z "},"9":{"ha":872,"x_min":67,"x_max":790,"o":"m 388 -14 q 242 5 301 -14 q 142 46 183 24 q 113 96 113 61 q 128 135 113 118 q 169 153 143 153 q 193 149 183 153 q 275 120 229 132 q 378 108 321 108 q 524 145 468 108 q 610 239 579 182 q 654 356 642 296 q 669 464 667 417 q 567 381 635 421 q 385 342 500 342 q 219 382 290 342 q 107 496 147 422 q 67 668 67 569 q 108 827 67 756 q 227 941 150 899 q 410 983 304 983 q 581 951 513 983 q 692 863 650 918 q 755 743 733 808 q 783 610 776 678 q 790 486 790 543 q 770 318 790 406 q 703 155 750 231 q 580 33 657 79 q 388 -14 503 -14 m 400 457 q 535 484 482 457 q 618 547 588 511 q 663 610 649 583 q 626 735 653 678 q 548 829 600 793 q 408 865 496 865 q 294 838 342 865 q 219 765 246 810 q 193 665 193 719 q 244 515 193 574 q 400 457 296 457 z "},"A":{"ha":1036,"x_min":69,"x_max":967,"o":"m 132 -7 q 86 11 103 -7 q 69 56 69 29 q 76 83 69 67 l 431 919 q 460 959 440 942 q 511 976 481 976 l 525 976 q 576 959 557 976 q 606 919 596 942 l 960 83 q 967 56 967 67 q 950 11 967 29 q 904 -7 933 -7 q 844 32 861 -7 l 754 249 l 282 249 l 192 32 q 132 -7 175 -7 m 331 364 l 706 364 l 518 815 l 331 364 z "},"Á":{"ha":1036,"x_min":69,"x_max":967,"o":"m 132 -7 q 86 11 103 -7 q 69 56 69 29 q 76 83 69 67 l 431 919 q 460 959 440 942 q 511 976 481 976 l 525 976 q 576 959 557 976 q 606 919 596 942 l 960 83 q 967 56 967 67 q 950 11 967 29 q 904 -7 933 -7 q 844 32 861 -7 l 754 249 l 282 249 l 192 32 q 132 -7 175 -7 m 331 364 l 706 364 l 518 815 l 331 364 m 518 1026 q 491 1037 501 1026 q 481 1064 481 1047 q 485 1080 481 1072 q 490 1090 489 1088 l 561 1215 q 578 1234 568 1226 q 607 1242 589 1242 q 644 1228 631 1242 q 658 1190 658 1214 q 644 1156 658 1171 l 549 1042 q 518 1026 536 1026 z "},"Ă":{"ha":1036,"x_min":69,"x_max":967,"o":"m 132 -7 q 86 11 103 -7 q 69 56 69 29 q 76 83 69 67 l 431 919 q 460 959 440 942 q 511 976 481 976 l 525 976 q 576 959 557 976 q 606 919 596 942 l 960 83 q 967 56 967 67 q 950 11 967 29 q 904 -7 933 -7 q 844 32 861 -7 l 754 249 l 282 249 l 192 32 q 132 -7 175 -7 m 331 364 l 706 364 l 518 815 l 331 364 m 518 1039 q 401 1069 451 1039 q 324 1151 350 1100 q 319 1171 319 1160 q 331 1201 319 1189 q 363 1214 343 1214 q 401 1188 389 1214 q 447 1138 417 1157 q 518 1119 478 1119 q 590 1138 558 1119 q 635 1188 621 1157 q 674 1214 647 1214 q 705 1201 693 1214 q 717 1171 717 1189 q 713 1151 717 1160 q 635 1069 686 1100 q 518 1039 585 1039 z "},"Ắ":{"ha":1036,"x_min":69,"x_max":967,"o":"m 132 -7 q 86 11 103 -7 q 69 56 69 29 q 76 83 69 67 l 431 919 q 460 959 440 942 q 511 976 481 976 l 525 976 q 576 959 557 976 q 606 919 596 942 l 960 83 q 967 56 967 67 q 950 11 967 29 q 904 -7 933 -7 q 844 32 861 -7 l 754 249 l 282 249 l 192 32 q 132 -7 175 -7 m 331 364 l 706 364 l 518 815 l 331 364 m 515 1161 q 494 1170 503 1161 q 486 1189 486 1179 q 488 1205 486 1199 q 493 1217 490 1211 l 543 1301 q 566 1327 554 1319 q 588 1335 578 1335 q 620 1323 606 1335 q 635 1290 635 1311 q 617 1251 635 1269 l 546 1175 q 530 1164 538 1167 q 515 1161 522 1161 m 518 1039 q 399 1066 451 1039 q 324 1139 347 1093 q 319 1157 319 1147 q 331 1183 319 1172 q 358 1194 342 1194 q 392 1171 378 1194 q 440 1126 407 1144 q 518 1108 474 1108 q 599 1126 569 1108 q 644 1171 629 1144 q 678 1194 658 1194 q 706 1183 694 1194 q 717 1157 717 1172 q 713 1139 717 1147 q 638 1066 690 1093 q 518 1039 585 1039 z "},"Ặ":{"ha":1036,"x_min":69,"x_max":967,"o":"m 132 -7 q 86 11 103 -7 q 69 56 69 29 q 76 83 69 67 l 431 919 q 460 959 440 942 q 511 976 481 976 l 525 976 q 576 959 557 976 q 606 919 596 942 l 960 83 q 967 56 967 67 q 950 11 967 29 q 904 -7 933 -7 q 844 32 861 -7 l 754 249 l 282 249 l 192 32 q 132 -7 175 -7 m 331 364 l 706 364 l 518 815 l 331 364 m 518 -231 q 468 -210 489 -231 q 447 -160 447 -189 q 468 -110 447 -131 q 518 -89 489 -89 q 568 -110 547 -89 q 589 -160 589 -131 q 568 -210 589 -189 q 518 -231 547 -231 m 518 1039 q 401 1069 451 1039 q 324 1151 350 1100 q 319 1171 319 1160 q 331 1201 319 1189 q 363 1214 343 1214 q 401 1188 389 1214 q 447 1138 417 1157 q 518 1119 478 1119 q 590 1138 558 1119 q 635 1188 621 1157 q 674 1214 647 1214 q 705 1201 693 1214 q 717 1171 717 1189 q 713 1151 717 1160 q 635 1069 686 1100 q 518 1039 585 1039 z "},"Ằ":{"ha":1036,"x_min":69,"x_max":967,"o":"m 132 -7 q 86 11 103 -7 q 69 56 69 29 q 76 83 69 67 l 431 919 q 460 959 440 942 q 511 976 481 976 l 525 976 q 576 959 557 976 q 606 919 596 942 l 960 83 q 967 56 967 67 q 950 11 967 29 q 904 -7 933 -7 q 844 32 861 -7 l 754 249 l 282 249 l 192 32 q 132 -7 175 -7 m 331 364 l 706 364 l 518 815 l 331 364 m 521 1161 q 506 1164 514 1161 q 490 1175 499 1167 l 419 1251 q 401 1290 401 1269 q 416 1323 401 1311 q 449 1335 431 1335 q 472 1327 460 1335 q 493 1301 483 1319 l 543 1217 q 548 1205 546 1211 q 550 1189 550 1199 q 542 1170 550 1179 q 521 1161 533 1161 m 518 1039 q 399 1066 451 1039 q 324 1139 347 1093 q 319 1157 319 1147 q 331 1183 319 1172 q 358 1194 342 1194 q 392 1171 378 1194 q 440 1126 407 1144 q 518 1108 474 1108 q 599 1126 569 1108 q 644 1171 629 1144 q 678 1194 658 1194 q 706 1183 694 1194 q 717 1157 717 1172 q 713 1139 717 1147 q 638 1066 690 1093 q 518 1039 585 1039 z "},"Ẳ":{"ha":1036,"x_min":69,"x_max":967,"o":"m 132 -7 q 86 11 103 -7 q 69 56 69 29 q 76 83 69 67 l 431 919 q 460 959 440 942 q 511 976 481 976 l 525 976 q 576 959 557 976 q 606 919 596 942 l 960 83 q 967 56 967 67 q 950 11 967 29 q 904 -7 933 -7 q 844 32 861 -7 l 754 249 l 282 249 l 192 32 q 132 -7 175 -7 m 331 364 l 706 364 l 518 815 l 331 364 m 508 1161 q 487 1169 497 1161 q 476 1194 476 1176 q 490 1235 476 1218 q 522 1264 504 1251 q 554 1288 540 1276 q 568 1314 568 1300 q 525 1340 568 1340 q 465 1330 485 1340 q 432 1319 444 1319 q 410 1329 418 1319 q 403 1349 403 1339 q 406 1364 403 1356 q 418 1378 410 1372 q 471 1399 442 1393 q 525 1406 500 1406 q 610 1383 579 1406 q 640 1315 640 1360 q 628 1268 640 1286 q 599 1238 617 1250 q 566 1214 582 1226 q 543 1182 550 1201 q 508 1161 535 1161 m 518 1039 q 399 1066 451 1039 q 324 1139 347 1093 q 319 1157 319 1147 q 331 1183 319 1172 q 358 1194 342 1194 q 392 1171 378 1194 q 440 1126 407 1144 q 518 1108 474 1108 q 599 1126 569 1108 q 644 1171 629 1144 q 678 1194 658 1194 q 706 1183 694 1194 q 717 1157 717 1172 q 713 1139 717 1147 q 638 1066 690 1093 q 518 1039 585 1039 z "},"Ẵ":{"ha":1036,"x_min":69,"x_max":967,"o":"m 132 -7 q 86 11 103 -7 q 69 56 69 29 q 76 83 69 67 l 431 919 q 460 959 440 942 q 511 976 481 976 l 525 976 q 576 959 557 976 q 606 919 596 942 l 960 83 q 967 56 967 67 q 950 11 967 29 q 904 -7 933 -7 q 844 32 861 -7 l 754 249 l 282 249 l 192 32 q 132 -7 175 -7 m 331 364 l 706 364 l 518 815 l 331 364 m 351 1218 q 333 1224 342 1218 q 325 1240 325 1231 q 352 1307 325 1274 q 432 1340 379 1340 q 492 1331 465 1340 q 547 1313 519 1322 q 604 1303 574 1303 q 661 1329 644 1303 q 669 1340 664 1335 q 686 1344 674 1344 q 713 1322 710 1344 q 681 1255 713 1288 q 604 1222 650 1222 q 544 1233 572 1222 q 489 1253 515 1243 q 433 1263 463 1263 q 394 1255 407 1263 q 376 1235 382 1247 q 367 1223 375 1228 q 351 1218 358 1218 m 518 1039 q 399 1066 451 1039 q 324 1139 347 1093 q 319 1157 319 1147 q 331 1183 319 1172 q 358 1194 342 1194 q 392 1171 378 1194 q 440 1126 407 1144 q 518 1108 474 1108 q 599 1126 569 1108 q 644 1171 629 1144 q 678 1194 658 1194 q 706 1183 694 1194 q 717 1157 717 1172 q 713 1139 717 1147 q 638 1066 690 1093 q 518 1039 585 1039 z "},"Â":{"ha":1036,"x_min":69,"x_max":967,"o":"m 132 -7 q 86 11 103 -7 q 69 56 69 29 q 76 83 69 67 l 431 919 q 460 959 440 942 q 511 976 481 976 l 525 976 q 576 959 557 976 q 606 919 596 942 l 960 83 q 967 56 967 67 q 950 11 967 29 q 904 -7 933 -7 q 844 32 861 -7 l 754 249 l 282 249 l 192 32 q 132 -7 175 -7 m 331 364 l 706 364 l 518 815 l 331 364 m 372 1025 q 342 1038 354 1025 q 331 1067 329 1051 q 342 1093 331 1082 l 436 1190 q 460 1210 447 1201 q 492 1218 472 1218 l 544 1218 q 577 1210 564 1218 q 600 1190 590 1201 l 694 1093 q 706 1067 706 1082 q 694 1038 707 1051 q 664 1025 682 1025 q 639 1035 649 1025 l 518 1138 l 397 1035 q 372 1025 388 1025 z "},"Ấ":{"ha":1036,"x_min":69,"x_max":967,"o":"m 132 -7 q 86 11 103 -7 q 69 56 69 29 q 76 83 69 67 l 431 919 q 460 959 440 942 q 511 976 481 976 l 525 976 q 576 959 557 976 q 606 919 596 942 l 960 83 q 967 56 967 67 q 950 11 967 29 q 904 -7 933 -7 q 844 32 861 -7 l 754 249 l 282 249 l 192 32 q 132 -7 175 -7 m 331 364 l 706 364 l 518 815 l 331 364 m 663 1161 q 642 1170 650 1161 q 633 1189 633 1179 q 635 1205 633 1199 q 640 1217 638 1211 l 690 1301 q 713 1327 701 1319 q 735 1335 725 1335 q 767 1323 753 1335 q 782 1290 782 1311 q 764 1251 782 1269 l 693 1175 q 677 1164 685 1167 q 663 1161 669 1161 m 372 1025 q 342 1037 354 1025 q 331 1063 329 1049 q 342 1088 331 1076 l 436 1168 q 460 1185 447 1178 q 492 1193 472 1193 l 544 1193 q 576 1185 564 1193 q 600 1168 589 1178 l 694 1088 q 706 1063 706 1076 q 694 1037 707 1049 q 664 1025 682 1025 q 639 1033 650 1025 l 518 1129 l 397 1033 q 372 1025 386 1025 z "},"Ậ":{"ha":1036,"x_min":69,"x_max":967,"o":"m 132 -7 q 86 11 103 -7 q 69 56 69 29 q 76 83 69 67 l 431 919 q 460 959 440 942 q 511 976 481 976 l 525 976 q 576 959 557 976 q 606 919 596 942 l 960 83 q 967 56 967 67 q 950 11 967 29 q 904 -7 933 -7 q 844 32 861 -7 l 754 249 l 282 249 l 192 32 q 132 -7 175 -7 m 331 364 l 706 364 l 518 815 l 331 364 m 518 -231 q 468 -210 489 -231 q 447 -160 447 -189 q 468 -110 447 -131 q 518 -89 489 -89 q 568 -110 547 -89 q 589 -160 589 -131 q 568 -210 589 -189 q 518 -231 547 -231 m 372 1025 q 342 1038 354 1025 q 331 1067 329 1051 q 342 1093 331 1082 l 436 1190 q 460 1210 447 1201 q 492 1218 472 1218 l 544 1218 q 577 1210 564 1218 q 600 1190 590 1201 l 694 1093 q 706 1067 706 1082 q 694 1038 707 1051 q 664 1025 682 1025 q 639 1035 649 1025 l 518 1138 l 397 1035 q 372 1025 388 1025 z "},"Ầ":{"ha":1036,"x_min":69,"x_max":967,"o":"m 132 -7 q 86 11 103 -7 q 69 56 69 29 q 76 83 69 67 l 431 919 q 460 959 440 942 q 511 976 481 976 l 525 976 q 576 959 557 976 q 606 919 596 942 l 960 83 q 967 56 967 67 q 950 11 967 29 q 904 -7 933 -7 q 844 32 861 -7 l 754 249 l 282 249 l 192 32 q 132 -7 175 -7 m 331 364 l 706 364 l 518 815 l 331 364 m 669 1161 q 655 1164 663 1161 q 639 1175 647 1167 l 568 1251 q 550 1290 550 1269 q 565 1323 550 1311 q 597 1335 579 1335 q 620 1327 608 1335 q 642 1301 632 1319 l 692 1217 q 697 1205 694 1211 q 699 1189 699 1199 q 690 1170 699 1179 q 669 1161 682 1161 m 372 1025 q 342 1037 354 1025 q 331 1063 329 1049 q 342 1088 331 1076 l 436 1168 q 460 1185 447 1178 q 492 1193 472 1193 l 544 1193 q 576 1185 564 1193 q 600 1168 589 1178 l 694 1088 q 706 1063 706 1076 q 694 1037 707 1049 q 664 1025 682 1025 q 639 1033 650 1025 l 518 1129 l 397 1033 q 372 1025 386 1025 z "},"Ẩ":{"ha":1036,"x_min":69,"x_max":967,"o":"m 132 -7 q 86 11 103 -7 q 69 56 69 29 q 76 83 69 67 l 431 919 q 460 959 440 942 q 511 976 481 976 l 525 976 q 576 959 557 976 q 606 919 596 942 l 960 83 q 967 56 967 67 q 950 11 967 29 q 904 -7 933 -7 q 844 32 861 -7 l 754 249 l 282 249 l 192 32 q 132 -7 175 -7 m 331 364 l 706 364 l 518 815 l 331 364 m 663 1165 q 641 1173 651 1165 q 631 1197 631 1181 q 644 1232 631 1218 q 676 1257 658 1246 q 708 1278 694 1268 q 722 1299 722 1288 q 679 1324 722 1324 q 631 1314 649 1324 q 600 1304 613 1304 q 578 1313 586 1304 q 571 1332 571 1322 q 586 1360 571 1350 q 632 1379 610 1375 q 681 1383 654 1383 q 763 1363 733 1383 q 792 1300 792 1343 q 772 1249 792 1267 q 729 1219 751 1232 q 697 1185 707 1206 q 663 1165 689 1165 m 372 1025 q 342 1037 354 1025 q 331 1063 329 1049 q 342 1088 331 1076 l 436 1168 q 460 1185 447 1178 q 492 1193 472 1193 l 544 1193 q 576 1185 564 1193 q 600 1168 589 1178 l 694 1088 q 706 1063 706 1076 q 694 1037 707 1049 q 664 1025 682 1025 q 639 1033 650 1025 l 518 1129 l 397 1033 q 372 1025 386 1025 z "},"Ẫ":{"ha":1036,"x_min":69,"x_max":967,"o":"m 132 -7 q 86 11 103 -7 q 69 56 69 29 q 76 83 69 67 l 431 919 q 460 959 440 942 q 511 976 481 976 l 525 976 q 576 959 557 976 q 606 919 596 942 l 960 83 q 967 56 967 67 q 950 11 967 29 q 904 -7 933 -7 q 844 32 861 -7 l 754 249 l 282 249 l 192 32 q 132 -7 175 -7 m 331 364 l 706 364 l 518 815 l 331 364 m 351 1218 q 333 1224 342 1218 q 325 1240 325 1231 q 352 1307 325 1274 q 432 1340 379 1340 q 492 1331 465 1340 q 547 1313 519 1322 q 604 1303 574 1303 q 661 1329 644 1303 q 669 1340 664 1335 q 686 1344 674 1344 q 713 1322 710 1344 q 681 1255 713 1288 q 604 1222 650 1222 q 544 1233 572 1222 q 489 1253 515 1243 q 433 1263 463 1263 q 394 1255 407 1263 q 376 1235 382 1247 q 367 1223 375 1228 q 351 1218 358 1218 m 372 1025 q 342 1037 354 1025 q 331 1063 329 1049 q 342 1088 331 1076 l 436 1168 q 460 1185 447 1178 q 492 1193 472 1193 l 544 1193 q 576 1185 564 1193 q 600 1168 589 1178 l 694 1088 q 706 1063 706 1076 q 694 1037 707 1049 q 664 1025 682 1025 q 639 1033 650 1025 l 518 1129 l 397 1033 q 372 1025 386 1025 z "},"Ȁ":{"ha":1036,"x_min":69,"x_max":967,"o":"m 132 -7 q 86 11 103 -7 q 69 56 69 29 q 76 83 69 67 l 431 919 q 460 959 440 942 q 511 976 481 976 l 525 976 q 576 959 557 976 q 606 919 596 942 l 960 83 q 967 56 967 67 q 950 11 967 29 q 904 -7 933 -7 q 844 32 861 -7 l 754 249 l 282 249 l 192 32 q 132 -7 175 -7 m 331 364 l 706 364 l 518 815 l 331 364 m 625 1026 q 598 1037 608 1026 q 588 1064 588 1047 q 592 1080 588 1072 q 597 1090 596 1088 l 668 1215 q 685 1234 675 1226 q 714 1242 696 1242 q 751 1228 738 1242 q 765 1190 765 1214 q 751 1156 765 1171 l 656 1042 q 625 1026 643 1026 m 411 1026 q 384 1037 394 1026 q 374 1064 374 1047 q 378 1080 374 1072 q 383 1090 382 1088 l 454 1215 q 472 1234 461 1226 q 500 1242 482 1242 q 538 1228 524 1242 q 551 1190 551 1214 q 538 1156 551 1171 l 442 1042 q 411 1026 429 1026 z "},"Ä":{"ha":1036,"x_min":69,"x_max":967,"o":"m 132 -7 q 86 11 103 -7 q 69 56 69 29 q 76 83 69 67 l 431 919 q 460 959 440 942 q 511 976 481 976 l 525 976 q 576 959 557 976 q 606 919 596 942 l 960 83 q 967 56 967 67 q 950 11 967 29 q 904 -7 933 -7 q 844 32 861 -7 l 754 249 l 282 249 l 192 32 q 132 -7 175 -7 m 331 364 l 706 364 l 518 815 l 331 364 m 635 1038 q 585 1058 606 1038 q 564 1108 564 1079 q 585 1158 564 1138 q 635 1179 606 1179 q 685 1158 664 1179 q 706 1108 706 1138 q 685 1058 706 1079 q 635 1038 664 1038 m 401 1038 q 351 1058 372 1038 q 331 1108 331 1079 q 351 1158 331 1138 q 401 1179 372 1179 q 451 1158 431 1179 q 472 1108 472 1138 q 451 1058 472 1079 q 401 1038 431 1038 z "},"Ạ":{"ha":1036,"x_min":69,"x_max":967,"o":"m 132 -7 q 86 11 103 -7 q 69 56 69 29 q 76 83 69 67 l 431 919 q 460 959 440 942 q 511 976 481 976 l 525 976 q 576 959 557 976 q 606 919 596 942 l 960 83 q 967 56 967 67 q 950 11 967 29 q 904 -7 933 -7 q 844 32 861 -7 l 754 249 l 282 249 l 192 32 q 132 -7 175 -7 m 331 364 l 706 364 l 518 815 l 331 364 m 518 -231 q 468 -210 489 -231 q 447 -160 447 -189 q 468 -110 447 -131 q 518 -89 489 -89 q 568 -110 547 -89 q 589 -160 589 -131 q 568 -210 589 -189 q 518 -231 547 -231 z "},"À":{"ha":1036,"x_min":69,"x_max":967,"o":"m 132 -7 q 86 11 103 -7 q 69 56 69 29 q 76 83 69 67 l 431 919 q 460 959 440 942 q 511 976 481 976 l 525 976 q 576 959 557 976 q 606 919 596 942 l 960 83 q 967 56 967 67 q 950 11 967 29 q 904 -7 933 -7 q 844 32 861 -7 l 754 249 l 282 249 l 192 32 q 132 -7 175 -7 m 331 364 l 706 364 l 518 815 l 331 364 m 518 1026 q 488 1042 500 1026 l 392 1156 q 378 1190 378 1171 q 392 1228 378 1214 q 429 1242 407 1242 q 458 1234 447 1242 q 475 1215 469 1226 l 546 1090 q 552 1080 549 1088 q 556 1064 556 1072 q 545 1037 556 1047 q 518 1026 535 1026 z "},"Ả":{"ha":1036,"x_min":69,"x_max":967,"o":"m 132 -7 q 86 11 103 -7 q 69 56 69 29 q 76 83 69 67 l 431 919 q 460 959 440 942 q 511 976 481 976 l 525 976 q 576 959 557 976 q 606 919 596 942 l 960 83 q 967 56 967 67 q 950 11 967 29 q 904 -7 933 -7 q 844 32 861 -7 l 754 249 l 282 249 l 192 32 q 132 -7 175 -7 m 331 364 l 706 364 l 518 815 l 331 364 m 508 1025 q 487 1033 497 1025 q 476 1054 476 1040 q 491 1095 476 1079 q 525 1122 506 1111 q 559 1147 544 1133 q 574 1178 574 1160 q 560 1203 574 1196 q 525 1211 546 1211 q 465 1199 485 1211 q 432 1186 444 1186 q 410 1196 418 1186 q 403 1215 403 1206 q 418 1242 403 1232 q 471 1263 442 1257 q 525 1269 500 1269 q 609 1244 579 1269 q 639 1179 639 1219 q 626 1132 639 1150 q 597 1102 614 1114 q 563 1078 579 1090 q 540 1046 547 1065 q 508 1025 532 1025 z "},"Ȃ":{"ha":1036,"x_min":69,"x_max":967,"o":"m 132 -7 q 86 11 103 -7 q 69 56 69 29 q 76 83 69 67 l 431 919 q 460 959 440 942 q 511 976 481 976 l 525 976 q 576 959 557 976 q 606 919 596 942 l 960 83 q 967 56 967 67 q 950 11 967 29 q 904 -7 933 -7 q 844 32 861 -7 l 754 249 l 282 249 l 192 32 q 132 -7 175 -7 m 331 364 l 706 364 l 518 815 l 331 364 m 363 1026 q 331 1039 343 1026 q 319 1069 319 1051 q 324 1089 319 1081 q 401 1171 350 1140 q 518 1201 451 1201 q 635 1171 585 1201 q 713 1089 686 1140 q 717 1069 717 1081 q 705 1039 717 1051 q 674 1026 693 1026 q 635 1053 647 1026 q 590 1103 621 1085 q 518 1121 558 1121 q 447 1103 478 1121 q 401 1053 417 1085 q 363 1026 389 1026 z "},"Ā":{"ha":1036,"x_min":69,"x_max":967,"o":"m 132 -7 q 86 11 103 -7 q 69 56 69 29 q 76 83 69 67 l 431 919 q 460 959 440 942 q 511 976 481 976 l 525 976 q 576 959 557 976 q 606 919 596 942 l 960 83 q 967 56 967 67 q 950 11 967 29 q 904 -7 933 -7 q 844 32 861 -7 l 754 249 l 282 249 l 192 32 q 132 -7 175 -7 m 331 364 l 706 364 l 518 815 l 331 364 m 356 1056 q 326 1067 338 1056 q 314 1097 314 1079 q 326 1127 314 1115 q 356 1139 338 1139 l 681 1139 q 710 1127 699 1139 q 722 1097 722 1115 q 710 1067 722 1079 q 681 1056 699 1056 l 356 1056 z "},"Ą":{"ha":1036,"x_min":69,"x_max":967,"o":"m 824 -282 q 734 -251 774 -282 q 694 -165 694 -221 q 729 -67 694 -117 q 849 22 764 -17 l 754 249 l 282 249 l 192 32 q 132 -7 175 -7 q 86 11 103 -7 q 69 56 69 29 q 76 83 69 67 l 431 919 q 460 959 440 942 q 511 976 481 976 l 525 976 q 576 959 557 976 q 606 919 596 942 l 960 83 q 967 56 967 67 q 932 -1 967 15 q 873 -33 906 -12 q 818 -79 840 -53 q 796 -139 796 -106 q 813 -187 797 -169 q 867 -204 829 -204 q 894 -201 882 -204 q 915 -196 906 -199 q 928 -193 924 -193 q 958 -224 958 -193 q 943 -249 958 -237 q 892 -273 921 -264 q 824 -282 863 -282 m 331 364 l 706 364 l 518 815 l 331 364 z "},"Å":{"ha":1036,"x_min":69,"x_max":967,"o":"m 132 -7 q 86 11 103 -7 q 69 56 69 29 q 76 83 69 67 l 431 919 q 460 959 440 942 q 511 976 481 976 l 525 976 q 576 959 557 976 q 606 919 596 942 l 960 83 q 967 56 967 67 q 950 11 967 29 q 904 -7 933 -7 q 844 32 861 -7 l 754 249 l 282 249 l 192 32 q 132 -7 175 -7 m 331 364 l 706 364 l 518 815 l 331 364 m 518 1004 q 426 1042 464 1004 q 388 1135 388 1081 q 426 1227 388 1189 q 518 1265 464 1265 q 610 1227 572 1265 q 649 1135 649 1189 q 610 1042 649 1081 q 518 1004 572 1004 m 518 1067 q 566 1087 546 1067 q 586 1135 586 1107 q 566 1183 586 1163 q 518 1203 546 1203 q 470 1183 490 1203 q 450 1135 450 1163 q 470 1087 450 1107 q 518 1067 490 1067 z "},"Ǻ":{"ha":1036,"x_min":69,"x_max":967,"o":"m 640 1242 q 619 1251 628 1242 q 611 1269 611 1260 q 613 1285 611 1279 q 618 1297 615 1292 l 668 1382 q 691 1408 679 1400 q 713 1415 703 1415 q 745 1403 731 1415 q 760 1371 760 1392 q 742 1332 760 1350 l 671 1256 q 655 1244 663 1247 q 640 1242 647 1242 m 518 1004 q 426 1042 464 1004 q 388 1135 388 1081 q 426 1227 388 1189 q 518 1265 464 1265 q 610 1227 572 1265 q 649 1135 649 1189 q 610 1042 649 1081 q 518 1004 572 1004 m 518 1067 q 566 1087 546 1067 q 586 1135 586 1107 q 566 1183 586 1163 q 518 1203 546 1203 q 470 1183 490 1203 q 450 1135 450 1163 q 470 1087 450 1107 q 518 1067 490 1067 m 132 -7 q 86 11 103 -7 q 69 56 69 29 q 76 83 69 67 l 431 919 q 460 959 440 942 q 511 976 481 976 l 525 976 q 576 959 557 976 q 606 919 596 942 l 960 83 q 967 56 967 67 q 950 11 967 29 q 904 -7 933 -7 q 844 32 861 -7 l 754 249 l 282 249 l 192 32 q 132 -7 175 -7 m 331 364 l 706 364 l 518 815 l 331 364 z "},"Ã":{"ha":1036,"x_min":69,"x_max":967,"o":"m 132 -7 q 86 11 103 -7 q 69 56 69 29 q 76 83 69 67 l 431 919 q 460 959 440 942 q 511 976 481 976 l 525 976 q 576 959 557 976 q 606 919 596 942 l 960 83 q 967 56 967 67 q 950 11 967 29 q 904 -7 933 -7 q 844 32 861 -7 l 754 249 l 282 249 l 192 32 q 132 -7 175 -7 m 331 364 l 706 364 l 518 815 l 331 364 m 326 1032 q 304 1041 314 1032 q 294 1064 294 1050 q 308 1122 294 1092 q 349 1174 322 1153 q 411 1196 375 1196 q 486 1180 451 1196 q 554 1147 521 1164 q 625 1131 588 1131 q 659 1140 647 1131 q 676 1168 671 1150 q 688 1188 681 1179 q 711 1197 696 1197 q 734 1188 726 1197 q 743 1167 742 1179 q 728 1107 743 1138 q 688 1056 714 1076 q 626 1035 661 1035 q 550 1051 585 1035 q 482 1085 515 1068 q 413 1101 449 1101 q 379 1089 392 1101 q 358 1057 367 1076 q 348 1040 356 1047 q 326 1032 340 1032 z "},"Æ":{"ha":1444,"x_min":3,"x_max":1372,"o":"m 67 -7 q 22 11 40 -7 q 3 56 3 29 q 7 76 3 67 q 17 94 11 85 l 571 935 q 635 969 594 969 l 1313 969 q 1355 952 1338 969 q 1372 910 1372 935 q 1355 868 1372 885 q 1313 851 1338 851 l 819 851 l 819 544 l 1263 544 q 1305 527 1288 544 q 1322 485 1322 510 q 1305 443 1322 460 q 1263 426 1288 426 l 819 426 l 819 118 l 1313 118 q 1355 101 1338 118 q 1372 58 1372 83 q 1355 17 1372 33 q 1313 0 1338 0 l 756 0 q 711 18 729 0 q 693 63 693 36 l 693 249 l 265 249 l 124 29 q 100 4 114 15 q 67 -7 86 -7 m 340 364 l 693 364 l 693 851 l 658 851 l 340 364 z "},"Ǽ":{"ha":1444,"x_min":3,"x_max":1372,"o":"m 67 -7 q 22 11 40 -7 q 3 56 3 29 q 7 76 3 67 q 17 94 11 85 l 571 935 q 635 969 594 969 l 1313 969 q 1355 952 1338 969 q 1372 910 1372 935 q 1355 868 1372 885 q 1313 851 1338 851 l 819 851 l 819 544 l 1263 544 q 1305 527 1288 544 q 1322 485 1322 510 q 1305 443 1322 460 q 1263 426 1288 426 l 819 426 l 819 118 l 1313 118 q 1355 101 1338 118 q 1372 58 1372 83 q 1355 17 1372 33 q 1313 0 1338 0 l 756 0 q 711 18 729 0 q 693 63 693 36 l 693 249 l 265 249 l 124 29 q 100 4 114 15 q 67 -7 86 -7 m 340 364 l 693 364 l 693 851 l 658 851 l 340 364 m 757 1026 q 730 1037 740 1026 q 719 1064 719 1047 q 724 1080 719 1072 q 729 1090 728 1088 l 800 1215 q 817 1234 807 1226 q 846 1242 828 1242 q 883 1228 869 1242 q 897 1190 897 1214 q 883 1156 897 1171 l 788 1042 q 757 1026 775 1026 z "},"B":{"ha":963,"x_min":135,"x_max":890,"o":"m 197 0 q 153 18 171 0 q 135 63 135 36 l 135 906 q 153 951 135 932 q 197 969 171 969 l 525 969 q 757 900 678 969 q 836 718 836 831 q 794 580 836 632 q 700 504 753 528 q 794 458 750 489 q 864 382 838 428 q 890 272 890 336 q 855 130 890 192 q 741 34 819 68 q 533 0 663 0 l 197 0 m 261 550 l 492 550 q 628 571 579 550 q 696 628 676 592 q 715 708 715 664 q 663 813 715 774 q 515 851 610 851 l 261 851 l 261 550 m 261 118 l 521 118 q 670 138 617 118 q 746 194 724 158 q 768 278 768 231 q 705 398 768 360 q 522 436 642 436 l 261 436 l 261 118 z "},"C":{"ha":965,"x_min":76,"x_max":911,"o":"m 563 -14 q 315 47 425 -14 q 140 219 204 107 q 76 485 76 331 q 140 751 76 640 q 315 923 204 863 q 563 983 425 983 q 740 958 665 983 q 879 897 815 933 q 901 878 893 890 q 910 847 908 867 q 896 808 911 825 q 854 792 881 792 q 829 797 840 792 q 715 844 774 826 q 575 863 657 863 q 369 813 453 863 q 244 677 286 763 q 203 485 203 592 q 244 292 203 378 q 369 157 286 207 q 575 107 453 107 q 715 125 657 107 q 829 172 774 143 q 854 178 840 178 q 896 161 881 178 q 910 122 911 144 q 901 91 908 103 q 879 72 893 79 q 740 11 815 36 q 563 -14 665 -14 z "},"Ć":{"ha":965,"x_min":76,"x_max":911,"o":"m 563 -14 q 315 47 425 -14 q 140 219 204 107 q 76 485 76 331 q 140 751 76 640 q 315 923 204 863 q 563 983 425 983 q 740 958 665 983 q 879 897 815 933 q 901 878 893 890 q 910 847 908 867 q 896 808 911 825 q 854 792 881 792 q 829 797 840 792 q 715 844 774 826 q 575 863 657 863 q 369 813 453 863 q 244 677 286 763 q 203 485 203 592 q 244 292 203 378 q 369 157 286 207 q 575 107 453 107 q 715 125 657 107 q 829 172 774 143 q 854 178 840 178 q 896 161 881 178 q 910 122 911 144 q 901 91 908 103 q 879 72 893 79 q 740 11 815 36 q 563 -14 665 -14 m 549 1026 q 522 1037 532 1026 q 511 1064 511 1047 q 515 1080 511 1072 q 521 1090 519 1088 l 592 1215 q 609 1234 599 1226 q 638 1242 619 1242 q 675 1228 661 1242 q 689 1190 689 1214 q 675 1156 689 1171 l 579 1042 q 549 1026 567 1026 z "},"Č":{"ha":965,"x_min":76,"x_max":911,"o":"m 563 -14 q 315 47 425 -14 q 140 219 204 107 q 76 485 76 331 q 140 751 76 640 q 315 923 204 863 q 563 983 425 983 q 740 958 665 983 q 879 897 815 933 q 901 878 893 890 q 910 847 908 867 q 896 808 911 825 q 854 792 881 792 q 829 797 840 792 q 715 844 774 826 q 575 863 657 863 q 369 813 453 863 q 244 677 286 763 q 203 485 203 592 q 244 292 203 378 q 369 157 286 207 q 575 107 453 107 q 715 125 657 107 q 829 172 774 143 q 854 178 840 178 q 896 161 881 178 q 910 122 911 144 q 901 91 908 103 q 879 72 893 79 q 740 11 815 36 q 563 -14 665 -14 m 522 1026 q 490 1035 503 1026 q 467 1054 478 1043 l 372 1151 q 361 1178 361 1163 q 372 1206 360 1193 q 403 1219 385 1219 q 428 1210 418 1219 l 549 1107 l 669 1210 q 694 1219 679 1219 q 725 1206 713 1219 q 736 1178 738 1193 q 725 1151 736 1163 l 631 1054 q 608 1035 621 1043 q 575 1026 594 1026 l 522 1026 z "},"Ç":{"ha":965,"x_min":76,"x_max":911,"o":"m 563 -14 q 315 47 425 -14 q 140 219 204 107 q 76 485 76 331 q 140 751 76 640 q 315 923 204 863 q 563 983 425 983 q 740 958 665 983 q 879 897 815 933 q 901 878 893 890 q 910 847 908 867 q 896 808 911 825 q 854 792 881 792 q 829 797 840 792 q 715 844 774 826 q 575 863 657 863 q 369 813 453 863 q 244 677 286 763 q 203 485 203 592 q 244 292 203 378 q 369 157 286 207 q 575 107 453 107 q 715 125 657 107 q 829 172 774 143 q 854 178 840 178 q 896 161 881 178 q 910 122 911 144 q 901 91 908 103 q 879 72 893 79 q 740 11 815 36 q 563 -14 665 -14 m 531 -307 q 475 -300 508 -307 q 406 -271 442 -293 q 395 -261 400 -268 q 390 -247 390 -254 q 397 -228 390 -236 q 417 -219 403 -219 q 425 -221 421 -219 q 431 -224 429 -222 q 474 -242 454 -236 q 513 -247 494 -247 q 569 -233 546 -247 q 592 -183 592 -219 q 577 -151 592 -162 q 542 -140 563 -140 q 514 -143 528 -140 q 481 -156 500 -146 q 475 -158 479 -157 q 467 -160 471 -160 q 449 -153 457 -160 q 442 -137 442 -147 q 444 -126 442 -131 q 447 -118 446 -121 l 536 24 l 594 24 l 531 -87 q 578 -82 553 -82 q 655 -108 625 -82 q 685 -179 685 -135 q 644 -275 685 -243 q 531 -307 604 -307 z "},"Ḉ":{"ha":965,"x_min":76,"x_max":911,"o":"m 563 -14 q 315 47 425 -14 q 140 219 204 107 q 76 485 76 331 q 140 751 76 640 q 315 923 204 863 q 563 983 425 983 q 740 958 665 983 q 879 897 815 933 q 901 878 893 890 q 910 847 908 867 q 896 808 911 825 q 854 792 881 792 q 829 797 840 792 q 715 844 774 826 q 575 863 657 863 q 369 813 453 863 q 244 677 286 763 q 203 485 203 592 q 244 292 203 378 q 369 157 286 207 q 575 107 453 107 q 715 125 657 107 q 829 172 774 143 q 854 178 840 178 q 896 161 881 178 q 910 122 911 144 q 901 91 908 103 q 879 72 893 79 q 740 11 815 36 q 563 -14 665 -14 m 531 -307 q 475 -300 508 -307 q 406 -271 442 -293 q 395 -261 400 -268 q 390 -247 390 -254 q 397 -228 390 -236 q 417 -219 403 -219 q 425 -221 421 -219 q 431 -224 429 -222 q 474 -242 454 -236 q 513 -247 494 -247 q 569 -233 546 -247 q 592 -183 592 -219 q 577 -151 592 -162 q 542 -140 563 -140 q 514 -143 528 -140 q 481 -156 500 -146 q 475 -158 479 -157 q 467 -160 471 -160 q 449 -153 457 -160 q 442 -137 442 -147 q 444 -126 442 -131 q 447 -118 446 -121 l 536 24 l 594 24 l 531 -87 q 578 -82 553 -82 q 655 -108 625 -82 q 685 -179 685 -135 q 644 -275 685 -243 q 531 -307 604 -307 m 549 1026 q 522 1037 532 1026 q 511 1064 511 1047 q 515 1080 511 1072 q 521 1090 519 1088 l 592 1215 q 609 1234 599 1226 q 638 1242 619 1242 q 675 1228 661 1242 q 689 1190 689 1214 q 675 1156 689 1171 l 579 1042 q 549 1026 567 1026 z "},"Ĉ":{"ha":965,"x_min":76,"x_max":911,"o":"m 563 -14 q 315 47 425 -14 q 140 219 204 107 q 76 485 76 331 q 140 751 76 640 q 315 923 204 863 q 563 983 425 983 q 740 958 665 983 q 879 897 815 933 q 901 878 893 890 q 910 847 908 867 q 896 808 911 825 q 854 792 881 792 q 829 797 840 792 q 715 844 774 826 q 575 863 657 863 q 369 813 453 863 q 244 677 286 763 q 203 485 203 592 q 244 292 203 378 q 369 157 286 207 q 575 107 453 107 q 715 125 657 107 q 829 172 774 143 q 854 178 840 178 q 896 161 881 178 q 910 122 911 144 q 901 91 908 103 q 879 72 893 79 q 740 11 815 36 q 563 -14 665 -14 m 403 1025 q 372 1038 385 1025 q 361 1067 360 1051 q 372 1093 361 1082 l 467 1190 q 490 1210 478 1201 q 522 1218 503 1218 l 575 1218 q 608 1210 594 1218 q 631 1190 621 1201 l 725 1093 q 736 1067 736 1082 q 725 1038 738 1051 q 694 1025 713 1025 q 669 1035 679 1025 l 549 1138 l 428 1035 q 403 1025 418 1025 z "},"Ċ":{"ha":965,"x_min":76,"x_max":911,"o":"m 563 -14 q 315 47 425 -14 q 140 219 204 107 q 76 485 76 331 q 140 751 76 640 q 315 923 204 863 q 563 983 425 983 q 740 958 665 983 q 879 897 815 933 q 901 878 893 890 q 910 847 908 867 q 896 808 911 825 q 854 792 881 792 q 829 797 840 792 q 715 844 774 826 q 575 863 657 863 q 369 813 453 863 q 244 677 286 763 q 203 485 203 592 q 244 292 203 378 q 369 157 286 207 q 575 107 453 107 q 715 125 657 107 q 829 172 774 143 q 854 178 840 178 q 896 161 881 178 q 910 122 911 144 q 901 91 908 103 q 879 72 893 79 q 740 11 815 36 q 563 -14 665 -14 m 549 1038 q 499 1058 519 1038 q 478 1108 478 1079 q 499 1158 478 1138 q 549 1179 519 1179 q 599 1158 578 1179 q 619 1108 619 1138 q 599 1058 619 1079 q 549 1038 578 1038 z "},"D":{"ha":1043,"x_min":135,"x_max":967,"o":"m 197 0 q 153 18 171 0 q 135 63 135 36 l 135 906 q 153 951 135 932 q 197 969 171 969 l 476 969 q 693 927 601 969 q 846 815 785 885 q 937 658 907 744 q 967 485 967 572 q 937 311 967 397 q 846 155 907 225 q 693 42 785 85 q 476 0 601 0 l 197 0 m 261 118 l 461 118 q 663 165 578 118 q 795 294 749 211 q 842 485 842 376 q 795 676 842 593 q 663 805 749 758 q 461 851 578 851 l 261 851 l 261 118 z "},"Ǆ":{"ha":1886,"x_min":135,"x_max":1824,"o":"m 197 0 q 153 18 171 0 q 135 63 135 36 l 135 906 q 153 951 135 932 q 197 969 171 969 l 476 969 q 693 927 601 969 q 846 815 785 885 q 937 658 907 744 q 967 485 967 572 q 937 311 967 397 q 846 155 907 225 q 693 42 785 85 q 476 0 601 0 l 197 0 m 261 118 l 461 118 q 663 165 578 118 q 795 294 749 211 q 842 485 842 376 q 795 676 842 593 q 663 805 749 758 q 461 851 578 851 l 261 851 l 261 118 m 1146 0 q 1089 24 1113 0 q 1065 81 1065 47 q 1082 132 1065 111 l 1663 849 l 1128 849 q 1085 866 1103 849 q 1068 908 1068 883 q 1085 951 1068 933 q 1128 969 1103 969 l 1731 969 q 1793 944 1771 969 q 1815 883 1815 918 q 1793 828 1815 853 l 1219 118 l 1764 118 q 1806 101 1789 118 q 1824 58 1824 83 q 1806 17 1824 33 q 1764 0 1789 0 l 1146 0 m 1417 1026 q 1385 1035 1397 1026 q 1361 1054 1372 1043 l 1267 1151 q 1256 1178 1256 1163 q 1267 1206 1254 1193 q 1297 1219 1279 1219 q 1322 1210 1313 1219 l 1443 1107 l 1564 1210 q 1589 1219 1574 1219 q 1619 1206 1607 1219 q 1631 1178 1632 1193 q 1619 1151 1631 1163 l 1525 1054 q 1502 1035 1515 1043 q 1469 1026 1489 1026 l 1417 1026 z "},"Ð":{"ha":1050,"x_min":21,"x_max":974,"o":"m 204 0 q 160 18 178 0 q 142 63 142 36 l 142 438 l 67 438 q 34 451 47 438 q 21 483 21 464 q 34 517 21 503 q 67 531 47 531 l 142 531 l 142 906 q 160 951 142 932 q 204 969 178 969 l 483 969 q 700 927 608 969 q 853 815 792 885 q 944 658 914 744 q 974 485 974 572 q 944 311 974 397 q 853 155 914 225 q 700 42 792 85 q 483 0 608 0 l 204 0 m 268 118 l 468 118 q 670 165 585 118 q 802 294 756 211 q 849 485 849 376 q 802 676 849 593 q 670 805 756 758 q 468 851 585 851 l 268 851 l 268 531 l 431 531 q 464 517 450 531 q 478 483 478 503 q 464 451 478 464 q 431 438 450 438 l 268 438 l 268 118 z "},"Ď":{"ha":1043,"x_min":135,"x_max":967,"o":"m 197 0 q 153 18 171 0 q 135 63 135 36 l 135 906 q 153 951 135 932 q 197 969 171 969 l 476 969 q 693 927 601 969 q 846 815 785 885 q 937 658 907 744 q 967 485 967 572 q 937 311 967 397 q 846 155 907 225 q 693 42 785 85 q 476 0 601 0 l 197 0 m 261 118 l 461 118 q 663 165 578 118 q 795 294 749 211 q 842 485 842 376 q 795 676 842 593 q 663 805 749 758 q 461 851 578 851 l 261 851 l 261 118 m 494 1026 q 463 1035 475 1026 q 439 1054 450 1043 l 344 1151 q 333 1178 333 1163 q 344 1206 332 1193 q 375 1219 357 1219 q 400 1210 390 1219 l 521 1107 l 642 1210 q 667 1219 651 1219 q 697 1206 685 1219 q 708 1178 710 1193 q 697 1151 708 1163 l 603 1054 q 580 1035 593 1043 q 547 1026 567 1026 l 494 1026 z "},"Đ":{"ha":1050,"x_min":21,"x_max":974,"o":"m 204 0 q 160 18 178 0 q 142 63 142 36 l 142 438 l 67 438 q 34 451 47 438 q 21 483 21 464 q 34 517 21 503 q 67 531 47 531 l 142 531 l 142 906 q 160 951 142 932 q 204 969 178 969 l 483 969 q 700 927 608 969 q 853 815 792 885 q 944 658 914 744 q 974 485 974 572 q 944 311 974 397 q 853 155 914 225 q 700 42 792 85 q 483 0 608 0 l 204 0 m 268 118 l 468 118 q 670 165 585 118 q 802 294 756 211 q 849 485 849 376 q 802 676 849 593 q 670 805 756 758 q 468 851 585 851 l 268 851 l 268 531 l 431 531 q 464 517 450 531 q 478 483 478 503 q 464 451 478 464 q 431 438 450 438 l 268 438 l 268 118 z "},"Ḍ":{"ha":1043,"x_min":135,"x_max":967,"o":"m 197 0 q 153 18 171 0 q 135 63 135 36 l 135 906 q 153 951 135 932 q 197 969 171 969 l 476 969 q 693 927 601 969 q 846 815 785 885 q 937 658 907 744 q 967 485 967 572 q 937 311 967 397 q 846 155 907 225 q 693 42 785 85 q 476 0 601 0 l 197 0 m 261 118 l 461 118 q 663 165 578 118 q 795 294 749 211 q 842 485 842 376 q 795 676 842 593 q 663 805 749 758 q 461 851 578 851 l 261 851 l 261 118 m 521 -231 q 471 -210 492 -231 q 450 -160 450 -189 q 471 -110 450 -131 q 521 -89 492 -89 q 571 -110 550 -89 q 592 -160 592 -131 q 571 -210 592 -189 q 521 -231 550 -231 z "},"Ḏ":{"ha":1043,"x_min":135,"x_max":967,"o":"m 197 0 q 153 18 171 0 q 135 63 135 36 l 135 906 q 153 951 135 932 q 197 969 171 969 l 476 969 q 693 927 601 969 q 846 815 785 885 q 937 658 907 744 q 967 485 967 572 q 937 311 967 397 q 846 155 907 225 q 693 42 785 85 q 476 0 601 0 l 197 0 m 261 118 l 461 118 q 663 165 578 118 q 795 294 749 211 q 842 485 842 376 q 795 676 842 593 q 663 805 749 758 q 461 851 578 851 l 261 851 l 261 118 m 358 -190 q 328 -178 340 -190 q 317 -149 317 -167 q 328 -119 317 -131 q 358 -107 340 -107 l 683 -107 q 713 -119 701 -107 q 725 -149 725 -131 q 713 -178 725 -167 q 683 -190 701 -190 l 358 -190 z "},"ǅ":{"ha":1706,"x_min":135,"x_max":1650,"o":"m 197 0 q 153 18 171 0 q 135 63 135 36 l 135 906 q 153 951 135 932 q 197 969 171 969 l 476 969 q 693 927 601 969 q 846 815 785 885 q 937 658 907 744 q 967 485 967 572 q 937 311 967 397 q 846 155 907 225 q 693 42 785 85 q 476 0 601 0 l 197 0 m 261 118 l 461 118 q 663 165 578 118 q 795 294 749 211 q 842 485 842 376 q 795 676 842 593 q 663 805 749 758 q 461 851 578 851 l 261 851 l 261 118 m 1157 0 q 1095 19 1121 0 q 1069 74 1069 38 q 1092 131 1069 106 l 1492 590 l 1140 590 q 1099 607 1115 590 q 1082 649 1082 624 q 1099 691 1082 674 q 1140 708 1115 708 l 1561 708 q 1619 687 1597 708 q 1642 629 1642 665 q 1622 574 1642 597 l 1233 118 l 1590 118 q 1633 101 1615 118 q 1650 58 1650 83 q 1633 17 1650 33 q 1590 0 1615 0 l 1157 0 m 1336 788 q 1304 796 1317 788 q 1281 815 1292 804 l 1186 913 q 1175 939 1175 924 q 1186 967 1174 954 q 1217 981 1199 981 q 1242 971 1232 981 l 1363 868 l 1483 971 q 1508 981 1493 981 q 1539 967 1526 981 q 1550 939 1551 954 q 1539 913 1550 924 l 1444 815 q 1422 796 1435 804 q 1389 788 1408 788 l 1336 788 z "},"E":{"ha":886,"x_min":135,"x_max":814,"o":"m 197 0 q 153 18 171 0 q 135 63 135 36 l 135 906 q 153 951 135 932 q 197 969 171 969 l 754 969 q 797 952 779 969 q 814 910 814 935 q 797 868 814 885 q 754 851 779 851 l 261 851 l 261 544 l 704 544 q 747 527 729 544 q 764 485 764 510 q 747 443 764 460 q 704 426 729 426 l 261 426 l 261 118 l 754 118 q 797 101 779 118 q 814 58 814 83 q 797 17 814 33 q 754 0 779 0 l 197 0 z "},"É":{"ha":886,"x_min":135,"x_max":814,"o":"m 197 0 q 153 18 171 0 q 135 63 135 36 l 135 906 q 153 951 135 932 q 197 969 171 969 l 754 969 q 797 952 779 969 q 814 910 814 935 q 797 868 814 885 q 754 851 779 851 l 261 851 l 261 544 l 704 544 q 747 527 729 544 q 764 485 764 510 q 747 443 764 460 q 704 426 729 426 l 261 426 l 261 118 l 754 118 q 797 101 779 118 q 814 58 814 83 q 797 17 814 33 q 754 0 779 0 l 197 0 m 475 1026 q 448 1037 458 1026 q 438 1064 438 1047 q 442 1080 438 1072 q 447 1090 446 1088 l 518 1215 q 535 1234 525 1226 q 564 1242 546 1242 q 601 1228 588 1242 q 615 1190 615 1214 q 601 1156 615 1171 l 506 1042 q 475 1026 493 1026 z "},"Ĕ":{"ha":886,"x_min":135,"x_max":814,"o":"m 197 0 q 153 18 171 0 q 135 63 135 36 l 135 906 q 153 951 135 932 q 197 969 171 969 l 754 969 q 797 952 779 969 q 814 910 814 935 q 797 868 814 885 q 754 851 779 851 l 261 851 l 261 544 l 704 544 q 747 527 729 544 q 764 485 764 510 q 747 443 764 460 q 704 426 729 426 l 261 426 l 261 118 l 754 118 q 797 101 779 118 q 814 58 814 83 q 797 17 814 33 q 754 0 779 0 l 197 0 m 475 1039 q 358 1069 408 1039 q 281 1151 307 1100 q 276 1171 276 1160 q 288 1201 276 1189 q 319 1214 300 1214 q 358 1188 346 1214 q 404 1138 374 1157 q 475 1119 435 1119 q 547 1138 515 1119 q 592 1188 578 1157 q 631 1214 604 1214 q 662 1201 650 1214 q 674 1171 674 1189 q 669 1151 674 1160 q 592 1069 643 1100 q 475 1039 542 1039 z "},"Ě":{"ha":886,"x_min":135,"x_max":814,"o":"m 197 0 q 153 18 171 0 q 135 63 135 36 l 135 906 q 153 951 135 932 q 197 969 171 969 l 754 969 q 797 952 779 969 q 814 910 814 935 q 797 868 814 885 q 754 851 779 851 l 261 851 l 261 544 l 704 544 q 747 527 729 544 q 764 485 764 510 q 747 443 764 460 q 704 426 729 426 l 261 426 l 261 118 l 754 118 q 797 101 779 118 q 814 58 814 83 q 797 17 814 33 q 754 0 779 0 l 197 0 m 449 1026 q 417 1035 429 1026 q 393 1054 404 1043 l 299 1151 q 288 1178 288 1163 q 299 1206 286 1193 q 329 1219 311 1219 q 354 1210 344 1219 l 475 1107 l 596 1210 q 621 1219 606 1219 q 651 1206 639 1219 q 663 1178 664 1193 q 651 1151 663 1163 l 557 1054 q 534 1035 547 1043 q 501 1026 521 1026 l 449 1026 z "},"Ḝ":{"ha":886,"x_min":135,"x_max":814,"o":"m 197 0 q 153 18 171 0 q 135 63 135 36 l 135 906 q 153 951 135 932 q 197 969 171 969 l 754 969 q 797 952 779 969 q 814 910 814 935 q 797 868 814 885 q 754 851 779 851 l 261 851 l 261 544 l 704 544 q 747 527 729 544 q 764 485 764 510 q 747 443 764 460 q 704 426 729 426 l 261 426 l 261 118 l 754 118 q 797 101 779 118 q 814 58 814 83 q 797 17 814 33 q 754 0 779 0 l 197 0 m 457 -307 q 401 -300 435 -307 q 332 -271 368 -293 q 322 -261 326 -268 q 317 -247 317 -254 q 323 -228 317 -236 q 343 -219 329 -219 q 351 -221 347 -219 q 357 -224 356 -222 q 401 -242 381 -236 q 439 -247 421 -247 q 495 -233 472 -247 q 518 -183 518 -219 q 503 -151 518 -162 q 468 -140 489 -140 q 440 -143 454 -140 q 407 -156 426 -146 q 401 -158 406 -157 q 393 -160 397 -160 q 376 -153 383 -160 q 368 -137 368 -147 q 370 -126 368 -131 q 374 -118 372 -121 l 463 24 l 521 24 l 457 -87 q 504 -82 479 -82 q 581 -108 551 -82 q 611 -179 611 -135 q 571 -275 611 -243 q 457 -307 531 -307 m 475 1039 q 358 1069 408 1039 q 281 1151 307 1100 q 276 1171 276 1160 q 288 1201 276 1189 q 319 1214 300 1214 q 358 1188 346 1214 q 404 1138 374 1157 q 475 1119 435 1119 q 547 1138 515 1119 q 592 1188 578 1157 q 631 1214 604 1214 q 662 1201 650 1214 q 674 1171 674 1189 q 669 1151 674 1160 q 592 1069 643 1100 q 475 1039 542 1039 z "},"Ê":{"ha":886,"x_min":135,"x_max":814,"o":"m 197 0 q 153 18 171 0 q 135 63 135 36 l 135 906 q 153 951 135 932 q 197 969 171 969 l 754 969 q 797 952 779 969 q 814 910 814 935 q 797 868 814 885 q 754 851 779 851 l 261 851 l 261 544 l 704 544 q 747 527 729 544 q 764 485 764 510 q 747 443 764 460 q 704 426 729 426 l 261 426 l 261 118 l 754 118 q 797 101 779 118 q 814 58 814 83 q 797 17 814 33 q 754 0 779 0 l 197 0 m 329 1025 q 299 1038 311 1025 q 288 1067 286 1051 q 299 1093 288 1082 l 393 1190 q 417 1210 404 1201 q 449 1218 429 1218 l 501 1218 q 534 1210 521 1218 q 557 1190 547 1201 l 651 1093 q 663 1067 663 1082 q 651 1038 664 1051 q 621 1025 639 1025 q 596 1035 606 1025 l 475 1138 l 354 1035 q 329 1025 344 1025 z "},"Ế":{"ha":886,"x_min":135,"x_max":814,"o":"m 197 0 q 153 18 171 0 q 135 63 135 36 l 135 906 q 153 951 135 932 q 197 969 171 969 l 754 969 q 797 952 779 969 q 814 910 814 935 q 797 868 814 885 q 754 851 779 851 l 261 851 l 261 544 l 704 544 q 747 527 729 544 q 764 485 764 510 q 747 443 764 460 q 704 426 729 426 l 261 426 l 261 118 l 754 118 q 797 101 779 118 q 814 58 814 83 q 797 17 814 33 q 754 0 779 0 l 197 0 m 619 1161 q 599 1170 607 1161 q 590 1189 590 1179 q 592 1205 590 1199 q 597 1217 594 1211 l 647 1301 q 670 1327 658 1319 q 692 1335 682 1335 q 724 1323 710 1335 q 739 1290 739 1311 q 721 1251 739 1269 l 650 1175 q 634 1164 642 1167 q 619 1161 626 1161 m 329 1025 q 299 1037 311 1025 q 288 1063 286 1049 q 299 1088 288 1076 l 393 1168 q 417 1185 404 1178 q 449 1193 429 1193 l 501 1193 q 533 1185 521 1193 q 557 1168 546 1178 l 651 1088 q 663 1063 663 1076 q 651 1037 664 1049 q 621 1025 639 1025 q 596 1033 607 1025 l 475 1129 l 354 1033 q 329 1025 343 1025 z "},"Ệ":{"ha":886,"x_min":135,"x_max":814,"o":"m 197 0 q 153 18 171 0 q 135 63 135 36 l 135 906 q 153 951 135 932 q 197 969 171 969 l 754 969 q 797 952 779 969 q 814 910 814 935 q 797 868 814 885 q 754 851 779 851 l 261 851 l 261 544 l 704 544 q 747 527 729 544 q 764 485 764 510 q 747 443 764 460 q 704 426 729 426 l 261 426 l 261 118 l 754 118 q 797 101 779 118 q 814 58 814 83 q 797 17 814 33 q 754 0 779 0 l 197 0 m 475 -231 q 425 -210 446 -231 q 404 -160 404 -189 q 425 -110 404 -131 q 475 -89 446 -89 q 525 -110 504 -89 q 546 -160 546 -131 q 525 -210 546 -189 q 475 -231 504 -231 m 329 1025 q 299 1038 311 1025 q 288 1067 286 1051 q 299 1093 288 1082 l 393 1190 q 417 1210 404 1201 q 449 1218 429 1218 l 501 1218 q 534 1210 521 1218 q 557 1190 547 1201 l 651 1093 q 663 1067 663 1082 q 651 1038 664 1051 q 621 1025 639 1025 q 596 1035 606 1025 l 475 1138 l 354 1035 q 329 1025 344 1025 z "},"Ề":{"ha":886,"x_min":135,"x_max":814,"o":"m 197 0 q 153 18 171 0 q 135 63 135 36 l 135 906 q 153 951 135 932 q 197 969 171 969 l 754 969 q 797 952 779 969 q 814 910 814 935 q 797 868 814 885 q 754 851 779 851 l 261 851 l 261 544 l 704 544 q 747 527 729 544 q 764 485 764 510 q 747 443 764 460 q 704 426 729 426 l 261 426 l 261 118 l 754 118 q 797 101 779 118 q 814 58 814 83 q 797 17 814 33 q 754 0 779 0 l 197 0 m 626 1161 q 612 1164 619 1161 q 596 1175 604 1167 l 525 1251 q 507 1290 507 1269 q 522 1323 507 1311 q 554 1335 536 1335 q 577 1327 565 1335 q 599 1301 589 1319 l 649 1217 q 653 1205 651 1211 q 656 1189 656 1199 q 647 1170 656 1179 q 626 1161 639 1161 m 329 1025 q 299 1037 311 1025 q 288 1063 286 1049 q 299 1088 288 1076 l 393 1168 q 417 1185 404 1178 q 449 1193 429 1193 l 501 1193 q 533 1185 521 1193 q 557 1168 546 1178 l 651 1088 q 663 1063 663 1076 q 651 1037 664 1049 q 621 1025 639 1025 q 596 1033 607 1025 l 475 1129 l 354 1033 q 329 1025 343 1025 z "},"Ể":{"ha":886,"x_min":135,"x_max":814,"o":"m 197 0 q 153 18 171 0 q 135 63 135 36 l 135 906 q 153 951 135 932 q 197 969 171 969 l 754 969 q 797 952 779 969 q 814 910 814 935 q 797 868 814 885 q 754 851 779 851 l 261 851 l 261 544 l 704 544 q 747 527 729 544 q 764 485 764 510 q 747 443 764 460 q 704 426 729 426 l 261 426 l 261 118 l 754 118 q 797 101 779 118 q 814 58 814 83 q 797 17 814 33 q 754 0 779 0 l 197 0 m 619 1165 q 598 1173 608 1165 q 588 1197 588 1181 q 601 1232 588 1218 q 633 1257 615 1246 q 665 1278 651 1268 q 679 1299 679 1288 q 636 1324 679 1324 q 588 1314 606 1324 q 557 1304 569 1304 q 535 1313 543 1304 q 528 1332 528 1322 q 543 1360 528 1350 q 589 1379 567 1375 q 638 1383 611 1383 q 719 1363 690 1383 q 749 1300 749 1343 q 728 1249 749 1267 q 686 1219 708 1232 q 654 1185 664 1206 q 619 1165 646 1165 m 329 1025 q 299 1037 311 1025 q 288 1063 286 1049 q 299 1088 288 1076 l 393 1168 q 417 1185 404 1178 q 449 1193 429 1193 l 501 1193 q 533 1185 521 1193 q 557 1168 546 1178 l 651 1088 q 663 1063 663 1076 q 651 1037 664 1049 q 621 1025 639 1025 q 596 1033 607 1025 l 475 1129 l 354 1033 q 329 1025 343 1025 z "},"Ễ":{"ha":886,"x_min":135,"x_max":814,"o":"m 197 0 q 153 18 171 0 q 135 63 135 36 l 135 906 q 153 951 135 932 q 197 969 171 969 l 754 969 q 797 952 779 969 q 814 910 814 935 q 797 868 814 885 q 754 851 779 851 l 261 851 l 261 544 l 704 544 q 747 527 729 544 q 764 485 764 510 q 747 443 764 460 q 704 426 729 426 l 261 426 l 261 118 l 754 118 q 797 101 779 118 q 814 58 814 83 q 797 17 814 33 q 754 0 779 0 l 197 0 m 308 1218 q 290 1224 299 1218 q 282 1240 282 1231 q 309 1307 282 1274 q 389 1340 336 1340 q 449 1331 422 1340 q 503 1313 476 1322 q 561 1303 531 1303 q 618 1329 601 1303 q 626 1340 621 1335 q 643 1344 631 1344 q 669 1322 667 1344 q 638 1255 669 1288 q 561 1222 607 1222 q 501 1233 529 1222 q 446 1253 472 1243 q 390 1263 419 1263 q 351 1255 364 1263 q 333 1235 339 1247 q 324 1223 332 1228 q 308 1218 315 1218 m 329 1025 q 299 1037 311 1025 q 288 1063 286 1049 q 299 1088 288 1076 l 393 1168 q 417 1185 404 1178 q 449 1193 429 1193 l 501 1193 q 533 1185 521 1193 q 557 1168 546 1178 l 651 1088 q 663 1063 663 1076 q 651 1037 664 1049 q 621 1025 639 1025 q 596 1033 607 1025 l 475 1129 l 354 1033 q 329 1025 343 1025 z "},"Ȅ":{"ha":886,"x_min":135,"x_max":814,"o":"m 197 0 q 153 18 171 0 q 135 63 135 36 l 135 906 q 153 951 135 932 q 197 969 171 969 l 754 969 q 797 952 779 969 q 814 910 814 935 q 797 868 814 885 q 754 851 779 851 l 261 851 l 261 544 l 704 544 q 747 527 729 544 q 764 485 764 510 q 747 443 764 460 q 704 426 729 426 l 261 426 l 261 118 l 754 118 q 797 101 779 118 q 814 58 814 83 q 797 17 814 33 q 754 0 779 0 l 197 0 m 582 1026 q 555 1037 565 1026 q 544 1064 544 1047 q 549 1080 544 1072 q 554 1090 553 1088 l 625 1215 q 642 1234 632 1226 q 671 1242 653 1242 q 708 1228 694 1242 q 722 1190 722 1214 q 708 1156 722 1171 l 613 1042 q 582 1026 600 1026 m 368 1026 q 341 1037 351 1026 q 331 1064 331 1047 q 335 1080 331 1072 q 340 1090 339 1088 l 411 1215 q 428 1234 418 1226 q 457 1242 439 1242 q 494 1228 481 1242 q 508 1190 508 1214 q 494 1156 508 1171 l 399 1042 q 368 1026 386 1026 z "},"Ë":{"ha":886,"x_min":135,"x_max":814,"o":"m 197 0 q 153 18 171 0 q 135 63 135 36 l 135 906 q 153 951 135 932 q 197 969 171 969 l 754 969 q 797 952 779 969 q 814 910 814 935 q 797 868 814 885 q 754 851 779 851 l 261 851 l 261 544 l 704 544 q 747 527 729 544 q 764 485 764 510 q 747 443 764 460 q 704 426 729 426 l 261 426 l 261 118 l 754 118 q 797 101 779 118 q 814 58 814 83 q 797 17 814 33 q 754 0 779 0 l 197 0 m 592 1038 q 542 1058 563 1038 q 521 1108 521 1079 q 542 1158 521 1138 q 592 1179 563 1179 q 642 1158 621 1179 q 663 1108 663 1138 q 642 1058 663 1079 q 592 1038 621 1038 m 358 1038 q 308 1058 329 1038 q 288 1108 288 1079 q 308 1158 288 1138 q 358 1179 329 1179 q 408 1158 388 1179 q 429 1108 429 1138 q 408 1058 429 1079 q 358 1038 388 1038 z "},"Ė":{"ha":886,"x_min":135,"x_max":814,"o":"m 197 0 q 153 18 171 0 q 135 63 135 36 l 135 906 q 153 951 135 932 q 197 969 171 969 l 754 969 q 797 952 779 969 q 814 910 814 935 q 797 868 814 885 q 754 851 779 851 l 261 851 l 261 544 l 704 544 q 747 527 729 544 q 764 485 764 510 q 747 443 764 460 q 704 426 729 426 l 261 426 l 261 118 l 754 118 q 797 101 779 118 q 814 58 814 83 q 797 17 814 33 q 754 0 779 0 l 197 0 m 475 1038 q 425 1058 446 1038 q 404 1108 404 1079 q 425 1158 404 1138 q 475 1179 446 1179 q 525 1158 504 1179 q 546 1108 546 1138 q 525 1058 546 1079 q 475 1038 504 1038 z "},"Ẹ":{"ha":886,"x_min":135,"x_max":814,"o":"m 197 0 q 153 18 171 0 q 135 63 135 36 l 135 906 q 153 951 135 932 q 197 969 171 969 l 754 969 q 797 952 779 969 q 814 910 814 935 q 797 868 814 885 q 754 851 779 851 l 261 851 l 261 544 l 704 544 q 747 527 729 544 q 764 485 764 510 q 747 443 764 460 q 704 426 729 426 l 261 426 l 261 118 l 754 118 q 797 101 779 118 q 814 58 814 83 q 797 17 814 33 q 754 0 779 0 l 197 0 m 475 -231 q 425 -210 446 -231 q 404 -160 404 -189 q 425 -110 404 -131 q 475 -89 446 -89 q 525 -110 504 -89 q 546 -160 546 -131 q 525 -210 546 -189 q 475 -231 504 -231 z "},"È":{"ha":886,"x_min":135,"x_max":814,"o":"m 197 0 q 153 18 171 0 q 135 63 135 36 l 135 906 q 153 951 135 932 q 197 969 171 969 l 754 969 q 797 952 779 969 q 814 910 814 935 q 797 868 814 885 q 754 851 779 851 l 261 851 l 261 544 l 704 544 q 747 527 729 544 q 764 485 764 510 q 747 443 764 460 q 704 426 729 426 l 261 426 l 261 118 l 754 118 q 797 101 779 118 q 814 58 814 83 q 797 17 814 33 q 754 0 779 0 l 197 0 m 475 1026 q 444 1042 457 1026 l 349 1156 q 335 1190 335 1171 q 349 1228 335 1214 q 386 1242 364 1242 q 415 1234 404 1242 q 432 1215 426 1226 l 503 1090 q 509 1080 506 1088 q 513 1064 513 1072 q 502 1037 513 1047 q 475 1026 492 1026 z "},"Ẻ":{"ha":886,"x_min":135,"x_max":814,"o":"m 197 0 q 153 18 171 0 q 135 63 135 36 l 135 906 q 153 951 135 932 q 197 969 171 969 l 754 969 q 797 952 779 969 q 814 910 814 935 q 797 868 814 885 q 754 851 779 851 l 261 851 l 261 544 l 704 544 q 747 527 729 544 q 764 485 764 510 q 747 443 764 460 q 704 426 729 426 l 261 426 l 261 118 l 754 118 q 797 101 779 118 q 814 58 814 83 q 797 17 814 33 q 754 0 779 0 l 197 0 m 465 1025 q 444 1033 454 1025 q 433 1054 433 1040 q 448 1095 433 1079 q 482 1122 463 1111 q 516 1147 501 1133 q 531 1178 531 1160 q 517 1203 531 1196 q 482 1211 503 1211 q 422 1199 442 1211 q 389 1186 401 1186 q 367 1196 375 1186 q 360 1215 360 1206 q 375 1242 360 1232 q 428 1263 399 1257 q 482 1269 457 1269 q 566 1244 536 1269 q 596 1179 596 1219 q 583 1132 596 1150 q 553 1102 571 1114 q 520 1078 536 1090 q 497 1046 504 1065 q 465 1025 489 1025 z "},"Ȇ":{"ha":886,"x_min":135,"x_max":814,"o":"m 197 0 q 153 18 171 0 q 135 63 135 36 l 135 906 q 153 951 135 932 q 197 969 171 969 l 754 969 q 797 952 779 969 q 814 910 814 935 q 797 868 814 885 q 754 851 779 851 l 261 851 l 261 544 l 704 544 q 747 527 729 544 q 764 485 764 510 q 747 443 764 460 q 704 426 729 426 l 261 426 l 261 118 l 754 118 q 797 101 779 118 q 814 58 814 83 q 797 17 814 33 q 754 0 779 0 l 197 0 m 319 1026 q 288 1039 300 1026 q 276 1069 276 1051 q 281 1089 276 1081 q 358 1171 307 1140 q 475 1201 408 1201 q 592 1171 542 1201 q 669 1089 643 1140 q 674 1069 674 1081 q 662 1039 674 1051 q 631 1026 650 1026 q 592 1053 604 1026 q 547 1103 578 1085 q 475 1121 515 1121 q 404 1103 435 1121 q 358 1053 374 1085 q 319 1026 346 1026 z "},"Ē":{"ha":886,"x_min":135,"x_max":814,"o":"m 197 0 q 153 18 171 0 q 135 63 135 36 l 135 906 q 153 951 135 932 q 197 969 171 969 l 754 969 q 797 952 779 969 q 814 910 814 935 q 797 868 814 885 q 754 851 779 851 l 261 851 l 261 544 l 704 544 q 747 527 729 544 q 764 485 764 510 q 747 443 764 460 q 704 426 729 426 l 261 426 l 261 118 l 754 118 q 797 101 779 118 q 814 58 814 83 q 797 17 814 33 q 754 0 779 0 l 197 0 m 313 1056 q 283 1067 294 1056 q 271 1097 271 1079 q 283 1127 271 1115 q 313 1139 294 1139 l 638 1139 q 667 1127 656 1139 q 679 1097 679 1115 q 667 1067 679 1079 q 638 1056 656 1056 l 313 1056 z "},"Ḗ":{"ha":886,"x_min":135,"x_max":814,"o":"m 197 0 q 153 18 171 0 q 135 63 135 36 l 135 906 q 153 951 135 932 q 197 969 171 969 l 754 969 q 797 952 779 969 q 814 910 814 935 q 797 868 814 885 q 754 851 779 851 l 261 851 l 261 544 l 704 544 q 747 527 729 544 q 764 485 764 510 q 747 443 764 460 q 704 426 729 426 l 261 426 l 261 118 l 754 118 q 797 101 779 118 q 814 58 814 83 q 797 17 814 33 q 754 0 779 0 l 197 0 m 313 1056 q 283 1067 294 1056 q 271 1097 271 1079 q 283 1127 271 1115 q 313 1139 294 1139 l 638 1139 q 667 1127 656 1139 q 679 1097 679 1115 q 667 1067 679 1079 q 638 1056 656 1056 l 313 1056 m 475 1194 q 448 1205 458 1194 q 438 1232 438 1215 q 442 1248 438 1240 q 447 1258 446 1256 l 518 1383 q 535 1402 525 1394 q 564 1410 546 1410 q 601 1396 588 1410 q 615 1358 615 1382 q 601 1324 615 1339 l 506 1210 q 475 1194 493 1194 z "},"Ḕ":{"ha":886,"x_min":135,"x_max":814,"o":"m 197 0 q 153 18 171 0 q 135 63 135 36 l 135 906 q 153 951 135 932 q 197 969 171 969 l 754 969 q 797 952 779 969 q 814 910 814 935 q 797 868 814 885 q 754 851 779 851 l 261 851 l 261 544 l 704 544 q 747 527 729 544 q 764 485 764 510 q 747 443 764 460 q 704 426 729 426 l 261 426 l 261 118 l 754 118 q 797 101 779 118 q 814 58 814 83 q 797 17 814 33 q 754 0 779 0 l 197 0 m 313 1056 q 283 1067 294 1056 q 271 1097 271 1079 q 283 1127 271 1115 q 313 1139 294 1139 l 638 1139 q 667 1127 656 1139 q 679 1097 679 1115 q 667 1067 679 1079 q 638 1056 656 1056 l 313 1056 m 475 1194 q 444 1210 457 1194 l 349 1324 q 335 1358 335 1339 q 349 1396 335 1382 q 386 1410 364 1410 q 415 1402 404 1410 q 432 1383 426 1394 l 503 1258 q 509 1248 506 1256 q 513 1232 513 1240 q 502 1205 513 1215 q 475 1194 492 1194 z "},"Ę":{"ha":886,"x_min":135,"x_max":814,"o":"m 665 -282 q 576 -251 615 -282 q 536 -165 536 -221 q 572 -67 536 -107 q 654 0 607 -26 l 197 0 q 153 18 171 0 q 135 63 135 36 l 135 906 q 153 951 135 932 q 197 969 171 969 l 754 969 q 797 952 779 969 q 814 910 814 935 q 797 868 814 885 q 754 851 779 851 l 261 851 l 261 544 l 704 544 q 747 527 729 544 q 764 485 764 510 q 747 443 764 460 q 704 426 729 426 l 261 426 l 261 118 l 754 118 q 797 101 779 118 q 814 58 814 83 q 775 3 814 19 q 719 -27 751 -7 q 662 -76 686 -47 q 638 -139 638 -104 q 655 -187 639 -169 q 708 -204 671 -204 q 735 -201 724 -204 q 757 -196 747 -199 q 769 -193 765 -193 q 800 -224 800 -193 q 785 -249 800 -237 q 733 -273 763 -264 q 665 -282 704 -282 z "},"Ẽ":{"ha":886,"x_min":135,"x_max":814,"o":"m 197 0 q 153 18 171 0 q 135 63 135 36 l 135 906 q 153 951 135 932 q 197 969 171 969 l 754 969 q 797 952 779 969 q 814 910 814 935 q 797 868 814 885 q 754 851 779 851 l 261 851 l 261 544 l 704 544 q 747 527 729 544 q 764 485 764 510 q 747 443 764 460 q 704 426 729 426 l 261 426 l 261 118 l 754 118 q 797 101 779 118 q 814 58 814 83 q 797 17 814 33 q 754 0 779 0 l 197 0 m 283 1032 q 261 1041 271 1032 q 251 1064 251 1050 q 265 1122 251 1092 q 306 1174 279 1153 q 368 1196 332 1196 q 443 1180 408 1196 q 511 1147 478 1164 q 582 1131 544 1131 q 616 1140 604 1131 q 633 1168 628 1150 q 645 1188 638 1179 q 668 1197 653 1197 q 691 1188 683 1197 q 700 1167 699 1179 q 685 1107 700 1138 q 644 1056 671 1076 q 583 1035 618 1035 q 507 1051 542 1035 q 439 1085 472 1068 q 369 1101 406 1101 q 336 1089 349 1101 q 315 1057 324 1076 q 305 1040 313 1047 q 283 1032 297 1032 z "},"F":{"ha":844,"x_min":135,"x_max":797,"o":"m 197 -7 q 153 11 171 -7 q 135 56 135 29 l 135 906 q 153 951 135 932 q 197 969 171 969 l 738 969 q 780 952 763 969 q 797 910 797 935 q 780 868 797 885 q 738 851 763 851 l 261 851 l 261 544 l 689 544 q 731 527 714 544 q 749 485 749 510 q 731 443 749 460 q 689 426 714 426 l 261 426 l 261 56 q 242 11 261 29 q 197 -7 224 -7 z "},"G":{"ha":1051,"x_min":76,"x_max":935,"o":"m 564 -14 q 308 50 418 -14 q 138 226 199 114 q 76 483 76 338 q 114 688 76 596 q 217 847 151 781 q 371 948 283 913 q 560 983 458 983 q 759 954 678 983 q 906 883 840 925 q 924 865 915 878 q 933 833 933 853 q 918 794 933 811 q 875 776 903 776 q 846 783 860 776 q 719 840 785 819 q 574 861 654 861 q 385 817 469 861 q 252 690 301 774 q 203 483 203 606 q 247 291 203 376 q 376 156 292 206 q 581 106 461 106 q 715 123 654 106 q 824 167 776 140 l 824 418 l 594 418 q 554 435 571 418 q 538 475 538 451 q 554 515 538 499 q 594 532 571 532 l 868 532 q 915 513 896 532 q 935 465 935 493 l 935 150 q 920 98 935 121 q 882 64 906 75 q 734 8 814 29 q 564 -14 654 -14 z "},"Ğ":{"ha":1051,"x_min":76,"x_max":935,"o":"m 564 -14 q 308 50 418 -14 q 138 226 199 114 q 76 483 76 338 q 114 688 76 596 q 217 847 151 781 q 371 948 283 913 q 560 983 458 983 q 759 954 678 983 q 906 883 840 925 q 924 865 915 878 q 933 833 933 853 q 918 794 933 811 q 875 776 903 776 q 846 783 860 776 q 719 840 785 819 q 574 861 654 861 q 385 817 469 861 q 252 690 301 774 q 203 483 203 606 q 247 291 203 376 q 376 156 292 206 q 581 106 461 106 q 715 123 654 106 q 824 167 776 140 l 824 418 l 594 418 q 554 435 571 418 q 538 475 538 451 q 554 515 538 499 q 594 532 571 532 l 868 532 q 915 513 896 532 q 935 465 935 493 l 935 150 q 920 98 935 121 q 882 64 906 75 q 734 8 814 29 q 564 -14 654 -14 m 564 1039 q 447 1069 497 1039 q 369 1151 396 1100 q 365 1171 365 1160 q 377 1201 365 1189 q 408 1214 389 1214 q 447 1188 435 1214 q 493 1138 463 1157 q 564 1119 524 1119 q 635 1138 604 1119 q 681 1188 667 1157 q 719 1214 693 1214 q 751 1201 739 1214 q 763 1171 763 1189 q 758 1151 763 1160 q 681 1069 732 1100 q 564 1039 631 1039 z "},"Ǧ":{"ha":1051,"x_min":76,"x_max":935,"o":"m 564 -14 q 308 50 418 -14 q 138 226 199 114 q 76 483 76 338 q 114 688 76 596 q 217 847 151 781 q 371 948 283 913 q 560 983 458 983 q 759 954 678 983 q 906 883 840 925 q 924 865 915 878 q 933 833 933 853 q 918 794 933 811 q 875 776 903 776 q 846 783 860 776 q 719 840 785 819 q 574 861 654 861 q 385 817 469 861 q 252 690 301 774 q 203 483 203 606 q 247 291 203 376 q 376 156 292 206 q 581 106 461 106 q 715 123 654 106 q 824 167 776 140 l 824 418 l 594 418 q 554 435 571 418 q 538 475 538 451 q 554 515 538 499 q 594 532 571 532 l 868 532 q 915 513 896 532 q 935 465 935 493 l 935 150 q 920 98 935 121 q 882 64 906 75 q 734 8 814 29 q 564 -14 654 -14 m 538 1026 q 506 1035 518 1026 q 482 1054 493 1043 l 388 1151 q 376 1178 376 1163 q 388 1206 375 1193 q 418 1219 400 1219 q 443 1210 433 1219 l 564 1107 l 685 1210 q 710 1219 694 1219 q 740 1206 728 1219 q 751 1178 753 1193 q 740 1151 751 1163 l 646 1054 q 623 1035 636 1043 q 590 1026 610 1026 l 538 1026 z "},"Ĝ":{"ha":1051,"x_min":76,"x_max":935,"o":"m 564 -14 q 308 50 418 -14 q 138 226 199 114 q 76 483 76 338 q 114 688 76 596 q 217 847 151 781 q 371 948 283 913 q 560 983 458 983 q 759 954 678 983 q 906 883 840 925 q 924 865 915 878 q 933 833 933 853 q 918 794 933 811 q 875 776 903 776 q 846 783 860 776 q 719 840 785 819 q 574 861 654 861 q 385 817 469 861 q 252 690 301 774 q 203 483 203 606 q 247 291 203 376 q 376 156 292 206 q 581 106 461 106 q 715 123 654 106 q 824 167 776 140 l 824 418 l 594 418 q 554 435 571 418 q 538 475 538 451 q 554 515 538 499 q 594 532 571 532 l 868 532 q 915 513 896 532 q 935 465 935 493 l 935 150 q 920 98 935 121 q 882 64 906 75 q 734 8 814 29 q 564 -14 654 -14 m 418 1025 q 388 1038 400 1025 q 376 1067 375 1051 q 388 1093 376 1082 l 482 1190 q 506 1210 493 1201 q 538 1218 518 1218 l 590 1218 q 623 1210 610 1218 q 646 1190 636 1201 l 740 1093 q 751 1067 751 1082 q 740 1038 753 1051 q 710 1025 728 1025 q 685 1035 694 1025 l 564 1138 l 443 1035 q 418 1025 433 1025 z "},"Ģ":{"ha":1051,"x_min":76,"x_max":935,"o":"m 564 -14 q 308 50 418 -14 q 138 226 199 114 q 76 483 76 338 q 114 688 76 596 q 217 847 151 781 q 371 948 283 913 q 560 983 458 983 q 759 954 678 983 q 906 883 840 925 q 924 865 915 878 q 933 833 933 853 q 918 794 933 811 q 875 776 903 776 q 846 783 860 776 q 719 840 785 819 q 574 861 654 861 q 385 817 469 861 q 252 690 301 774 q 203 483 203 606 q 247 291 203 376 q 376 156 292 206 q 581 106 461 106 q 715 123 654 106 q 824 167 776 140 l 824 418 l 594 418 q 554 435 571 418 q 538 475 538 451 q 554 515 538 499 q 594 532 571 532 l 868 532 q 915 513 896 532 q 935 465 935 493 l 935 150 q 920 98 935 121 q 882 64 906 75 q 734 8 814 29 q 564 -14 654 -14 m 522 -365 q 501 -356 510 -365 q 492 -333 492 -347 q 508 -304 492 -314 q 551 -271 535 -289 q 568 -226 568 -253 q 519 -208 538 -226 q 500 -160 500 -189 q 520 -110 500 -131 q 569 -89 540 -89 q 620 -110 601 -89 q 639 -162 639 -131 l 639 -208 q 609 -303 639 -268 q 544 -358 579 -337 q 522 -365 533 -365 z "},"Ġ":{"ha":1051,"x_min":76,"x_max":935,"o":"m 564 -14 q 308 50 418 -14 q 138 226 199 114 q 76 483 76 338 q 114 688 76 596 q 217 847 151 781 q 371 948 283 913 q 560 983 458 983 q 759 954 678 983 q 906 883 840 925 q 924 865 915 878 q 933 833 933 853 q 918 794 933 811 q 875 776 903 776 q 846 783 860 776 q 719 840 785 819 q 574 861 654 861 q 385 817 469 861 q 252 690 301 774 q 203 483 203 606 q 247 291 203 376 q 376 156 292 206 q 581 106 461 106 q 715 123 654 106 q 824 167 776 140 l 824 418 l 594 418 q 554 435 571 418 q 538 475 538 451 q 554 515 538 499 q 594 532 571 532 l 868 532 q 915 513 896 532 q 935 465 935 493 l 935 150 q 920 98 935 121 q 882 64 906 75 q 734 8 814 29 q 564 -14 654 -14 m 564 1038 q 514 1058 535 1038 q 493 1108 493 1079 q 514 1158 493 1138 q 564 1179 535 1179 q 614 1158 593 1179 q 635 1108 635 1138 q 614 1058 635 1079 q 564 1038 593 1038 z "},"Ḡ":{"ha":1051,"x_min":76,"x_max":935,"o":"m 564 -14 q 308 50 418 -14 q 138 226 199 114 q 76 483 76 338 q 114 688 76 596 q 217 847 151 781 q 371 948 283 913 q 560 983 458 983 q 759 954 678 983 q 906 883 840 925 q 924 865 915 878 q 933 833 933 853 q 918 794 933 811 q 875 776 903 776 q 846 783 860 776 q 719 840 785 819 q 574 861 654 861 q 385 817 469 861 q 252 690 301 774 q 203 483 203 606 q 247 291 203 376 q 376 156 292 206 q 581 106 461 106 q 715 123 654 106 q 824 167 776 140 l 824 418 l 594 418 q 554 435 571 418 q 538 475 538 451 q 554 515 538 499 q 594 532 571 532 l 868 532 q 915 513 896 532 q 935 465 935 493 l 935 150 q 920 98 935 121 q 882 64 906 75 q 734 8 814 29 q 564 -14 654 -14 m 401 1056 q 372 1067 383 1056 q 360 1097 360 1079 q 372 1127 360 1115 q 401 1139 383 1139 l 726 1139 q 756 1127 744 1139 q 768 1097 768 1115 q 756 1067 768 1079 q 726 1056 744 1056 l 401 1056 z "},"H":{"ha":1049,"x_min":135,"x_max":914,"o":"m 197 -7 q 153 11 171 -7 q 135 56 135 29 l 135 913 q 153 958 135 939 q 197 976 171 976 q 242 958 224 976 q 261 913 261 939 l 261 543 l 788 543 l 788 913 q 806 958 788 939 q 850 976 824 976 q 895 958 876 976 q 914 913 914 939 l 914 56 q 895 11 914 29 q 850 -7 876 -7 q 806 11 824 -7 q 788 56 788 29 l 788 425 l 261 425 l 261 56 q 242 11 261 29 q 197 -7 224 -7 z "},"Ħ":{"ha":1063,"x_min":31,"x_max":1032,"o":"m 204 -7 q 160 11 178 -7 q 142 56 142 29 l 142 710 l 79 710 q 45 723 60 710 q 31 758 31 736 q 45 794 31 781 q 79 808 60 808 l 142 808 l 142 913 q 160 958 142 939 q 204 976 178 976 q 249 958 231 976 q 268 913 268 939 l 268 808 l 794 808 l 794 913 q 813 958 794 939 q 857 976 831 976 q 902 958 883 976 q 921 913 921 939 l 921 808 l 982 808 q 1017 794 1001 808 q 1032 758 1032 781 q 1017 723 1032 736 q 982 710 1001 710 l 921 710 l 921 56 q 902 11 921 29 q 857 -7 883 -7 q 813 11 831 -7 q 794 56 794 29 l 794 425 l 268 425 l 268 56 q 249 11 268 29 q 204 -7 231 -7 m 268 543 l 794 543 l 794 710 l 268 710 l 268 543 z "},"Ḫ":{"ha":1049,"x_min":135,"x_max":914,"o":"m 197 -7 q 153 11 171 -7 q 135 56 135 29 l 135 913 q 153 958 135 939 q 197 976 171 976 q 242 958 224 976 q 261 913 261 939 l 261 543 l 788 543 l 788 913 q 806 958 788 939 q 850 976 824 976 q 895 958 876 976 q 914 913 914 939 l 914 56 q 895 11 914 29 q 850 -7 876 -7 q 806 11 824 -7 q 788 56 788 29 l 788 425 l 261 425 l 261 56 q 242 11 261 29 q 197 -7 224 -7 m 525 -253 q 408 -222 458 -253 q 331 -140 357 -192 q 326 -121 326 -132 q 338 -90 326 -103 q 369 -78 350 -78 q 408 -104 396 -78 q 454 -153 424 -135 q 525 -172 485 -172 q 597 -153 565 -172 q 642 -104 628 -135 q 681 -78 654 -78 q 712 -90 700 -78 q 724 -121 724 -103 q 719 -140 724 -132 q 642 -222 693 -192 q 525 -253 592 -253 z "},"Ĥ":{"ha":1049,"x_min":135,"x_max":914,"o":"m 197 -7 q 153 11 171 -7 q 135 56 135 29 l 135 913 q 153 958 135 939 q 197 976 171 976 q 242 958 224 976 q 261 913 261 939 l 261 543 l 788 543 l 788 913 q 806 958 788 939 q 850 976 824 976 q 895 958 876 976 q 914 913 914 939 l 914 56 q 895 11 914 29 q 850 -7 876 -7 q 806 11 824 -7 q 788 56 788 29 l 788 425 l 261 425 l 261 56 q 242 11 261 29 q 197 -7 224 -7 m 379 1025 q 349 1038 361 1025 q 338 1067 336 1051 q 349 1093 338 1082 l 443 1190 q 467 1210 454 1201 q 499 1218 479 1218 l 551 1218 q 584 1210 571 1218 q 607 1190 597 1201 l 701 1093 q 713 1067 713 1082 q 701 1038 714 1051 q 671 1025 689 1025 q 646 1035 656 1025 l 525 1138 l 404 1035 q 379 1025 394 1025 z "},"Ḥ":{"ha":1049,"x_min":135,"x_max":914,"o":"m 197 -7 q 153 11 171 -7 q 135 56 135 29 l 135 913 q 153 958 135 939 q 197 976 171 976 q 242 958 224 976 q 261 913 261 939 l 261 543 l 788 543 l 788 913 q 806 958 788 939 q 850 976 824 976 q 895 958 876 976 q 914 913 914 939 l 914 56 q 895 11 914 29 q 850 -7 876 -7 q 806 11 824 -7 q 788 56 788 29 l 788 425 l 261 425 l 261 56 q 242 11 261 29 q 197 -7 224 -7 m 525 -231 q 475 -210 496 -231 q 454 -160 454 -189 q 475 -110 454 -131 q 525 -89 496 -89 q 575 -110 554 -89 q 596 -160 596 -131 q 575 -210 596 -189 q 525 -231 554 -231 z "},"I":{"ha":396,"x_min":135,"x_max":261,"o":"m 197 -7 q 153 11 171 -7 q 135 56 135 29 l 135 913 q 153 958 135 939 q 197 976 171 976 q 242 958 224 976 q 261 913 261 939 l 261 56 q 242 11 261 29 q 197 -7 224 -7 z "},"Í":{"ha":396,"x_min":135,"x_max":339,"o":"m 197 -7 q 153 11 171 -7 q 135 56 135 29 l 135 913 q 153 958 135 939 q 197 976 171 976 q 242 958 224 976 q 261 913 261 939 l 261 56 q 242 11 261 29 q 197 -7 224 -7 m 199 1026 q 172 1037 182 1026 q 161 1064 161 1047 q 165 1080 161 1072 q 171 1090 169 1088 l 242 1215 q 259 1234 249 1226 q 288 1242 269 1242 q 325 1228 311 1242 q 339 1190 339 1214 q 325 1156 339 1171 l 229 1042 q 199 1026 217 1026 z "},"Ĭ":{"ha":396,"x_min":0,"x_max":397,"o":"m 197 -7 q 153 11 171 -7 q 135 56 135 29 l 135 913 q 153 958 135 939 q 197 976 171 976 q 242 958 224 976 q 261 913 261 939 l 261 56 q 242 11 261 29 q 197 -7 224 -7 m 199 1039 q 81 1069 132 1039 q 4 1151 31 1100 q 0 1171 0 1160 q 12 1201 0 1189 q 43 1214 24 1214 q 82 1188 69 1214 q 128 1138 97 1157 q 199 1119 158 1119 q 270 1138 239 1119 q 315 1188 301 1157 q 354 1214 328 1214 q 385 1201 374 1214 q 397 1171 397 1189 q 393 1151 397 1160 q 316 1069 367 1100 q 199 1039 265 1039 z "},"Î":{"ha":396,"x_min":10,"x_max":388,"o":"m 197 -7 q 153 11 171 -7 q 135 56 135 29 l 135 913 q 153 958 135 939 q 197 976 171 976 q 242 958 224 976 q 261 913 261 939 l 261 56 q 242 11 261 29 q 197 -7 224 -7 m 53 1025 q 22 1038 35 1025 q 11 1067 10 1051 q 22 1093 11 1082 l 117 1190 q 140 1210 128 1201 q 172 1218 153 1218 l 225 1218 q 258 1210 244 1218 q 281 1190 271 1201 l 375 1093 q 386 1067 386 1082 q 375 1038 388 1051 q 344 1025 363 1025 q 319 1035 329 1025 l 199 1138 l 78 1035 q 53 1025 68 1025 z "},"Ȉ":{"ha":396,"x_min":54,"x_max":446,"o":"m 197 -7 q 153 11 171 -7 q 135 56 135 29 l 135 913 q 153 958 135 939 q 197 976 171 976 q 242 958 224 976 q 261 913 261 939 l 261 56 q 242 11 261 29 q 197 -7 224 -7 m 306 1026 q 278 1037 289 1026 q 268 1064 268 1047 q 272 1080 268 1072 q 278 1090 276 1088 l 349 1215 q 366 1234 356 1226 q 394 1242 376 1242 q 432 1228 418 1242 q 446 1190 446 1214 q 432 1156 446 1171 l 336 1042 q 306 1026 324 1026 m 92 1026 q 65 1037 75 1026 q 54 1064 54 1047 q 58 1080 54 1072 q 64 1090 63 1088 l 135 1215 q 152 1234 142 1226 q 181 1242 163 1242 q 218 1228 204 1242 q 232 1190 232 1214 q 218 1156 232 1171 l 122 1042 q 92 1026 110 1026 z "},"Ï":{"ha":396,"x_min":11,"x_max":386,"o":"m 197 -7 q 153 11 171 -7 q 135 56 135 29 l 135 913 q 153 958 135 939 q 197 976 171 976 q 242 958 224 976 q 261 913 261 939 l 261 56 q 242 11 261 29 q 197 -7 224 -7 m 315 1038 q 265 1058 286 1038 q 244 1108 244 1079 q 265 1158 244 1138 q 315 1179 286 1179 q 365 1158 344 1179 q 386 1108 386 1138 q 365 1058 386 1079 q 315 1038 344 1038 m 82 1038 q 32 1058 53 1038 q 11 1108 11 1079 q 32 1158 11 1138 q 82 1179 53 1179 q 132 1158 111 1179 q 153 1108 153 1138 q 132 1058 153 1079 q 82 1038 111 1038 z "},"Ḯ":{"ha":396,"x_min":11,"x_max":386,"o":"m 197 -7 q 153 11 171 -7 q 135 56 135 29 l 135 913 q 153 958 135 939 q 197 976 171 976 q 242 958 224 976 q 261 913 261 939 l 261 56 q 242 11 261 29 q 197 -7 224 -7 m 315 1038 q 265 1058 286 1038 q 244 1108 244 1079 q 265 1158 244 1138 q 315 1179 286 1179 q 365 1158 344 1179 q 386 1108 386 1138 q 365 1058 386 1079 q 315 1038 344 1038 m 82 1038 q 32 1058 53 1038 q 11 1108 11 1079 q 32 1158 11 1138 q 82 1179 53 1179 q 132 1158 111 1179 q 153 1108 153 1138 q 132 1058 153 1079 q 82 1038 111 1038 m 199 1208 q 172 1219 182 1208 q 161 1246 161 1229 q 165 1262 161 1254 q 171 1272 169 1269 l 242 1397 q 259 1416 249 1408 q 288 1424 269 1424 q 325 1410 311 1424 q 339 1372 339 1396 q 325 1338 339 1353 l 229 1224 q 199 1208 217 1208 z "},"İ":{"ha":396,"x_min":128,"x_max":269,"o":"m 197 -7 q 153 11 171 -7 q 135 56 135 29 l 135 913 q 153 958 135 939 q 197 976 171 976 q 242 958 224 976 q 261 913 261 939 l 261 56 q 242 11 261 29 q 197 -7 224 -7 m 199 1038 q 149 1058 169 1038 q 128 1108 128 1079 q 149 1158 128 1138 q 199 1179 169 1179 q 249 1158 228 1179 q 269 1108 269 1138 q 249 1058 269 1079 q 199 1038 228 1038 z "},"Ị":{"ha":396,"x_min":128,"x_max":269,"o":"m 197 -7 q 153 11 171 -7 q 135 56 135 29 l 135 913 q 153 958 135 939 q 197 976 171 976 q 242 958 224 976 q 261 913 261 939 l 261 56 q 242 11 261 29 q 197 -7 224 -7 m 199 -231 q 149 -210 169 -231 q 128 -160 128 -189 q 149 -110 128 -131 q 199 -89 169 -89 q 249 -110 228 -89 q 269 -160 269 -131 q 249 -210 269 -189 q 199 -231 228 -231 z "},"Ì":{"ha":396,"x_min":58,"x_max":261,"o":"m 197 -7 q 153 11 171 -7 q 135 56 135 29 l 135 913 q 153 958 135 939 q 197 976 171 976 q 242 958 224 976 q 261 913 261 939 l 261 56 q 242 11 261 29 q 197 -7 224 -7 m 199 1026 q 168 1042 181 1026 l 72 1156 q 58 1190 58 1171 q 73 1228 58 1214 q 110 1242 88 1242 q 139 1234 128 1242 q 156 1215 150 1226 l 226 1090 q 233 1080 229 1088 q 236 1064 236 1072 q 226 1037 236 1047 q 199 1026 215 1026 z "},"Ỉ":{"ha":396,"x_min":83,"x_max":319,"o":"m 197 -7 q 153 11 171 -7 q 135 56 135 29 l 135 913 q 153 958 135 939 q 197 976 171 976 q 242 958 224 976 q 261 913 261 939 l 261 56 q 242 11 261 29 q 197 -7 224 -7 m 189 1025 q 167 1033 178 1025 q 157 1054 157 1040 q 172 1095 157 1079 q 206 1122 186 1111 q 240 1147 225 1133 q 254 1178 254 1160 q 240 1203 254 1196 q 206 1211 226 1211 q 145 1199 165 1211 q 113 1186 125 1186 q 91 1196 99 1186 q 83 1215 83 1206 q 99 1242 83 1232 q 151 1263 122 1257 q 206 1269 181 1269 q 290 1244 260 1269 q 319 1179 319 1219 q 307 1132 319 1150 q 277 1102 294 1114 q 244 1078 260 1090 q 221 1046 228 1065 q 189 1025 213 1025 z "},"Ȋ":{"ha":396,"x_min":0,"x_max":397,"o":"m 197 -7 q 153 11 171 -7 q 135 56 135 29 l 135 913 q 153 958 135 939 q 197 976 171 976 q 242 958 224 976 q 261 913 261 939 l 261 56 q 242 11 261 29 q 197 -7 224 -7 m 43 1026 q 12 1039 24 1026 q 0 1069 0 1051 q 4 1089 0 1081 q 81 1171 31 1140 q 199 1201 132 1201 q 316 1171 265 1201 q 393 1089 367 1140 q 397 1069 397 1081 q 385 1039 397 1051 q 354 1026 374 1026 q 315 1053 328 1026 q 270 1103 301 1085 q 199 1121 239 1121 q 128 1103 158 1121 q 82 1053 97 1085 q 43 1026 69 1026 z "},"Ī":{"ha":396,"x_min":-6,"x_max":403,"o":"m 197 -7 q 153 11 171 -7 q 135 56 135 29 l 135 913 q 153 958 135 939 q 197 976 171 976 q 242 958 224 976 q 261 913 261 939 l 261 56 q 242 11 261 29 q 197 -7 224 -7 m 36 1056 q 6 1067 18 1056 q -6 1097 -6 1079 q 6 1127 -6 1115 q 36 1139 18 1139 l 361 1139 q 391 1127 379 1139 q 403 1097 403 1115 q 391 1067 403 1079 q 361 1056 379 1056 l 36 1056 z "},"Į":{"ha":396,"x_min":64,"x_max":328,"o":"m 207 -282 q 106 -247 147 -282 q 64 -151 64 -211 q 91 -62 64 -103 q 161 6 118 -22 q 135 56 135 24 l 135 913 q 153 958 135 939 q 197 976 171 976 q 242 958 224 976 q 261 913 261 939 l 261 69 q 258 40 261 51 q 244 14 254 28 q 216 -19 235 0 q 181 -67 197 -39 q 165 -135 165 -94 q 183 -185 165 -165 q 236 -204 201 -204 q 263 -201 251 -204 q 285 -196 275 -199 q 297 -193 293 -193 q 328 -224 328 -193 q 313 -249 328 -237 q 207 -282 265 -282 z "},"Ĩ":{"ha":396,"x_min":-25,"x_max":424,"o":"m 197 -7 q 153 11 171 -7 q 135 56 135 29 l 135 913 q 153 958 135 939 q 197 976 171 976 q 242 958 224 976 q 261 913 261 939 l 261 56 q 242 11 261 29 q 197 -7 224 -7 m 7 1032 q -15 1041 -6 1032 q -25 1064 -25 1050 q -11 1122 -25 1092 q 29 1174 3 1153 q 92 1196 56 1196 q 167 1180 132 1196 q 235 1147 201 1164 q 306 1131 268 1131 q 340 1140 328 1131 q 357 1168 351 1150 q 369 1188 361 1179 q 392 1197 376 1197 q 415 1188 407 1197 q 424 1167 422 1179 q 409 1107 424 1138 q 368 1056 394 1076 q 307 1035 342 1035 q 231 1051 265 1035 q 163 1085 196 1068 q 93 1101 129 1101 q 60 1089 72 1101 q 39 1057 47 1076 q 28 1040 36 1047 q 7 1032 21 1032 z "},"J":{"ha":647,"x_min":18,"x_max":519,"o":"m 233 -14 q 134 -1 181 -14 q 49 33 88 11 q 27 53 36 40 q 18 85 18 65 q 33 124 18 107 q 71 142 47 142 q 96 136 85 142 q 156 114 124 122 q 225 106 189 106 q 305 121 267 106 q 368 180 343 136 q 393 311 393 224 l 393 913 q 411 958 393 939 q 456 976 429 976 q 501 958 482 976 q 519 913 519 939 l 519 319 q 495 155 519 219 q 430 53 471 90 q 338 1 389 17 q 233 -14 286 -14 z "},"Ĵ":{"ha":647,"x_min":18,"x_max":644,"o":"m 233 -14 q 134 -1 181 -14 q 49 33 88 11 q 27 53 36 40 q 18 85 18 65 q 33 124 18 107 q 71 142 47 142 q 96 136 85 142 q 156 114 124 122 q 225 106 189 106 q 305 121 267 106 q 368 180 343 136 q 393 311 393 224 l 393 913 q 411 958 393 939 q 456 976 429 976 q 501 958 482 976 q 519 913 519 939 l 519 319 q 495 155 519 219 q 430 53 471 90 q 338 1 389 17 q 233 -14 286 -14 m 310 1025 q 279 1038 292 1025 q 268 1067 267 1051 q 279 1093 268 1082 l 374 1190 q 397 1210 385 1201 q 429 1218 410 1218 l 482 1218 q 515 1210 501 1218 q 538 1190 528 1201 l 632 1093 q 643 1067 643 1082 q 632 1038 644 1051 q 601 1025 619 1025 q 576 1035 586 1025 l 456 1138 l 335 1035 q 310 1025 325 1025 z "},"K":{"ha":931,"x_min":135,"x_max":890,"o":"m 197 -7 q 153 11 171 -7 q 135 56 135 29 l 135 913 q 153 958 135 939 q 197 976 171 976 q 242 958 224 976 q 261 913 261 939 l 261 471 l 736 954 q 756 969 743 963 q 783 976 768 976 q 826 959 808 976 q 842 917 844 942 q 826 878 839 890 l 506 558 l 874 94 q 889 54 889 75 q 872 11 890 29 q 828 -7 854 -7 q 778 18 796 -7 l 419 475 l 261 315 l 261 56 q 242 11 261 29 q 197 -7 224 -7 z "},"Ķ":{"ha":931,"x_min":135,"x_max":890,"o":"m 197 -7 q 153 11 171 -7 q 135 56 135 29 l 135 913 q 153 958 135 939 q 197 976 171 976 q 242 958 224 976 q 261 913 261 939 l 261 471 l 736 954 q 756 969 743 963 q 783 976 768 976 q 826 959 808 976 q 842 917 844 942 q 826 878 839 890 l 506 558 l 874 94 q 889 54 889 75 q 872 11 890 29 q 828 -7 854 -7 q 778 18 796 -7 l 419 475 l 261 315 l 261 56 q 242 11 261 29 q 197 -7 224 -7 m 424 -365 q 402 -356 411 -365 q 393 -333 393 -347 q 410 -304 393 -314 q 453 -271 436 -289 q 469 -226 469 -253 q 420 -208 439 -226 q 401 -160 401 -189 q 422 -110 401 -131 q 471 -89 442 -89 q 522 -110 503 -89 q 540 -162 540 -131 l 540 -208 q 510 -303 540 -268 q 446 -358 481 -337 q 424 -365 435 -365 z "},"L":{"ha":800,"x_min":135,"x_max":779,"o":"m 222 0 q 160 26 186 0 q 135 88 135 51 l 135 913 q 153 958 135 939 q 197 976 171 976 q 242 958 224 976 q 261 913 261 939 l 261 126 l 715 126 q 760 108 742 126 q 779 63 779 89 q 760 18 779 36 q 715 0 742 0 l 222 0 z "},"Ǉ":{"ha":1447,"x_min":135,"x_max":1319,"o":"m 222 0 q 160 26 186 0 q 135 88 135 51 l 135 913 q 153 958 135 939 q 197 976 171 976 q 242 958 224 976 q 261 913 261 939 l 261 126 l 715 126 q 760 108 742 126 q 779 63 779 89 q 760 18 779 36 q 715 0 742 0 l 222 0 m 1033 -14 q 934 -1 981 -14 q 849 33 888 11 q 827 53 836 40 q 818 85 818 65 q 833 124 818 107 q 871 142 847 142 q 896 136 885 142 q 956 114 924 122 q 1025 106 989 106 q 1105 121 1067 106 q 1168 180 1143 136 q 1193 311 1193 224 l 1193 913 q 1211 958 1193 939 q 1256 976 1229 976 q 1301 958 1282 976 q 1319 913 1319 939 l 1319 319 q 1295 155 1319 219 q 1230 53 1271 90 q 1138 1 1189 17 q 1033 -14 1086 -14 z "},"Ĺ":{"ha":800,"x_min":135,"x_max":779,"o":"m 222 0 q 160 26 186 0 q 135 88 135 51 l 135 913 q 153 958 135 939 q 197 976 171 976 q 242 958 224 976 q 261 913 261 939 l 261 126 l 715 126 q 760 108 742 126 q 779 63 779 89 q 760 18 779 36 q 715 0 742 0 l 222 0 m 197 1026 q 170 1037 181 1026 q 160 1064 160 1047 q 164 1080 160 1072 q 169 1090 168 1088 l 240 1215 q 258 1234 247 1226 q 286 1242 268 1242 q 324 1228 310 1242 q 338 1190 338 1214 q 324 1156 338 1171 l 228 1042 q 197 1026 215 1026 z "},"Ľ":{"ha":800,"x_min":135,"x_max":779,"o":"m 222 0 q 160 26 186 0 q 135 88 135 51 l 135 913 q 153 958 135 939 q 197 976 171 976 q 242 958 224 976 q 261 913 261 939 l 261 126 l 715 126 q 760 108 742 126 q 779 63 779 89 q 760 18 779 36 q 715 0 742 0 l 222 0 m 450 675 q 428 684 439 675 q 418 711 418 693 q 424 730 418 722 q 439 743 431 738 q 476 774 458 757 q 494 822 494 792 q 440 842 461 822 q 418 894 418 863 q 440 950 418 926 q 496 974 463 974 q 551 950 531 974 q 572 893 572 926 l 572 842 q 544 757 572 789 q 476 685 517 725 q 450 675 467 675 z "},"Ļ":{"ha":800,"x_min":135,"x_max":779,"o":"m 222 0 q 160 26 186 0 q 135 88 135 51 l 135 913 q 153 958 135 939 q 197 976 171 976 q 242 958 224 976 q 261 913 261 939 l 261 126 l 715 126 q 760 108 742 126 q 779 63 779 89 q 760 18 779 36 q 715 0 742 0 l 222 0 m 415 -365 q 394 -356 403 -365 q 385 -333 385 -347 q 401 -304 385 -314 q 444 -271 428 -289 q 461 -226 461 -253 q 412 -208 431 -226 q 393 -160 393 -189 q 413 -110 393 -131 q 463 -89 433 -89 q 513 -110 494 -89 q 532 -162 532 -131 l 532 -208 q 502 -303 532 -268 q 438 -358 472 -337 q 415 -365 426 -365 z "},"Ŀ":{"ha":800,"x_min":135,"x_max":779,"o":"m 222 0 q 160 26 186 0 q 135 88 135 51 l 135 913 q 153 958 135 939 q 197 976 171 976 q 242 958 224 976 q 261 913 261 939 l 261 126 l 715 126 q 760 108 742 126 q 779 63 779 89 q 760 18 779 36 q 715 0 742 0 l 222 0 m 579 467 q 524 490 547 467 q 501 544 501 513 l 501 553 q 524 608 501 585 q 579 631 547 631 l 593 631 q 648 608 625 631 q 671 553 671 585 l 671 544 q 648 490 671 513 q 593 467 625 467 l 579 467 z "},"Ḷ":{"ha":800,"x_min":135,"x_max":779,"o":"m 222 0 q 160 26 186 0 q 135 88 135 51 l 135 913 q 153 958 135 939 q 197 976 171 976 q 242 958 224 976 q 261 913 261 939 l 261 126 l 715 126 q 760 108 742 126 q 779 63 779 89 q 760 18 779 36 q 715 0 742 0 l 222 0 m 457 -231 q 407 -210 428 -231 q 386 -160 386 -189 q 407 -110 386 -131 q 457 -89 428 -89 q 507 -110 486 -89 q 528 -160 528 -131 q 507 -210 528 -189 q 457 -231 486 -231 z "},"ǈ":{"ha":1153,"x_min":135,"x_max":1056,"o":"m 222 0 q 160 26 186 0 q 135 88 135 51 l 135 913 q 153 958 135 939 q 197 976 171 976 q 242 958 224 976 q 261 913 261 939 l 261 126 l 715 126 q 760 108 742 126 q 779 63 779 89 q 760 18 779 36 q 715 0 742 0 l 222 0 m 976 853 q 926 874 947 853 q 906 924 906 894 l 906 929 q 926 979 906 958 q 976 1000 947 1000 l 985 1000 q 1035 979 1014 1000 q 1056 929 1056 958 l 1056 924 q 1035 874 1056 894 q 985 853 1014 853 l 976 853 m 861 -333 q 774 -321 811 -333 q 738 -271 738 -310 q 753 -234 738 -250 q 790 -218 768 -218 q 810 -220 800 -218 q 832 -222 819 -222 q 892 -209 868 -222 q 917 -140 917 -196 l 917 650 q 935 696 917 678 q 979 714 953 714 q 1025 696 1007 714 q 1043 650 1043 678 l 1043 -143 q 1002 -278 1043 -224 q 861 -333 961 -333 z "},"Ḻ":{"ha":800,"x_min":135,"x_max":779,"o":"m 222 0 q 160 26 186 0 q 135 88 135 51 l 135 913 q 153 958 135 939 q 197 976 171 976 q 242 958 224 976 q 261 913 261 939 l 261 126 l 715 126 q 760 108 742 126 q 779 63 779 89 q 760 18 779 36 q 715 0 742 0 l 222 0 m 294 -190 q 265 -178 276 -190 q 253 -149 253 -167 q 265 -119 253 -131 q 294 -107 276 -107 l 619 -107 q 649 -119 638 -107 q 661 -149 661 -131 q 649 -178 661 -167 q 619 -190 638 -190 l 294 -190 z "},"Ł":{"ha":807,"x_min":29,"x_max":786,"o":"m 229 0 q 167 26 193 0 q 142 88 142 51 l 142 419 l 118 396 q 76 376 99 376 q 44 390 58 376 q 29 422 29 403 q 49 464 29 444 l 142 557 l 142 913 q 160 958 142 939 q 204 976 178 976 q 249 958 231 976 q 268 913 268 939 l 268 685 l 351 768 q 389 785 368 785 q 423 770 408 785 q 438 736 438 756 q 418 696 438 715 l 268 546 l 268 126 l 722 126 q 767 108 749 126 q 786 63 786 89 q 767 18 786 36 q 722 0 749 0 l 229 0 z "},"M":{"ha":1342,"x_min":135,"x_max":1207,"o":"m 197 -7 q 153 11 171 -7 q 135 56 135 29 l 135 885 q 161 949 135 922 q 225 976 188 976 l 271 976 q 322 960 299 976 q 356 918 346 943 l 671 132 l 986 918 q 1020 960 997 943 q 1071 976 1043 976 l 1117 976 q 1181 949 1154 976 q 1207 885 1207 922 l 1207 56 q 1189 11 1207 29 q 1144 -7 1171 -7 q 1099 11 1118 -7 q 1081 56 1081 29 l 1081 844 l 760 51 q 725 9 749 25 q 671 -7 701 -7 q 617 9 640 -7 q 582 51 593 25 l 261 844 l 261 56 q 242 11 261 29 q 197 -7 224 -7 z "},"Ṃ":{"ha":1342,"x_min":135,"x_max":1207,"o":"m 197 -7 q 153 11 171 -7 q 135 56 135 29 l 135 885 q 161 949 135 922 q 225 976 188 976 l 271 976 q 322 960 299 976 q 356 918 346 943 l 671 132 l 986 918 q 1020 960 997 943 q 1071 976 1043 976 l 1117 976 q 1181 949 1154 976 q 1207 885 1207 922 l 1207 56 q 1189 11 1207 29 q 1144 -7 1171 -7 q 1099 11 1118 -7 q 1081 56 1081 29 l 1081 844 l 760 51 q 725 9 749 25 q 671 -7 701 -7 q 617 9 640 -7 q 582 51 593 25 l 261 844 l 261 56 q 242 11 261 29 q 197 -7 224 -7 m 671 -231 q 621 -210 642 -231 q 600 -160 600 -189 q 621 -110 600 -131 q 671 -89 642 -89 q 721 -110 700 -89 q 742 -160 742 -131 q 721 -210 742 -189 q 671 -231 700 -231 z "},"N":{"ha":1115,"x_min":135,"x_max":981,"o":"m 197 -7 q 153 11 171 -7 q 135 56 135 29 l 135 885 q 161 949 135 922 q 225 976 188 976 l 243 976 q 286 965 267 976 q 319 935 306 954 l 854 163 l 854 913 q 872 958 854 939 q 917 976 890 976 q 962 958 943 976 q 981 913 981 939 l 981 83 q 953 19 981 46 q 889 -7 926 -7 l 872 -7 q 831 3 850 -7 q 799 31 811 14 l 261 807 l 261 56 q 242 11 261 29 q 197 -7 224 -7 z "},"Ǌ":{"ha":1763,"x_min":135,"x_max":1635,"o":"m 197 -7 q 153 11 171 -7 q 135 56 135 29 l 135 885 q 161 949 135 922 q 225 976 188 976 l 243 976 q 286 965 267 976 q 319 935 306 954 l 854 163 l 854 913 q 872 958 854 939 q 917 976 890 976 q 962 958 943 976 q 981 913 981 939 l 981 83 q 953 19 981 46 q 889 -7 926 -7 l 872 -7 q 831 3 850 -7 q 799 31 811 14 l 261 807 l 261 56 q 242 11 261 29 q 197 -7 224 -7 m 1349 -14 q 1249 -1 1296 -14 q 1164 33 1203 11 q 1142 53 1151 40 q 1133 85 1133 65 q 1148 124 1133 107 q 1186 142 1163 142 q 1211 136 1200 142 q 1272 114 1239 122 q 1340 106 1304 106 q 1420 121 1382 106 q 1483 180 1458 136 q 1508 311 1508 224 l 1508 913 q 1526 958 1508 939 q 1571 976 1544 976 q 1616 958 1597 976 q 1635 913 1635 939 l 1635 319 q 1610 155 1635 219 q 1545 53 1586 90 q 1453 1 1504 17 q 1349 -14 1401 -14 z "},"Ń":{"ha":1115,"x_min":135,"x_max":981,"o":"m 197 -7 q 153 11 171 -7 q 135 56 135 29 l 135 885 q 161 949 135 922 q 225 976 188 976 l 243 976 q 286 965 267 976 q 319 935 306 954 l 854 163 l 854 913 q 872 958 854 939 q 917 976 890 976 q 962 958 943 976 q 981 913 981 939 l 981 83 q 953 19 981 46 q 889 -7 926 -7 l 872 -7 q 831 3 850 -7 q 799 31 811 14 l 261 807 l 261 56 q 242 11 261 29 q 197 -7 224 -7 m 558 1026 q 531 1037 542 1026 q 521 1064 521 1047 q 525 1080 521 1072 q 531 1090 529 1088 l 601 1215 q 619 1234 608 1226 q 647 1242 629 1242 q 685 1228 671 1242 q 699 1190 699 1214 q 685 1156 699 1171 l 589 1042 q 558 1026 576 1026 z "},"Ň":{"ha":1115,"x_min":135,"x_max":981,"o":"m 197 -7 q 153 11 171 -7 q 135 56 135 29 l 135 885 q 161 949 135 922 q 225 976 188 976 l 243 976 q 286 965 267 976 q 319 935 306 954 l 854 163 l 854 913 q 872 958 854 939 q 917 976 890 976 q 962 958 943 976 q 981 913 981 939 l 981 83 q 953 19 981 46 q 889 -7 926 -7 l 872 -7 q 831 3 850 -7 q 799 31 811 14 l 261 807 l 261 56 q 242 11 261 29 q 197 -7 224 -7 m 532 1026 q 500 1035 513 1026 q 476 1054 488 1043 l 382 1151 q 371 1178 371 1163 q 382 1206 369 1193 q 413 1219 394 1219 q 438 1210 428 1219 l 558 1107 l 679 1210 q 704 1219 689 1219 q 735 1206 722 1219 q 746 1178 747 1193 q 735 1151 746 1163 l 640 1054 q 617 1035 631 1043 q 585 1026 604 1026 l 532 1026 z "},"Ņ":{"ha":1115,"x_min":135,"x_max":981,"o":"m 197 -7 q 153 11 171 -7 q 135 56 135 29 l 135 885 q 161 949 135 922 q 225 976 188 976 l 243 976 q 286 965 267 976 q 319 935 306 954 l 854 163 l 854 913 q 872 958 854 939 q 917 976 890 976 q 962 958 943 976 q 981 913 981 939 l 981 83 q 953 19 981 46 q 889 -7 926 -7 l 872 -7 q 831 3 850 -7 q 799 31 811 14 l 261 807 l 261 56 q 242 11 261 29 q 197 -7 224 -7 m 517 -365 q 495 -356 504 -365 q 486 -333 486 -347 q 503 -304 486 -314 q 546 -271 529 -289 q 563 -226 563 -253 q 513 -208 532 -226 q 494 -160 494 -189 q 515 -110 494 -131 q 564 -89 535 -89 q 615 -110 596 -89 q 633 -162 633 -131 l 633 -208 q 603 -303 633 -268 q 539 -358 574 -337 q 517 -365 528 -365 z "},"Ṅ":{"ha":1115,"x_min":135,"x_max":981,"o":"m 197 -7 q 153 11 171 -7 q 135 56 135 29 l 135 885 q 161 949 135 922 q 225 976 188 976 l 243 976 q 286 965 267 976 q 319 935 306 954 l 854 163 l 854 913 q 872 958 854 939 q 917 976 890 976 q 962 958 943 976 q 981 913 981 939 l 981 83 q 953 19 981 46 q 889 -7 926 -7 l 872 -7 q 831 3 850 -7 q 799 31 811 14 l 261 807 l 261 56 q 242 11 261 29 q 197 -7 224 -7 m 558 1038 q 508 1058 529 1038 q 488 1108 488 1079 q 508 1158 488 1138 q 558 1179 529 1179 q 608 1158 588 1179 q 629 1108 629 1138 q 608 1058 629 1079 q 558 1038 588 1038 z "},"Ṇ":{"ha":1115,"x_min":135,"x_max":981,"o":"m 197 -7 q 153 11 171 -7 q 135 56 135 29 l 135 885 q 161 949 135 922 q 225 976 188 976 l 243 976 q 286 965 267 976 q 319 935 306 954 l 854 163 l 854 913 q 872 958 854 939 q 917 976 890 976 q 962 958 943 976 q 981 913 981 939 l 981 83 q 953 19 981 46 q 889 -7 926 -7 l 872 -7 q 831 3 850 -7 q 799 31 811 14 l 261 807 l 261 56 q 242 11 261 29 q 197 -7 224 -7 m 558 -231 q 508 -210 529 -231 q 488 -160 488 -189 q 508 -110 488 -131 q 558 -89 529 -89 q 608 -110 588 -89 q 629 -160 629 -131 q 608 -210 629 -189 q 558 -231 588 -231 z "},"Ŋ":{"ha":1115,"x_min":135,"x_max":981,"o":"m 799 -333 q 711 -321 749 -333 q 675 -271 675 -310 q 690 -234 675 -250 q 728 -218 706 -218 q 747 -220 738 -218 q 769 -222 757 -222 q 830 -201 806 -222 q 854 -112 854 -179 l 854 -22 l 261 807 l 261 56 q 242 11 261 29 q 197 -7 224 -7 q 153 11 171 -7 q 135 56 135 29 l 135 885 q 161 949 135 922 q 225 976 188 976 l 243 976 q 286 965 267 976 q 319 935 306 954 l 854 190 l 854 913 q 872 958 854 939 q 917 976 890 976 q 962 958 943 976 q 981 913 981 939 l 981 -115 q 963 -225 981 -175 q 905 -304 944 -275 q 799 -333 865 -333 z "},"ǋ":{"ha":1454,"x_min":135,"x_max":1357,"o":"m 197 -7 q 153 11 171 -7 q 135 56 135 29 l 135 885 q 161 949 135 922 q 225 976 188 976 l 243 976 q 286 965 267 976 q 319 935 306 954 l 854 163 l 854 913 q 872 958 854 939 q 917 976 890 976 q 962 958 943 976 q 981 913 981 939 l 981 83 q 953 19 981 46 q 889 -7 926 -7 l 872 -7 q 831 3 850 -7 q 799 31 811 14 l 261 807 l 261 56 q 242 11 261 29 q 197 -7 224 -7 m 1278 853 q 1228 874 1249 853 q 1207 924 1207 894 l 1207 929 q 1228 979 1207 958 q 1278 1000 1249 1000 l 1286 1000 q 1336 979 1315 1000 q 1357 929 1357 958 l 1357 924 q 1336 874 1357 894 q 1286 853 1315 853 l 1278 853 m 1163 -333 q 1075 -321 1113 -333 q 1039 -271 1039 -310 q 1054 -234 1039 -250 q 1092 -218 1069 -218 q 1111 -220 1101 -218 q 1133 -222 1121 -222 q 1194 -209 1169 -222 q 1218 -140 1218 -196 l 1218 650 q 1236 696 1218 678 q 1281 714 1254 714 q 1326 696 1308 714 q 1344 650 1344 678 l 1344 -143 q 1303 -278 1344 -224 q 1163 -333 1263 -333 z "},"Ṉ":{"ha":1115,"x_min":135,"x_max":981,"o":"m 197 -7 q 153 11 171 -7 q 135 56 135 29 l 135 885 q 161 949 135 922 q 225 976 188 976 l 243 976 q 286 965 267 976 q 319 935 306 954 l 854 163 l 854 913 q 872 958 854 939 q 917 976 890 976 q 962 958 943 976 q 981 913 981 939 l 981 83 q 953 19 981 46 q 889 -7 926 -7 l 872 -7 q 831 3 850 -7 q 799 31 811 14 l 261 807 l 261 56 q 242 11 261 29 q 197 -7 224 -7 m 396 -190 q 366 -178 378 -190 q 354 -149 354 -167 q 366 -119 354 -131 q 396 -107 378 -107 l 721 -107 q 751 -119 739 -107 q 763 -149 763 -131 q 751 -178 763 -167 q 721 -190 739 -190 l 396 -190 z "},"Ñ":{"ha":1115,"x_min":135,"x_max":981,"o":"m 197 -7 q 153 11 171 -7 q 135 56 135 29 l 135 885 q 161 949 135 922 q 225 976 188 976 l 243 976 q 286 965 267 976 q 319 935 306 954 l 854 163 l 854 913 q 872 958 854 939 q 917 976 890 976 q 962 958 943 976 q 981 913 981 939 l 981 83 q 953 19 981 46 q 889 -7 926 -7 l 872 -7 q 831 3 850 -7 q 799 31 811 14 l 261 807 l 261 56 q 242 11 261 29 q 197 -7 224 -7 m 367 1032 q 344 1041 354 1032 q 335 1064 335 1050 q 349 1122 335 1092 q 389 1174 363 1153 q 451 1196 415 1196 q 526 1180 492 1196 q 594 1147 561 1164 q 665 1131 628 1131 q 699 1140 688 1131 q 717 1168 711 1150 q 728 1188 721 1179 q 751 1197 736 1197 q 774 1188 767 1197 q 783 1167 782 1179 q 769 1107 783 1138 q 728 1056 754 1076 q 667 1035 701 1035 q 590 1051 625 1035 q 522 1085 556 1068 q 453 1101 489 1101 q 419 1089 432 1101 q 399 1057 407 1076 q 388 1040 396 1047 q 367 1032 381 1032 z "},"O":{"ha":1128,"x_min":76,"x_max":1051,"o":"m 564 -14 q 307 50 415 -14 q 139 226 199 114 q 76 485 79 339 q 139 743 79 631 q 307 919 199 856 q 564 983 415 983 q 821 919 713 983 q 989 743 929 856 q 1051 485 1049 631 q 989 226 1049 339 q 821 50 929 114 q 564 -14 713 -14 m 564 104 q 760 155 679 104 q 883 292 840 206 q 925 485 925 378 q 883 678 925 592 q 760 815 840 764 q 564 865 679 865 q 368 815 449 865 q 245 678 288 764 q 203 485 203 592 q 245 292 203 378 q 368 155 288 206 q 564 104 449 104 z "},"Ó":{"ha":1128,"x_min":76,"x_max":1051,"o":"m 564 -14 q 307 50 415 -14 q 139 226 199 114 q 76 485 79 339 q 139 743 79 631 q 307 919 199 856 q 564 983 415 983 q 821 919 713 983 q 989 743 929 856 q 1051 485 1049 631 q 989 226 1049 339 q 821 50 929 114 q 564 -14 713 -14 m 564 104 q 760 155 679 104 q 883 292 840 206 q 925 485 925 378 q 883 678 925 592 q 760 815 840 764 q 564 865 679 865 q 368 815 449 865 q 245 678 288 764 q 203 485 203 592 q 245 292 203 378 q 368 155 288 206 q 564 104 449 104 m 564 1026 q 537 1037 547 1026 q 526 1064 526 1047 q 531 1080 526 1072 q 536 1090 535 1088 l 607 1215 q 624 1234 614 1226 q 653 1242 635 1242 q 690 1228 676 1242 q 704 1190 704 1214 q 690 1156 704 1171 l 594 1042 q 564 1026 582 1026 z "},"Ŏ":{"ha":1128,"x_min":76,"x_max":1051,"o":"m 564 -14 q 307 50 415 -14 q 139 226 199 114 q 76 485 79 339 q 139 743 79 631 q 307 919 199 856 q 564 983 415 983 q 821 919 713 983 q 989 743 929 856 q 1051 485 1049 631 q 989 226 1049 339 q 821 50 929 114 q 564 -14 713 -14 m 564 104 q 760 155 679 104 q 883 292 840 206 q 925 485 925 378 q 883 678 925 592 q 760 815 840 764 q 564 865 679 865 q 368 815 449 865 q 245 678 288 764 q 203 485 203 592 q 245 292 203 378 q 368 155 288 206 q 564 104 449 104 m 564 1039 q 447 1069 497 1039 q 369 1151 396 1100 q 365 1171 365 1160 q 377 1201 365 1189 q 408 1214 389 1214 q 447 1188 435 1214 q 493 1138 463 1157 q 564 1119 524 1119 q 635 1138 604 1119 q 681 1188 667 1157 q 719 1214 693 1214 q 751 1201 739 1214 q 763 1171 763 1189 q 758 1151 763 1160 q 681 1069 732 1100 q 564 1039 631 1039 z "},"Ô":{"ha":1128,"x_min":76,"x_max":1051,"o":"m 564 -14 q 307 50 415 -14 q 139 226 199 114 q 76 485 79 339 q 139 743 79 631 q 307 919 199 856 q 564 983 415 983 q 821 919 713 983 q 989 743 929 856 q 1051 485 1049 631 q 989 226 1049 339 q 821 50 929 114 q 564 -14 713 -14 m 564 104 q 760 155 679 104 q 883 292 840 206 q 925 485 925 378 q 883 678 925 592 q 760 815 840 764 q 564 865 679 865 q 368 815 449 865 q 245 678 288 764 q 203 485 203 592 q 245 292 203 378 q 368 155 288 206 q 564 104 449 104 m 418 1025 q 388 1038 400 1025 q 376 1067 375 1051 q 388 1093 376 1082 l 482 1190 q 506 1210 493 1201 q 538 1218 518 1218 l 590 1218 q 623 1210 610 1218 q 646 1190 636 1201 l 740 1093 q 751 1067 751 1082 q 740 1038 753 1051 q 710 1025 728 1025 q 685 1035 694 1025 l 564 1138 l 443 1035 q 418 1025 433 1025 z "},"Ố":{"ha":1128,"x_min":76,"x_max":1051,"o":"m 564 -14 q 307 50 415 -14 q 139 226 199 114 q 76 485 79 339 q 139 743 79 631 q 307 919 199 856 q 564 983 415 983 q 821 919 713 983 q 989 743 929 856 q 1051 485 1049 631 q 989 226 1049 339 q 821 50 929 114 q 564 -14 713 -14 m 564 104 q 760 155 679 104 q 883 292 840 206 q 925 485 925 378 q 883 678 925 592 q 760 815 840 764 q 564 865 679 865 q 368 815 449 865 q 245 678 288 764 q 203 485 203 592 q 245 292 203 378 q 368 155 288 206 q 564 104 449 104 m 708 1161 q 688 1170 696 1161 q 679 1189 679 1179 q 681 1205 679 1199 q 686 1217 683 1211 l 736 1301 q 759 1327 747 1319 q 781 1335 771 1335 q 813 1323 799 1335 q 828 1290 828 1311 q 810 1251 828 1269 l 739 1175 q 723 1164 731 1167 q 708 1161 715 1161 m 418 1025 q 388 1037 400 1025 q 376 1063 375 1049 q 388 1088 376 1076 l 482 1168 q 506 1185 493 1178 q 538 1193 518 1193 l 590 1193 q 622 1185 610 1193 q 646 1168 635 1178 l 740 1088 q 751 1063 751 1076 q 740 1037 753 1049 q 710 1025 728 1025 q 685 1033 696 1025 l 564 1129 l 443 1033 q 418 1025 432 1025 z "},"Ộ":{"ha":1128,"x_min":76,"x_max":1051,"o":"m 564 -14 q 307 50 415 -14 q 139 226 199 114 q 76 485 79 339 q 139 743 79 631 q 307 919 199 856 q 564 983 415 983 q 821 919 713 983 q 989 743 929 856 q 1051 485 1049 631 q 989 226 1049 339 q 821 50 929 114 q 564 -14 713 -14 m 564 104 q 760 155 679 104 q 883 292 840 206 q 925 485 925 378 q 883 678 925 592 q 760 815 840 764 q 564 865 679 865 q 368 815 449 865 q 245 678 288 764 q 203 485 203 592 q 245 292 203 378 q 368 155 288 206 q 564 104 449 104 m 564 -231 q 514 -210 535 -231 q 493 -160 493 -189 q 514 -110 493 -131 q 564 -89 535 -89 q 614 -110 593 -89 q 635 -160 635 -131 q 614 -210 635 -189 q 564 -231 593 -231 m 418 1025 q 388 1038 400 1025 q 376 1067 375 1051 q 388 1093 376 1082 l 482 1190 q 506 1210 493 1201 q 538 1218 518 1218 l 590 1218 q 623 1210 610 1218 q 646 1190 636 1201 l 740 1093 q 751 1067 751 1082 q 740 1038 753 1051 q 710 1025 728 1025 q 685 1035 694 1025 l 564 1138 l 443 1035 q 418 1025 433 1025 z "},"Ồ":{"ha":1128,"x_min":76,"x_max":1051,"o":"m 564 -14 q 307 50 415 -14 q 139 226 199 114 q 76 485 79 339 q 139 743 79 631 q 307 919 199 856 q 564 983 415 983 q 821 919 713 983 q 989 743 929 856 q 1051 485 1049 631 q 989 226 1049 339 q 821 50 929 114 q 564 -14 713 -14 m 564 104 q 760 155 679 104 q 883 292 840 206 q 925 485 925 378 q 883 678 925 592 q 760 815 840 764 q 564 865 679 865 q 368 815 449 865 q 245 678 288 764 q 203 485 203 592 q 245 292 203 378 q 368 155 288 206 q 564 104 449 104 m 715 1161 q 701 1164 708 1161 q 685 1175 693 1167 l 614 1251 q 596 1290 596 1269 q 610 1323 596 1311 q 643 1335 625 1335 q 666 1327 654 1335 q 688 1301 678 1319 l 738 1217 q 742 1205 740 1211 q 744 1189 744 1199 q 736 1170 744 1179 q 715 1161 728 1161 m 418 1025 q 388 1037 400 1025 q 376 1063 375 1049 q 388 1088 376 1076 l 482 1168 q 506 1185 493 1178 q 538 1193 518 1193 l 590 1193 q 622 1185 610 1193 q 646 1168 635 1178 l 740 1088 q 751 1063 751 1076 q 740 1037 753 1049 q 710 1025 728 1025 q 685 1033 696 1025 l 564 1129 l 443 1033 q 418 1025 432 1025 z "},"Ổ":{"ha":1128,"x_min":76,"x_max":1051,"o":"m 564 -14 q 307 50 415 -14 q 139 226 199 114 q 76 485 79 339 q 139 743 79 631 q 307 919 199 856 q 564 983 415 983 q 821 919 713 983 q 989 743 929 856 q 1051 485 1049 631 q 989 226 1049 339 q 821 50 929 114 q 564 -14 713 -14 m 564 104 q 760 155 679 104 q 883 292 840 206 q 925 485 925 378 q 883 678 925 592 q 760 815 840 764 q 564 865 679 865 q 368 815 449 865 q 245 678 288 764 q 203 485 203 592 q 245 292 203 378 q 368 155 288 206 q 564 104 449 104 m 708 1165 q 687 1173 697 1165 q 676 1197 676 1181 q 690 1232 676 1218 q 722 1257 704 1246 q 754 1278 740 1268 q 768 1299 768 1288 q 725 1324 768 1324 q 676 1314 694 1324 q 646 1304 658 1304 q 624 1313 632 1304 q 617 1332 617 1322 q 632 1360 617 1350 q 678 1379 656 1375 q 726 1383 700 1383 q 808 1363 779 1383 q 838 1300 838 1343 q 817 1249 838 1267 q 775 1219 797 1232 q 743 1185 753 1206 q 708 1165 735 1165 m 418 1025 q 388 1037 400 1025 q 376 1063 375 1049 q 388 1088 376 1076 l 482 1168 q 506 1185 493 1178 q 538 1193 518 1193 l 590 1193 q 622 1185 610 1193 q 646 1168 635 1178 l 740 1088 q 751 1063 751 1076 q 740 1037 753 1049 q 710 1025 728 1025 q 685 1033 696 1025 l 564 1129 l 443 1033 q 418 1025 432 1025 z "},"Ỗ":{"ha":1128,"x_min":76,"x_max":1051,"o":"m 564 -14 q 307 50 415 -14 q 139 226 199 114 q 76 485 79 339 q 139 743 79 631 q 307 919 199 856 q 564 983 415 983 q 821 919 713 983 q 989 743 929 856 q 1051 485 1049 631 q 989 226 1049 339 q 821 50 929 114 q 564 -14 713 -14 m 564 104 q 760 155 679 104 q 883 292 840 206 q 925 485 925 378 q 883 678 925 592 q 760 815 840 764 q 564 865 679 865 q 368 815 449 865 q 245 678 288 764 q 203 485 203 592 q 245 292 203 378 q 368 155 288 206 q 564 104 449 104 m 397 1218 q 379 1224 388 1218 q 371 1240 371 1231 q 398 1307 371 1274 q 478 1340 425 1340 q 538 1331 511 1340 q 592 1313 565 1322 q 650 1303 619 1303 q 707 1329 690 1303 q 715 1340 710 1335 q 732 1344 719 1344 q 758 1322 756 1344 q 727 1255 758 1288 q 650 1222 696 1222 q 590 1233 618 1222 q 535 1253 561 1243 q 479 1263 508 1263 q 440 1255 453 1263 q 422 1235 428 1247 q 413 1223 421 1228 q 397 1218 404 1218 m 418 1025 q 388 1037 400 1025 q 376 1063 375 1049 q 388 1088 376 1076 l 482 1168 q 506 1185 493 1178 q 538 1193 518 1193 l 590 1193 q 622 1185 610 1193 q 646 1168 635 1178 l 740 1088 q 751 1063 751 1076 q 740 1037 753 1049 q 710 1025 728 1025 q 685 1033 696 1025 l 564 1129 l 443 1033 q 418 1025 432 1025 z "},"Ȍ":{"ha":1128,"x_min":76,"x_max":1051,"o":"m 564 -14 q 307 50 415 -14 q 139 226 199 114 q 76 485 79 339 q 139 743 79 631 q 307 919 199 856 q 564 983 415 983 q 821 919 713 983 q 989 743 929 856 q 1051 485 1049 631 q 989 226 1049 339 q 821 50 929 114 q 564 -14 713 -14 m 564 104 q 760 155 679 104 q 883 292 840 206 q 925 485 925 378 q 883 678 925 592 q 760 815 840 764 q 564 865 679 865 q 368 815 449 865 q 245 678 288 764 q 203 485 203 592 q 245 292 203 378 q 368 155 288 206 q 564 104 449 104 m 671 1026 q 644 1037 654 1026 q 633 1064 633 1047 q 638 1080 633 1072 q 643 1090 642 1088 l 714 1215 q 731 1234 721 1226 q 760 1242 742 1242 q 797 1228 783 1242 q 811 1190 811 1214 q 797 1156 811 1171 l 701 1042 q 671 1026 689 1026 m 457 1026 q 430 1037 440 1026 q 419 1064 419 1047 q 424 1080 419 1072 q 429 1090 428 1088 l 500 1215 q 517 1234 507 1226 q 546 1242 528 1242 q 583 1228 569 1242 q 597 1190 597 1214 q 583 1156 597 1171 l 488 1042 q 457 1026 475 1026 z "},"Ö":{"ha":1128,"x_min":76,"x_max":1051,"o":"m 564 -14 q 307 50 415 -14 q 139 226 199 114 q 76 485 79 339 q 139 743 79 631 q 307 919 199 856 q 564 983 415 983 q 821 919 713 983 q 989 743 929 856 q 1051 485 1049 631 q 989 226 1049 339 q 821 50 929 114 q 564 -14 713 -14 m 564 104 q 760 155 679 104 q 883 292 840 206 q 925 485 925 378 q 883 678 925 592 q 760 815 840 764 q 564 865 679 865 q 368 815 449 865 q 245 678 288 764 q 203 485 203 592 q 245 292 203 378 q 368 155 288 206 q 564 104 449 104 m 681 1038 q 631 1058 651 1038 q 610 1108 610 1079 q 631 1158 610 1138 q 681 1179 651 1179 q 731 1158 710 1179 q 751 1108 751 1138 q 731 1058 751 1079 q 681 1038 710 1038 m 447 1038 q 397 1058 418 1038 q 376 1108 376 1079 q 397 1158 376 1138 q 447 1179 418 1179 q 497 1158 476 1179 q 518 1108 518 1138 q 497 1058 518 1079 q 447 1038 476 1038 z "},"Ȫ":{"ha":1128,"x_min":76,"x_max":1051,"o":"m 564 -14 q 307 50 415 -14 q 139 226 199 114 q 76 485 79 339 q 139 743 79 631 q 307 919 199 856 q 564 983 415 983 q 821 919 713 983 q 989 743 929 856 q 1051 485 1049 631 q 989 226 1049 339 q 821 50 929 114 q 564 -14 713 -14 m 564 104 q 760 155 679 104 q 883 292 840 206 q 925 485 925 378 q 883 678 925 592 q 760 815 840 764 q 564 865 679 865 q 368 815 449 865 q 245 678 288 764 q 203 485 203 592 q 245 292 203 378 q 368 155 288 206 q 564 104 449 104 m 681 1038 q 631 1058 651 1038 q 610 1108 610 1079 q 631 1158 610 1138 q 681 1179 651 1179 q 731 1158 710 1179 q 751 1108 751 1138 q 731 1058 751 1079 q 681 1038 710 1038 m 447 1038 q 397 1058 418 1038 q 376 1108 376 1079 q 397 1158 376 1138 q 447 1179 418 1179 q 497 1158 476 1179 q 518 1108 518 1138 q 497 1058 518 1079 q 447 1038 476 1038 m 401 1238 q 372 1249 383 1238 q 360 1279 360 1261 q 372 1309 360 1297 q 401 1321 383 1321 l 726 1321 q 756 1309 744 1321 q 768 1279 768 1297 q 756 1249 768 1261 q 726 1238 744 1238 l 401 1238 z "},"Ȱ":{"ha":1128,"x_min":76,"x_max":1051,"o":"m 564 -14 q 307 50 415 -14 q 139 226 199 114 q 76 485 79 339 q 139 743 79 631 q 307 919 199 856 q 564 983 415 983 q 821 919 713 983 q 989 743 929 856 q 1051 485 1049 631 q 989 226 1049 339 q 821 50 929 114 q 564 -14 713 -14 m 564 104 q 760 155 679 104 q 883 292 840 206 q 925 485 925 378 q 883 678 925 592 q 760 815 840 764 q 564 865 679 865 q 368 815 449 865 q 245 678 288 764 q 203 485 203 592 q 245 292 203 378 q 368 155 288 206 q 564 104 449 104 m 564 1038 q 514 1058 535 1038 q 493 1108 493 1079 q 514 1158 493 1138 q 564 1179 535 1179 q 614 1158 593 1179 q 635 1108 635 1138 q 614 1058 635 1079 q 564 1038 593 1038 m 401 1238 q 372 1249 383 1238 q 360 1279 360 1261 q 372 1309 360 1297 q 401 1321 383 1321 l 726 1321 q 756 1309 744 1321 q 768 1279 768 1297 q 756 1249 768 1261 q 726 1238 744 1238 l 401 1238 z "},"Ọ":{"ha":1128,"x_min":76,"x_max":1051,"o":"m 564 -14 q 307 50 415 -14 q 139 226 199 114 q 76 485 79 339 q 139 743 79 631 q 307 919 199 856 q 564 983 415 983 q 821 919 713 983 q 989 743 929 856 q 1051 485 1049 631 q 989 226 1049 339 q 821 50 929 114 q 564 -14 713 -14 m 564 104 q 760 155 679 104 q 883 292 840 206 q 925 485 925 378 q 883 678 925 592 q 760 815 840 764 q 564 865 679 865 q 368 815 449 865 q 245 678 288 764 q 203 485 203 592 q 245 292 203 378 q 368 155 288 206 q 564 104 449 104 m 564 -231 q 514 -210 535 -231 q 493 -160 493 -189 q 514 -110 493 -131 q 564 -89 535 -89 q 614 -110 593 -89 q 635 -160 635 -131 q 614 -210 635 -189 q 564 -231 593 -231 z "},"Ò":{"ha":1128,"x_min":76,"x_max":1051,"o":"m 564 -14 q 307 50 415 -14 q 139 226 199 114 q 76 485 79 339 q 139 743 79 631 q 307 919 199 856 q 564 983 415 983 q 821 919 713 983 q 989 743 929 856 q 1051 485 1049 631 q 989 226 1049 339 q 821 50 929 114 q 564 -14 713 -14 m 564 104 q 760 155 679 104 q 883 292 840 206 q 925 485 925 378 q 883 678 925 592 q 760 815 840 764 q 564 865 679 865 q 368 815 449 865 q 245 678 288 764 q 203 485 203 592 q 245 292 203 378 q 368 155 288 206 q 564 104 449 104 m 564 1026 q 533 1042 546 1026 l 438 1156 q 424 1190 424 1171 q 438 1228 424 1214 q 475 1242 453 1242 q 504 1234 493 1242 q 521 1215 515 1226 l 592 1090 q 598 1080 594 1088 q 601 1064 601 1072 q 591 1037 601 1047 q 564 1026 581 1026 z "},"Ỏ":{"ha":1128,"x_min":76,"x_max":1051,"o":"m 564 -14 q 307 50 415 -14 q 139 226 199 114 q 76 485 79 339 q 139 743 79 631 q 307 919 199 856 q 564 983 415 983 q 821 919 713 983 q 989 743 929 856 q 1051 485 1049 631 q 989 226 1049 339 q 821 50 929 114 q 564 -14 713 -14 m 564 104 q 760 155 679 104 q 883 292 840 206 q 925 485 925 378 q 883 678 925 592 q 760 815 840 764 q 564 865 679 865 q 368 815 449 865 q 245 678 288 764 q 203 485 203 592 q 245 292 203 378 q 368 155 288 206 q 564 104 449 104 m 554 1025 q 533 1033 543 1025 q 522 1054 522 1040 q 537 1095 522 1079 q 571 1122 551 1111 q 605 1147 590 1133 q 619 1178 619 1160 q 606 1203 619 1196 q 571 1211 592 1211 q 510 1199 531 1211 q 478 1186 490 1186 q 456 1196 464 1186 q 449 1215 449 1206 q 464 1242 449 1232 q 517 1263 488 1257 q 571 1269 546 1269 q 655 1244 625 1269 q 685 1179 685 1219 q 672 1132 685 1150 q 642 1102 660 1114 q 609 1078 625 1090 q 586 1046 593 1065 q 554 1025 578 1025 z "},"Ơ":{"ha":1126,"x_min":76,"x_max":1051,"o":"m 564 -14 q 307 50 415 -14 q 139 226 199 114 q 76 485 79 339 q 139 743 79 631 q 309 919 199 856 q 575 983 419 983 q 651 979 618 983 q 722 971 685 975 q 815 967 760 967 q 917 994 888 967 q 946 1068 946 1021 q 941 1108 946 1092 q 936 1139 936 1124 q 950 1172 936 1158 q 982 1185 964 1185 q 1033 1148 1014 1185 q 1051 1046 1051 1111 q 1014 938 1051 986 q 881 876 976 890 q 1006 709 961 810 q 1051 485 1050 608 q 989 226 1049 339 q 821 50 929 114 q 564 -14 713 -14 m 564 104 q 760 155 679 104 q 883 292 840 206 q 925 485 925 378 q 883 678 925 592 q 760 815 840 764 q 564 865 679 865 q 368 815 449 865 q 245 678 288 764 q 203 485 203 592 q 245 292 203 378 q 368 155 288 206 q 564 104 449 104 z "},"Ớ":{"ha":1126,"x_min":76,"x_max":1051,"o":"m 564 -14 q 307 50 415 -14 q 139 226 199 114 q 76 485 79 339 q 139 743 79 631 q 309 919 199 856 q 575 983 419 983 q 651 979 618 983 q 722 971 685 975 q 815 967 760 967 q 917 994 888 967 q 946 1068 946 1021 q 941 1108 946 1092 q 936 1139 936 1124 q 950 1172 936 1158 q 982 1185 964 1185 q 1033 1148 1014 1185 q 1051 1046 1051 1111 q 1014 938 1051 986 q 881 876 976 890 q 1006 709 961 810 q 1051 485 1050 608 q 989 226 1049 339 q 821 50 929 114 q 564 -14 713 -14 m 564 104 q 760 155 679 104 q 883 292 840 206 q 925 485 925 378 q 883 678 925 592 q 760 815 840 764 q 564 865 679 865 q 368 815 449 865 q 245 678 288 764 q 203 485 203 592 q 245 292 203 378 q 368 155 288 206 q 564 104 449 104 m 564 1026 q 537 1037 547 1026 q 526 1064 526 1047 q 531 1080 526 1072 q 536 1090 535 1088 l 607 1215 q 624 1234 614 1226 q 653 1242 635 1242 q 690 1228 676 1242 q 704 1190 704 1214 q 690 1156 704 1171 l 594 1042 q 564 1026 582 1026 z "},"Ợ":{"ha":1126,"x_min":76,"x_max":1051,"o":"m 564 -14 q 307 50 415 -14 q 139 226 199 114 q 76 485 79 339 q 139 743 79 631 q 309 919 199 856 q 575 983 419 983 q 651 979 618 983 q 722 971 685 975 q 815 967 760 967 q 917 994 888 967 q 946 1068 946 1021 q 941 1108 946 1092 q 936 1139 936 1124 q 950 1172 936 1158 q 982 1185 964 1185 q 1033 1148 1014 1185 q 1051 1046 1051 1111 q 1014 938 1051 986 q 881 876 976 890 q 1006 709 961 810 q 1051 485 1050 608 q 989 226 1049 339 q 821 50 929 114 q 564 -14 713 -14 m 564 104 q 760 155 679 104 q 883 292 840 206 q 925 485 925 378 q 883 678 925 592 q 760 815 840 764 q 564 865 679 865 q 368 815 449 865 q 245 678 288 764 q 203 485 203 592 q 245 292 203 378 q 368 155 288 206 q 564 104 449 104 m 564 -231 q 514 -210 535 -231 q 493 -160 493 -189 q 514 -110 493 -131 q 564 -89 535 -89 q 614 -110 593 -89 q 635 -160 635 -131 q 614 -210 635 -189 q 564 -231 593 -231 z "},"Ờ":{"ha":1126,"x_min":76,"x_max":1051,"o":"m 564 -14 q 307 50 415 -14 q 139 226 199 114 q 76 485 79 339 q 139 743 79 631 q 309 919 199 856 q 575 983 419 983 q 651 979 618 983 q 722 971 685 975 q 815 967 760 967 q 917 994 888 967 q 946 1068 946 1021 q 941 1108 946 1092 q 936 1139 936 1124 q 950 1172 936 1158 q 982 1185 964 1185 q 1033 1148 1014 1185 q 1051 1046 1051 1111 q 1014 938 1051 986 q 881 876 976 890 q 1006 709 961 810 q 1051 485 1050 608 q 989 226 1049 339 q 821 50 929 114 q 564 -14 713 -14 m 564 104 q 760 155 679 104 q 883 292 840 206 q 925 485 925 378 q 883 678 925 592 q 760 815 840 764 q 564 865 679 865 q 368 815 449 865 q 245 678 288 764 q 203 485 203 592 q 245 292 203 378 q 368 155 288 206 q 564 104 449 104 m 564 1026 q 533 1042 546 1026 l 438 1156 q 424 1190 424 1171 q 438 1228 424 1214 q 475 1242 453 1242 q 504 1234 493 1242 q 521 1215 515 1226 l 592 1090 q 598 1080 594 1088 q 601 1064 601 1072 q 591 1037 601 1047 q 564 1026 581 1026 z "},"Ở":{"ha":1126,"x_min":76,"x_max":1051,"o":"m 564 -14 q 307 50 415 -14 q 139 226 199 114 q 76 485 79 339 q 139 743 79 631 q 309 919 199 856 q 575 983 419 983 q 651 979 618 983 q 722 971 685 975 q 815 967 760 967 q 917 994 888 967 q 946 1068 946 1021 q 941 1108 946 1092 q 936 1139 936 1124 q 950 1172 936 1158 q 982 1185 964 1185 q 1033 1148 1014 1185 q 1051 1046 1051 1111 q 1014 938 1051 986 q 881 876 976 890 q 1006 709 961 810 q 1051 485 1050 608 q 989 226 1049 339 q 821 50 929 114 q 564 -14 713 -14 m 564 104 q 760 155 679 104 q 883 292 840 206 q 925 485 925 378 q 883 678 925 592 q 760 815 840 764 q 564 865 679 865 q 368 815 449 865 q 245 678 288 764 q 203 485 203 592 q 245 292 203 378 q 368 155 288 206 q 564 104 449 104 m 554 1025 q 533 1033 543 1025 q 522 1054 522 1040 q 537 1095 522 1079 q 571 1122 551 1111 q 605 1147 590 1133 q 619 1178 619 1160 q 606 1203 619 1196 q 571 1211 592 1211 q 510 1199 531 1211 q 478 1186 490 1186 q 456 1196 464 1186 q 449 1215 449 1206 q 464 1242 449 1232 q 517 1263 488 1257 q 571 1269 546 1269 q 655 1244 625 1269 q 685 1179 685 1219 q 672 1132 685 1150 q 642 1102 660 1114 q 609 1078 625 1090 q 586 1046 593 1065 q 554 1025 578 1025 z "},"Ỡ":{"ha":1126,"x_min":76,"x_max":1051,"o":"m 564 -14 q 307 50 415 -14 q 139 226 199 114 q 76 485 79 339 q 139 743 79 631 q 309 919 199 856 q 575 983 419 983 q 651 979 618 983 q 722 971 685 975 q 815 967 760 967 q 917 994 888 967 q 946 1068 946 1021 q 941 1108 946 1092 q 936 1139 936 1124 q 950 1172 936 1158 q 982 1185 964 1185 q 1033 1148 1014 1185 q 1051 1046 1051 1111 q 1014 938 1051 986 q 881 876 976 890 q 1006 709 961 810 q 1051 485 1050 608 q 989 226 1049 339 q 821 50 929 114 q 564 -14 713 -14 m 564 104 q 760 155 679 104 q 883 292 840 206 q 925 485 925 378 q 883 678 925 592 q 760 815 840 764 q 564 865 679 865 q 368 815 449 865 q 245 678 288 764 q 203 485 203 592 q 245 292 203 378 q 368 155 288 206 q 564 104 449 104 m 372 1032 q 350 1041 360 1032 q 340 1064 340 1050 q 354 1122 340 1092 q 394 1174 368 1153 q 457 1196 421 1196 q 532 1180 497 1196 q 600 1147 567 1164 q 671 1131 633 1131 q 705 1140 693 1131 q 722 1168 717 1150 q 734 1188 726 1179 q 757 1197 742 1197 q 780 1188 772 1197 q 789 1167 788 1179 q 774 1107 789 1138 q 733 1056 760 1076 q 672 1035 707 1035 q 596 1051 631 1035 q 528 1085 561 1068 q 458 1101 494 1101 q 425 1089 438 1101 q 404 1057 413 1076 q 394 1040 401 1047 q 372 1032 386 1032 z "},"Ő":{"ha":1128,"x_min":76,"x_max":1051,"o":"m 564 -14 q 307 50 415 -14 q 139 226 199 114 q 76 485 79 339 q 139 743 79 631 q 307 919 199 856 q 564 983 415 983 q 821 919 713 983 q 989 743 929 856 q 1051 485 1049 631 q 989 226 1049 339 q 821 50 929 114 q 564 -14 713 -14 m 564 104 q 760 155 679 104 q 883 292 840 206 q 925 485 925 378 q 883 678 925 592 q 760 815 840 764 q 564 865 679 865 q 368 815 449 865 q 245 678 288 764 q 203 485 203 592 q 245 292 203 378 q 368 155 288 206 q 564 104 449 104 m 643 1026 q 617 1036 629 1026 q 606 1061 606 1046 q 607 1072 606 1068 l 644 1197 q 667 1230 651 1219 q 697 1240 682 1240 q 731 1228 717 1240 q 746 1194 746 1217 q 736 1160 746 1178 l 679 1050 q 643 1026 668 1026 m 482 1026 q 456 1036 468 1026 q 444 1061 444 1046 q 446 1072 444 1068 l 483 1197 q 506 1230 490 1219 q 536 1240 521 1240 q 570 1228 556 1240 q 585 1194 585 1217 q 575 1160 585 1178 l 518 1050 q 482 1026 507 1026 z "},"Ȏ":{"ha":1128,"x_min":76,"x_max":1051,"o":"m 564 -14 q 307 50 415 -14 q 139 226 199 114 q 76 485 79 339 q 139 743 79 631 q 307 919 199 856 q 564 983 415 983 q 821 919 713 983 q 989 743 929 856 q 1051 485 1049 631 q 989 226 1049 339 q 821 50 929 114 q 564 -14 713 -14 m 564 104 q 760 155 679 104 q 883 292 840 206 q 925 485 925 378 q 883 678 925 592 q 760 815 840 764 q 564 865 679 865 q 368 815 449 865 q 245 678 288 764 q 203 485 203 592 q 245 292 203 378 q 368 155 288 206 q 564 104 449 104 m 408 1026 q 377 1039 389 1026 q 365 1069 365 1051 q 369 1089 365 1081 q 447 1171 396 1140 q 564 1201 497 1201 q 681 1171 631 1201 q 758 1089 732 1140 q 763 1069 763 1081 q 751 1039 763 1051 q 719 1026 739 1026 q 681 1053 693 1026 q 635 1103 667 1085 q 564 1121 604 1121 q 493 1103 524 1121 q 447 1053 463 1085 q 408 1026 435 1026 z "},"Ō":{"ha":1128,"x_min":76,"x_max":1051,"o":"m 564 -14 q 307 50 415 -14 q 139 226 199 114 q 76 485 79 339 q 139 743 79 631 q 307 919 199 856 q 564 983 415 983 q 821 919 713 983 q 989 743 929 856 q 1051 485 1049 631 q 989 226 1049 339 q 821 50 929 114 q 564 -14 713 -14 m 564 104 q 760 155 679 104 q 883 292 840 206 q 925 485 925 378 q 883 678 925 592 q 760 815 840 764 q 564 865 679 865 q 368 815 449 865 q 245 678 288 764 q 203 485 203 592 q 245 292 203 378 q 368 155 288 206 q 564 104 449 104 m 401 1056 q 372 1067 383 1056 q 360 1097 360 1079 q 372 1127 360 1115 q 401 1139 383 1139 l 726 1139 q 756 1127 744 1139 q 768 1097 768 1115 q 756 1067 768 1079 q 726 1056 744 1056 l 401 1056 z "},"Ṓ":{"ha":1128,"x_min":76,"x_max":1051,"o":"m 564 -14 q 307 50 415 -14 q 139 226 199 114 q 76 485 79 339 q 139 743 79 631 q 307 919 199 856 q 564 983 415 983 q 821 919 713 983 q 989 743 929 856 q 1051 485 1049 631 q 989 226 1049 339 q 821 50 929 114 q 564 -14 713 -14 m 564 104 q 760 155 679 104 q 883 292 840 206 q 925 485 925 378 q 883 678 925 592 q 760 815 840 764 q 564 865 679 865 q 368 815 449 865 q 245 678 288 764 q 203 485 203 592 q 245 292 203 378 q 368 155 288 206 q 564 104 449 104 m 401 1056 q 372 1067 383 1056 q 360 1097 360 1079 q 372 1127 360 1115 q 401 1139 383 1139 l 726 1139 q 756 1127 744 1139 q 768 1097 768 1115 q 756 1067 768 1079 q 726 1056 744 1056 l 401 1056 m 564 1194 q 537 1205 547 1194 q 526 1232 526 1215 q 531 1248 526 1240 q 536 1258 535 1256 l 607 1383 q 624 1402 614 1394 q 653 1410 635 1410 q 690 1396 676 1410 q 704 1358 704 1382 q 690 1324 704 1339 l 594 1210 q 564 1194 582 1194 z "},"Ṑ":{"ha":1128,"x_min":76,"x_max":1051,"o":"m 564 -14 q 307 50 415 -14 q 139 226 199 114 q 76 485 79 339 q 139 743 79 631 q 307 919 199 856 q 564 983 415 983 q 821 919 713 983 q 989 743 929 856 q 1051 485 1049 631 q 989 226 1049 339 q 821 50 929 114 q 564 -14 713 -14 m 564 104 q 760 155 679 104 q 883 292 840 206 q 925 485 925 378 q 883 678 925 592 q 760 815 840 764 q 564 865 679 865 q 368 815 449 865 q 245 678 288 764 q 203 485 203 592 q 245 292 203 378 q 368 155 288 206 q 564 104 449 104 m 401 1056 q 372 1067 383 1056 q 360 1097 360 1079 q 372 1127 360 1115 q 401 1139 383 1139 l 726 1139 q 756 1127 744 1139 q 768 1097 768 1115 q 756 1067 768 1079 q 726 1056 744 1056 l 401 1056 m 564 1194 q 533 1210 546 1194 l 438 1324 q 424 1358 424 1339 q 438 1396 424 1382 q 475 1410 453 1410 q 504 1402 493 1410 q 521 1383 515 1394 l 592 1258 q 598 1248 594 1256 q 601 1232 601 1240 q 591 1205 601 1215 q 564 1194 581 1194 z "},"Ǫ":{"ha":1126,"x_min":76,"x_max":1051,"o":"m 610 -282 q 520 -251 560 -282 q 481 -165 481 -221 q 509 -76 481 -112 q 576 -14 538 -40 l 564 -14 q 307 50 415 -14 q 139 226 199 114 q 76 485 79 339 q 139 743 79 631 q 307 919 199 856 q 564 983 415 983 q 821 919 713 983 q 989 743 929 856 q 1051 485 1049 631 q 968 192 1049 313 q 739 13 888 71 q 668 -25 704 -1 q 607 -78 632 -49 q 582 -139 582 -107 q 599 -187 582 -169 q 653 -204 615 -204 q 680 -201 668 -204 q 701 -196 692 -199 q 714 -193 710 -193 q 744 -224 744 -193 q 729 -249 744 -237 q 678 -273 707 -264 q 610 -282 649 -282 m 564 104 q 760 155 679 104 q 883 292 840 206 q 925 485 925 378 q 883 678 925 592 q 760 815 840 764 q 564 865 679 865 q 368 815 449 865 q 245 678 288 764 q 203 485 203 592 q 245 292 203 378 q 368 155 288 206 q 564 104 449 104 z "},"Ø":{"ha":1128,"x_min":76,"x_max":1051,"o":"m 219 -42 q 194 -32 204 -42 q 185 -8 185 -22 q 193 15 185 3 l 247 92 q 123 260 167 158 q 76 485 79 361 q 139 743 79 631 q 307 919 199 856 q 564 983 415 983 q 705 965 639 983 q 825 915 771 947 l 881 996 q 910 1010 890 1010 q 935 1000 925 1010 q 944 976 944 990 q 936 953 944 965 l 882 875 q 1005 708 961 808 q 1051 485 1049 608 q 989 226 1049 339 q 821 50 929 114 q 564 -14 713 -14 q 424 3 489 -14 q 304 51 358 21 l 249 -28 q 219 -42 239 -42 m 318 193 l 754 817 q 667 853 715 840 q 564 865 619 865 q 368 815 449 865 q 245 678 288 764 q 203 485 203 592 q 233 321 203 396 q 318 193 263 246 m 564 104 q 760 155 679 104 q 883 292 840 206 q 925 485 925 378 q 896 648 925 572 q 811 775 867 724 l 374 151 q 564 104 456 104 z "},"Ǿ":{"ha":1128,"x_min":76,"x_max":1051,"o":"m 219 -42 q 194 -32 204 -42 q 185 -8 185 -22 q 193 15 185 3 l 247 92 q 123 260 167 158 q 76 485 79 361 q 139 743 79 631 q 307 919 199 856 q 564 983 415 983 q 705 965 639 983 q 825 915 771 947 l 881 996 q 910 1010 890 1010 q 935 1000 925 1010 q 944 976 944 990 q 936 953 944 965 l 882 875 q 1005 708 961 808 q 1051 485 1049 608 q 989 226 1049 339 q 821 50 929 114 q 564 -14 713 -14 q 424 3 489 -14 q 304 51 358 21 l 249 -28 q 219 -42 239 -42 m 318 193 l 754 817 q 667 853 715 840 q 564 865 619 865 q 368 815 449 865 q 245 678 288 764 q 203 485 203 592 q 233 321 203 396 q 318 193 263 246 m 564 104 q 760 155 679 104 q 883 292 840 206 q 925 485 925 378 q 896 648 925 572 q 811 775 867 724 l 374 151 q 564 104 456 104 m 564 1026 q 537 1037 547 1026 q 526 1064 526 1047 q 531 1080 526 1072 q 536 1090 535 1088 l 607 1215 q 624 1234 614 1226 q 653 1242 635 1242 q 690 1228 676 1242 q 704 1190 704 1214 q 690 1156 704 1171 l 594 1042 q 564 1026 582 1026 z "},"Õ":{"ha":1128,"x_min":76,"x_max":1051,"o":"m 564 -14 q 307 50 415 -14 q 139 226 199 114 q 76 485 79 339 q 139 743 79 631 q 307 919 199 856 q 564 983 415 983 q 821 919 713 983 q 989 743 929 856 q 1051 485 1049 631 q 989 226 1049 339 q 821 50 929 114 q 564 -14 713 -14 m 564 104 q 760 155 679 104 q 883 292 840 206 q 925 485 925 378 q 883 678 925 592 q 760 815 840 764 q 564 865 679 865 q 368 815 449 865 q 245 678 288 764 q 203 485 203 592 q 245 292 203 378 q 368 155 288 206 q 564 104 449 104 m 372 1032 q 350 1041 360 1032 q 340 1064 340 1050 q 354 1122 340 1092 q 394 1174 368 1153 q 457 1196 421 1196 q 532 1180 497 1196 q 600 1147 567 1164 q 671 1131 633 1131 q 705 1140 693 1131 q 722 1168 717 1150 q 734 1188 726 1179 q 757 1197 742 1197 q 780 1188 772 1197 q 789 1167 788 1179 q 774 1107 789 1138 q 733 1056 760 1076 q 672 1035 707 1035 q 596 1051 631 1035 q 528 1085 561 1068 q 458 1101 494 1101 q 425 1089 438 1101 q 404 1057 413 1076 q 394 1040 401 1047 q 372 1032 386 1032 z "},"Ṍ":{"ha":1128,"x_min":76,"x_max":1051,"o":"m 564 -14 q 307 50 415 -14 q 139 226 199 114 q 76 485 79 339 q 139 743 79 631 q 307 919 199 856 q 564 983 415 983 q 821 919 713 983 q 989 743 929 856 q 1051 485 1049 631 q 989 226 1049 339 q 821 50 929 114 q 564 -14 713 -14 m 564 104 q 760 155 679 104 q 883 292 840 206 q 925 485 925 378 q 883 678 925 592 q 760 815 840 764 q 564 865 679 865 q 368 815 449 865 q 245 678 288 764 q 203 485 203 592 q 245 292 203 378 q 368 155 288 206 q 564 104 449 104 m 372 1032 q 350 1041 360 1032 q 340 1064 340 1050 q 354 1122 340 1092 q 394 1174 368 1153 q 457 1196 421 1196 q 532 1180 497 1196 q 600 1147 567 1164 q 671 1131 633 1131 q 705 1140 693 1131 q 722 1168 717 1150 q 734 1188 726 1179 q 757 1197 742 1197 q 780 1188 772 1197 q 789 1167 788 1179 q 774 1107 789 1138 q 733 1056 760 1076 q 672 1035 707 1035 q 596 1051 631 1035 q 528 1085 561 1068 q 458 1101 494 1101 q 425 1089 438 1101 q 404 1057 413 1076 q 394 1040 401 1047 q 372 1032 386 1032 m 564 1208 q 537 1219 547 1208 q 526 1246 526 1229 q 531 1262 526 1254 q 536 1272 535 1269 l 607 1397 q 624 1416 614 1408 q 653 1424 635 1424 q 690 1410 676 1424 q 704 1372 704 1396 q 690 1338 704 1353 l 594 1224 q 564 1208 582 1208 z "},"Ṏ":{"ha":1128,"x_min":76,"x_max":1051,"o":"m 564 -14 q 307 50 415 -14 q 139 226 199 114 q 76 485 79 339 q 139 743 79 631 q 307 919 199 856 q 564 983 415 983 q 821 919 713 983 q 989 743 929 856 q 1051 485 1049 631 q 989 226 1049 339 q 821 50 929 114 q 564 -14 713 -14 m 564 104 q 760 155 679 104 q 883 292 840 206 q 925 485 925 378 q 883 678 925 592 q 760 815 840 764 q 564 865 679 865 q 368 815 449 865 q 245 678 288 764 q 203 485 203 592 q 245 292 203 378 q 368 155 288 206 q 564 104 449 104 m 372 1032 q 350 1041 360 1032 q 340 1064 340 1050 q 354 1122 340 1092 q 394 1174 368 1153 q 457 1196 421 1196 q 532 1180 497 1196 q 600 1147 567 1164 q 671 1131 633 1131 q 705 1140 693 1131 q 722 1168 717 1150 q 734 1188 726 1179 q 757 1197 742 1197 q 780 1188 772 1197 q 789 1167 788 1179 q 774 1107 789 1138 q 733 1056 760 1076 q 672 1035 707 1035 q 596 1051 631 1035 q 528 1085 561 1068 q 458 1101 494 1101 q 425 1089 438 1101 q 404 1057 413 1076 q 394 1040 401 1047 q 372 1032 386 1032 m 681 1219 q 631 1240 651 1219 q 610 1290 610 1261 q 631 1340 610 1319 q 681 1361 651 1361 q 731 1340 710 1361 q 751 1290 751 1319 q 731 1240 751 1261 q 681 1219 710 1219 m 447 1219 q 397 1240 418 1219 q 376 1290 376 1261 q 397 1340 376 1319 q 447 1361 418 1361 q 497 1340 476 1361 q 518 1290 518 1319 q 497 1240 518 1261 q 447 1219 476 1219 z "},"Ȭ":{"ha":1128,"x_min":76,"x_max":1051,"o":"m 564 -14 q 307 50 415 -14 q 139 226 199 114 q 76 485 79 339 q 139 743 79 631 q 307 919 199 856 q 564 983 415 983 q 821 919 713 983 q 989 743 929 856 q 1051 485 1049 631 q 989 226 1049 339 q 821 50 929 114 q 564 -14 713 -14 m 564 104 q 760 155 679 104 q 883 292 840 206 q 925 485 925 378 q 883 678 925 592 q 760 815 840 764 q 564 865 679 865 q 368 815 449 865 q 245 678 288 764 q 203 485 203 592 q 245 292 203 378 q 368 155 288 206 q 564 104 449 104 m 372 1032 q 350 1041 360 1032 q 340 1064 340 1050 q 354 1122 340 1092 q 394 1174 368 1153 q 457 1196 421 1196 q 532 1180 497 1196 q 600 1147 567 1164 q 671 1131 633 1131 q 705 1140 693 1131 q 722 1168 717 1150 q 734 1188 726 1179 q 757 1197 742 1197 q 780 1188 772 1197 q 789 1167 788 1179 q 774 1107 789 1138 q 733 1056 760 1076 q 672 1035 707 1035 q 596 1051 631 1035 q 528 1085 561 1068 q 458 1101 494 1101 q 425 1089 438 1101 q 404 1057 413 1076 q 394 1040 401 1047 q 372 1032 386 1032 m 401 1238 q 372 1249 383 1238 q 360 1279 360 1261 q 372 1309 360 1297 q 401 1321 383 1321 l 726 1321 q 756 1309 744 1321 q 768 1279 768 1297 q 756 1249 768 1261 q 726 1238 744 1238 l 401 1238 z "},"Œ":{"ha":1676,"x_min":76,"x_max":1604,"o":"m 564 -14 q 307 50 415 -14 q 139 226 199 114 q 76 485 79 339 q 139 743 79 631 q 307 919 199 856 q 564 983 415 983 q 775 936 683 983 q 925 804 867 889 l 925 906 q 943 951 925 932 q 988 969 961 969 l 1544 969 q 1587 952 1569 969 q 1604 910 1604 935 q 1587 868 1604 885 q 1544 851 1569 851 l 1051 851 l 1051 544 l 1494 544 q 1537 527 1519 544 q 1554 485 1554 510 q 1537 443 1554 460 q 1494 426 1519 426 l 1051 426 l 1051 118 l 1544 118 q 1587 101 1569 118 q 1604 58 1604 83 q 1587 17 1604 33 q 1544 0 1569 0 l 988 0 q 943 18 961 0 q 925 63 925 36 l 925 165 q 775 33 867 81 q 564 -14 683 -14 m 564 104 q 760 155 679 104 q 883 292 840 206 q 925 485 925 378 q 883 678 925 592 q 760 815 840 764 q 564 865 679 865 q 368 815 449 865 q 245 678 288 764 q 203 485 203 592 q 245 292 203 378 q 368 155 288 206 q 564 104 449 104 z "},"P":{"ha":933,"x_min":135,"x_max":885,"o":"m 197 -7 q 153 11 171 -7 q 135 56 135 29 l 135 906 q 153 951 135 932 q 197 969 171 969 l 514 969 q 691 942 619 969 q 805 870 763 915 q 866 771 847 825 q 885 661 885 717 q 866 551 885 606 q 805 452 847 497 q 691 380 763 407 q 514 353 619 353 l 261 353 l 261 56 q 242 11 261 29 q 197 -7 224 -7 m 261 472 l 501 472 q 661 501 606 472 q 738 573 717 529 q 758 661 758 617 q 738 750 758 707 q 661 822 717 793 q 501 850 606 850 l 261 850 l 261 472 z "},"Þ":{"ha":933,"x_min":135,"x_max":885,"o":"m 197 -7 q 153 11 171 -7 q 135 56 135 29 l 135 913 q 153 958 135 939 q 197 976 171 976 q 242 958 224 976 q 261 913 261 939 l 261 814 l 514 814 q 691 787 619 814 q 805 715 763 760 q 866 615 847 669 q 885 506 885 561 q 866 396 885 450 q 805 297 847 342 q 691 224 763 251 q 514 197 619 197 l 261 197 l 261 56 q 242 11 261 29 q 197 -7 224 -7 m 261 317 l 501 317 q 661 345 606 317 q 738 417 717 374 q 758 506 758 461 q 738 594 758 551 q 661 666 717 638 q 501 694 606 694 l 261 694 l 261 317 z "},"Q":{"ha":1128,"x_min":76,"x_max":1051,"o":"m 843 -211 q 799 -189 817 -211 l 647 -8 q 607 -12 628 -11 q 564 -14 586 -14 q 307 50 415 -14 q 139 226 199 114 q 76 485 79 339 q 139 743 79 631 q 307 919 199 856 q 564 983 415 983 q 821 919 713 983 q 989 743 929 856 q 1051 485 1049 631 q 973 201 1049 322 q 764 24 897 79 l 886 -111 q 903 -151 903 -128 q 886 -193 904 -175 q 843 -211 868 -211 m 564 104 q 760 155 679 104 q 883 292 840 206 q 925 485 925 378 q 883 678 925 592 q 760 815 840 764 q 564 865 679 865 q 368 815 449 865 q 245 678 288 764 q 203 485 203 592 q 245 292 203 378 q 368 155 288 206 q 564 104 449 104 z "},"R":{"ha":989,"x_min":135,"x_max":899,"o":"m 197 -7 q 153 11 171 -7 q 135 56 135 29 l 135 906 q 153 951 135 932 q 197 969 171 969 l 521 969 q 736 932 653 969 q 859 831 819 894 q 899 688 899 768 q 853 538 899 607 q 717 436 808 468 q 810 381 775 421 q 862 292 844 342 q 885 195 879 242 q 890 119 890 149 l 890 56 q 872 11 890 29 q 828 -7 854 -7 q 781 10 799 -7 q 764 56 764 28 l 764 97 q 759 179 764 132 q 735 272 754 226 q 672 348 715 318 q 549 378 628 378 l 261 378 l 261 56 q 242 11 261 29 q 197 -7 224 -7 m 261 497 l 513 497 q 701 543 629 497 q 772 678 772 589 q 749 768 772 729 q 667 828 725 807 q 506 850 608 850 l 261 850 l 261 497 z "},"Ŕ":{"ha":989,"x_min":135,"x_max":899,"o":"m 197 -7 q 153 11 171 -7 q 135 56 135 29 l 135 906 q 153 951 135 932 q 197 969 171 969 l 521 969 q 736 932 653 969 q 859 831 819 894 q 899 688 899 768 q 853 538 899 607 q 717 436 808 468 q 810 381 775 421 q 862 292 844 342 q 885 195 879 242 q 890 119 890 149 l 890 56 q 872 11 890 29 q 828 -7 854 -7 q 781 10 799 -7 q 764 56 764 28 l 764 97 q 759 179 764 132 q 735 272 754 226 q 672 348 715 318 q 549 378 628 378 l 261 378 l 261 56 q 242 11 261 29 q 197 -7 224 -7 m 261 497 l 513 497 q 701 543 629 497 q 772 678 772 589 q 749 768 772 729 q 667 828 725 807 q 506 850 608 850 l 261 850 l 261 497 m 494 1026 q 467 1037 478 1026 q 457 1064 457 1047 q 461 1080 457 1072 q 467 1090 465 1088 l 538 1215 q 555 1234 544 1226 q 583 1242 565 1242 q 621 1228 607 1242 q 635 1190 635 1214 q 621 1156 635 1171 l 525 1042 q 494 1026 513 1026 z "},"Ř":{"ha":989,"x_min":135,"x_max":899,"o":"m 197 -7 q 153 11 171 -7 q 135 56 135 29 l 135 906 q 153 951 135 932 q 197 969 171 969 l 521 969 q 736 932 653 969 q 859 831 819 894 q 899 688 899 768 q 853 538 899 607 q 717 436 808 468 q 810 381 775 421 q 862 292 844 342 q 885 195 879 242 q 890 119 890 149 l 890 56 q 872 11 890 29 q 828 -7 854 -7 q 781 10 799 -7 q 764 56 764 28 l 764 97 q 759 179 764 132 q 735 272 754 226 q 672 348 715 318 q 549 378 628 378 l 261 378 l 261 56 q 242 11 261 29 q 197 -7 224 -7 m 261 497 l 513 497 q 701 543 629 497 q 772 678 772 589 q 749 768 772 729 q 667 828 725 807 q 506 850 608 850 l 261 850 l 261 497 m 468 1026 q 436 1035 449 1026 q 413 1054 424 1043 l 318 1151 q 307 1178 307 1163 q 318 1206 306 1193 q 349 1219 331 1219 q 374 1210 364 1219 l 494 1107 l 615 1210 q 640 1219 625 1219 q 671 1206 658 1219 q 682 1178 683 1193 q 671 1151 682 1163 l 576 1054 q 553 1035 567 1043 q 521 1026 540 1026 l 468 1026 z "},"Ŗ":{"ha":989,"x_min":135,"x_max":899,"o":"m 197 -7 q 153 11 171 -7 q 135 56 135 29 l 135 906 q 153 951 135 932 q 197 969 171 969 l 521 969 q 736 932 653 969 q 859 831 819 894 q 899 688 899 768 q 853 538 899 607 q 717 436 808 468 q 810 381 775 421 q 862 292 844 342 q 885 195 879 242 q 890 119 890 149 l 890 56 q 872 11 890 29 q 828 -7 854 -7 q 781 10 799 -7 q 764 56 764 28 l 764 97 q 759 179 764 132 q 735 272 754 226 q 672 348 715 318 q 549 378 628 378 l 261 378 l 261 56 q 242 11 261 29 q 197 -7 224 -7 m 261 497 l 513 497 q 701 543 629 497 q 772 678 772 589 q 749 768 772 729 q 667 828 725 807 q 506 850 608 850 l 261 850 l 261 497 m 453 -365 q 431 -356 440 -365 q 422 -333 422 -347 q 439 -304 422 -314 q 482 -271 465 -289 q 499 -226 499 -253 q 449 -208 468 -226 q 431 -160 431 -189 q 451 -110 431 -131 q 500 -89 471 -89 q 551 -110 532 -89 q 569 -162 569 -131 l 569 -208 q 540 -303 569 -268 q 475 -358 510 -337 q 453 -365 464 -365 z "},"Ȑ":{"ha":989,"x_min":135,"x_max":899,"o":"m 197 -7 q 153 11 171 -7 q 135 56 135 29 l 135 906 q 153 951 135 932 q 197 969 171 969 l 521 969 q 736 932 653 969 q 859 831 819 894 q 899 688 899 768 q 853 538 899 607 q 717 436 808 468 q 810 381 775 421 q 862 292 844 342 q 885 195 879 242 q 890 119 890 149 l 890 56 q 872 11 890 29 q 828 -7 854 -7 q 781 10 799 -7 q 764 56 764 28 l 764 97 q 759 179 764 132 q 735 272 754 226 q 672 348 715 318 q 549 378 628 378 l 261 378 l 261 56 q 242 11 261 29 q 197 -7 224 -7 m 261 497 l 513 497 q 701 543 629 497 q 772 678 772 589 q 749 768 772 729 q 667 828 725 807 q 506 850 608 850 l 261 850 l 261 497 m 601 1026 q 574 1037 585 1026 q 564 1064 564 1047 q 568 1080 564 1072 q 574 1090 572 1088 l 644 1215 q 662 1234 651 1226 q 690 1242 672 1242 q 728 1228 714 1242 q 742 1190 742 1214 q 728 1156 742 1171 l 632 1042 q 601 1026 619 1026 m 388 1026 q 360 1037 371 1026 q 350 1064 350 1047 q 354 1080 350 1072 q 360 1090 358 1088 l 431 1215 q 448 1234 438 1226 q 476 1242 458 1242 q 514 1228 500 1242 q 528 1190 528 1214 q 514 1156 528 1171 l 418 1042 q 388 1026 406 1026 z "},"Ṛ":{"ha":989,"x_min":135,"x_max":899,"o":"m 197 -7 q 153 11 171 -7 q 135 56 135 29 l 135 906 q 153 951 135 932 q 197 969 171 969 l 521 969 q 736 932 653 969 q 859 831 819 894 q 899 688 899 768 q 853 538 899 607 q 717 436 808 468 q 810 381 775 421 q 862 292 844 342 q 885 195 879 242 q 890 119 890 149 l 890 56 q 872 11 890 29 q 828 -7 854 -7 q 781 10 799 -7 q 764 56 764 28 l 764 97 q 759 179 764 132 q 735 272 754 226 q 672 348 715 318 q 549 378 628 378 l 261 378 l 261 56 q 242 11 261 29 q 197 -7 224 -7 m 261 497 l 513 497 q 701 543 629 497 q 772 678 772 589 q 749 768 772 729 q 667 828 725 807 q 506 850 608 850 l 261 850 l 261 497 m 494 -231 q 444 -210 465 -231 q 424 -160 424 -189 q 444 -110 424 -131 q 494 -89 465 -89 q 544 -110 524 -89 q 565 -160 565 -131 q 544 -210 565 -189 q 494 -231 524 -231 z "},"Ȓ":{"ha":989,"x_min":135,"x_max":899,"o":"m 197 -7 q 153 11 171 -7 q 135 56 135 29 l 135 906 q 153 951 135 932 q 197 969 171 969 l 521 969 q 736 932 653 969 q 859 831 819 894 q 899 688 899 768 q 853 538 899 607 q 717 436 808 468 q 810 381 775 421 q 862 292 844 342 q 885 195 879 242 q 890 119 890 149 l 890 56 q 872 11 890 29 q 828 -7 854 -7 q 781 10 799 -7 q 764 56 764 28 l 764 97 q 759 179 764 132 q 735 272 754 226 q 672 348 715 318 q 549 378 628 378 l 261 378 l 261 56 q 242 11 261 29 q 197 -7 224 -7 m 261 497 l 513 497 q 701 543 629 497 q 772 678 772 589 q 749 768 772 729 q 667 828 725 807 q 506 850 608 850 l 261 850 l 261 497 m 339 1026 q 308 1039 319 1026 q 296 1069 296 1051 q 300 1089 296 1081 q 377 1171 326 1140 q 494 1201 428 1201 q 612 1171 561 1201 q 689 1089 663 1140 q 693 1069 693 1081 q 681 1039 693 1051 q 650 1026 669 1026 q 611 1053 624 1026 q 566 1103 597 1085 q 494 1121 535 1121 q 424 1103 454 1121 q 378 1053 393 1085 q 339 1026 365 1026 z "},"Ṟ":{"ha":989,"x_min":135,"x_max":899,"o":"m 197 -7 q 153 11 171 -7 q 135 56 135 29 l 135 906 q 153 951 135 932 q 197 969 171 969 l 521 969 q 736 932 653 969 q 859 831 819 894 q 899 688 899 768 q 853 538 899 607 q 717 436 808 468 q 810 381 775 421 q 862 292 844 342 q 885 195 879 242 q 890 119 890 149 l 890 56 q 872 11 890 29 q 828 -7 854 -7 q 781 10 799 -7 q 764 56 764 28 l 764 97 q 759 179 764 132 q 735 272 754 226 q 672 348 715 318 q 549 378 628 378 l 261 378 l 261 56 q 242 11 261 29 q 197 -7 224 -7 m 261 497 l 513 497 q 701 543 629 497 q 772 678 772 589 q 749 768 772 729 q 667 828 725 807 q 506 850 608 850 l 261 850 l 261 497 m 332 -190 q 302 -178 314 -190 q 290 -149 290 -167 q 302 -119 290 -131 q 332 -107 314 -107 l 657 -107 q 687 -119 675 -107 q 699 -149 699 -131 q 687 -178 699 -167 q 657 -190 675 -190 l 332 -190 z "},"S":{"ha":856,"x_min":71,"x_max":796,"o":"m 440 -14 q 253 6 336 -14 q 110 53 171 26 q 83 76 94 60 q 71 110 71 92 q 86 151 71 133 q 128 168 101 168 q 154 163 142 168 q 270 124 201 142 q 428 106 339 106 q 552 120 497 106 q 639 170 607 135 q 671 265 671 206 q 639 337 671 310 q 554 382 607 364 q 438 415 501 400 q 313 449 375 431 q 197 499 250 468 q 113 577 144 529 q 81 699 81 625 q 122 841 81 776 q 243 944 163 906 q 440 983 324 983 q 592 971 522 983 q 717 938 661 958 q 744 919 732 932 q 756 882 756 907 q 741 842 756 861 q 700 824 726 824 q 689 826 694 824 q 678 829 683 828 q 574 856 631 846 q 454 867 518 867 q 278 826 349 867 q 207 708 207 786 q 239 626 207 657 q 324 578 271 596 q 439 545 376 560 q 564 513 501 531 q 679 465 626 494 q 764 385 732 435 q 796 257 796 336 q 752 117 796 179 q 628 21 708 56 q 440 -14 549 -14 z "},"Ś":{"ha":856,"x_min":71,"x_max":796,"o":"m 440 -14 q 253 6 336 -14 q 110 53 171 26 q 83 76 94 60 q 71 110 71 92 q 86 151 71 133 q 128 168 101 168 q 154 163 142 168 q 270 124 201 142 q 428 106 339 106 q 552 120 497 106 q 639 170 607 135 q 671 265 671 206 q 639 337 671 310 q 554 382 607 364 q 438 415 501 400 q 313 449 375 431 q 197 499 250 468 q 113 577 144 529 q 81 699 81 625 q 122 841 81 776 q 243 944 163 906 q 440 983 324 983 q 592 971 522 983 q 717 938 661 958 q 744 919 732 932 q 756 882 756 907 q 741 842 756 861 q 700 824 726 824 q 689 826 694 824 q 678 829 683 828 q 574 856 631 846 q 454 867 518 867 q 278 826 349 867 q 207 708 207 786 q 239 626 207 657 q 324 578 271 596 q 439 545 376 560 q 564 513 501 531 q 679 465 626 494 q 764 385 732 435 q 796 257 796 336 q 752 117 796 179 q 628 21 708 56 q 440 -14 549 -14 m 428 1026 q 401 1037 411 1026 q 390 1064 390 1047 q 394 1080 390 1072 q 400 1090 399 1088 l 471 1215 q 488 1234 478 1226 q 517 1242 499 1242 q 554 1228 540 1242 q 568 1190 568 1214 q 554 1156 568 1171 l 458 1042 q 428 1026 446 1026 z "},"Ṥ":{"ha":856,"x_min":71,"x_max":796,"o":"m 440 -14 q 253 6 336 -14 q 110 53 171 26 q 83 76 94 60 q 71 110 71 92 q 86 151 71 133 q 128 168 101 168 q 154 163 142 168 q 270 124 201 142 q 428 106 339 106 q 552 120 497 106 q 639 170 607 135 q 671 265 671 206 q 639 337 671 310 q 554 382 607 364 q 438 415 501 400 q 313 449 375 431 q 197 499 250 468 q 113 577 144 529 q 81 699 81 625 q 122 841 81 776 q 243 944 163 906 q 440 983 324 983 q 592 971 522 983 q 717 938 661 958 q 744 919 732 932 q 756 882 756 907 q 741 842 756 861 q 700 824 726 824 q 689 826 694 824 q 678 829 683 828 q 574 856 631 846 q 454 867 518 867 q 278 826 349 867 q 207 708 207 786 q 239 626 207 657 q 324 578 271 596 q 439 545 376 560 q 564 513 501 531 q 679 465 626 494 q 764 385 732 435 q 796 257 796 336 q 752 117 796 179 q 628 21 708 56 q 440 -14 549 -14 m 428 1026 q 401 1037 411 1026 q 390 1064 390 1047 q 394 1080 390 1072 q 400 1090 399 1088 l 471 1215 q 488 1234 478 1226 q 517 1242 499 1242 q 554 1228 540 1242 q 568 1190 568 1214 q 554 1156 568 1171 l 458 1042 q 428 1026 446 1026 m 428 1247 q 378 1268 399 1247 q 357 1318 357 1289 q 378 1368 357 1347 q 428 1389 399 1389 q 478 1368 457 1389 q 499 1318 499 1347 q 478 1268 499 1289 q 428 1247 457 1247 z "},"Š":{"ha":856,"x_min":71,"x_max":796,"o":"m 440 -14 q 253 6 336 -14 q 110 53 171 26 q 83 76 94 60 q 71 110 71 92 q 86 151 71 133 q 128 168 101 168 q 154 163 142 168 q 270 124 201 142 q 428 106 339 106 q 552 120 497 106 q 639 170 607 135 q 671 265 671 206 q 639 337 671 310 q 554 382 607 364 q 438 415 501 400 q 313 449 375 431 q 197 499 250 468 q 113 577 144 529 q 81 699 81 625 q 122 841 81 776 q 243 944 163 906 q 440 983 324 983 q 592 971 522 983 q 717 938 661 958 q 744 919 732 932 q 756 882 756 907 q 741 842 756 861 q 700 824 726 824 q 689 826 694 824 q 678 829 683 828 q 574 856 631 846 q 454 867 518 867 q 278 826 349 867 q 207 708 207 786 q 239 626 207 657 q 324 578 271 596 q 439 545 376 560 q 564 513 501 531 q 679 465 626 494 q 764 385 732 435 q 796 257 796 336 q 752 117 796 179 q 628 21 708 56 q 440 -14 549 -14 m 401 1026 q 369 1035 382 1026 q 346 1054 357 1043 l 251 1151 q 240 1178 240 1163 q 251 1206 239 1193 q 282 1219 264 1219 q 307 1210 297 1219 l 428 1107 l 549 1210 q 574 1219 558 1219 q 604 1206 592 1219 q 615 1178 617 1193 q 604 1151 615 1163 l 510 1054 q 487 1035 500 1043 q 454 1026 474 1026 l 401 1026 z "},"Ṧ":{"ha":856,"x_min":71,"x_max":796,"o":"m 440 -14 q 253 6 336 -14 q 110 53 171 26 q 83 76 94 60 q 71 110 71 92 q 86 151 71 133 q 128 168 101 168 q 154 163 142 168 q 270 124 201 142 q 428 106 339 106 q 552 120 497 106 q 639 170 607 135 q 671 265 671 206 q 639 337 671 310 q 554 382 607 364 q 438 415 501 400 q 313 449 375 431 q 197 499 250 468 q 113 577 144 529 q 81 699 81 625 q 122 841 81 776 q 243 944 163 906 q 440 983 324 983 q 592 971 522 983 q 717 938 661 958 q 744 919 732 932 q 756 882 756 907 q 741 842 756 861 q 700 824 726 824 q 689 826 694 824 q 678 829 683 828 q 574 856 631 846 q 454 867 518 867 q 278 826 349 867 q 207 708 207 786 q 239 626 207 657 q 324 578 271 596 q 439 545 376 560 q 564 513 501 531 q 679 465 626 494 q 764 385 732 435 q 796 257 796 336 q 752 117 796 179 q 628 21 708 56 q 440 -14 549 -14 m 401 1026 q 369 1035 382 1026 q 346 1054 357 1043 l 251 1151 q 240 1178 240 1163 q 251 1206 239 1193 q 282 1219 264 1219 q 307 1210 297 1219 l 428 1107 l 549 1210 q 574 1219 558 1219 q 604 1206 592 1219 q 615 1178 617 1193 q 604 1151 615 1163 l 510 1054 q 487 1035 500 1043 q 454 1026 474 1026 l 401 1026 m 428 1233 q 378 1254 399 1233 q 357 1304 357 1275 q 378 1354 357 1333 q 428 1375 399 1375 q 478 1354 457 1375 q 499 1304 499 1333 q 478 1254 499 1275 q 428 1233 457 1233 z "},"Ş":{"ha":856,"x_min":71,"x_max":796,"o":"m 440 -14 q 253 6 336 -14 q 110 53 171 26 q 83 76 94 60 q 71 110 71 92 q 86 151 71 133 q 128 168 101 168 q 154 163 142 168 q 270 124 201 142 q 428 106 339 106 q 552 120 497 106 q 639 170 607 135 q 671 265 671 206 q 639 337 671 310 q 554 382 607 364 q 438 415 501 400 q 313 449 375 431 q 197 499 250 468 q 113 577 144 529 q 81 699 81 625 q 122 841 81 776 q 243 944 163 906 q 440 983 324 983 q 592 971 522 983 q 717 938 661 958 q 744 919 732 932 q 756 882 756 907 q 741 842 756 861 q 700 824 726 824 q 689 826 694 824 q 678 829 683 828 q 574 856 631 846 q 454 867 518 867 q 278 826 349 867 q 207 708 207 786 q 239 626 207 657 q 324 578 271 596 q 439 545 376 560 q 564 513 501 531 q 679 465 626 494 q 764 385 732 435 q 796 257 796 336 q 752 117 796 179 q 628 21 708 56 q 440 -14 549 -14 m 410 -307 q 354 -300 388 -307 q 285 -271 321 -293 q 274 -261 279 -268 q 269 -247 269 -254 q 276 -228 269 -236 q 296 -219 282 -219 q 304 -221 300 -219 q 310 -224 308 -222 q 353 -242 333 -236 q 392 -247 374 -247 q 448 -233 425 -247 q 471 -183 471 -219 q 456 -151 471 -162 q 421 -140 442 -140 q 393 -143 407 -140 q 360 -156 379 -146 q 354 -158 358 -157 q 346 -160 350 -160 q 328 -153 336 -160 q 321 -137 321 -147 q 323 -126 321 -131 q 326 -118 325 -121 l 415 24 l 474 24 l 410 -87 q 457 -82 432 -82 q 534 -108 504 -82 q 564 -179 564 -135 q 524 -275 564 -243 q 410 -307 483 -307 z "},"Ŝ":{"ha":856,"x_min":71,"x_max":796,"o":"m 440 -14 q 253 6 336 -14 q 110 53 171 26 q 83 76 94 60 q 71 110 71 92 q 86 151 71 133 q 128 168 101 168 q 154 163 142 168 q 270 124 201 142 q 428 106 339 106 q 552 120 497 106 q 639 170 607 135 q 671 265 671 206 q 639 337 671 310 q 554 382 607 364 q 438 415 501 400 q 313 449 375 431 q 197 499 250 468 q 113 577 144 529 q 81 699 81 625 q 122 841 81 776 q 243 944 163 906 q 440 983 324 983 q 592 971 522 983 q 717 938 661 958 q 744 919 732 932 q 756 882 756 907 q 741 842 756 861 q 700 824 726 824 q 689 826 694 824 q 678 829 683 828 q 574 856 631 846 q 454 867 518 867 q 278 826 349 867 q 207 708 207 786 q 239 626 207 657 q 324 578 271 596 q 439 545 376 560 q 564 513 501 531 q 679 465 626 494 q 764 385 732 435 q 796 257 796 336 q 752 117 796 179 q 628 21 708 56 q 440 -14 549 -14 m 282 1025 q 251 1038 264 1025 q 240 1067 239 1051 q 251 1093 240 1082 l 346 1190 q 369 1210 357 1201 q 401 1218 382 1218 l 454 1218 q 487 1210 474 1218 q 510 1190 500 1201 l 604 1093 q 615 1067 615 1082 q 604 1038 617 1051 q 574 1025 592 1025 q 549 1035 558 1025 l 428 1138 l 307 1035 q 282 1025 297 1025 z "},"Ș":{"ha":856,"x_min":71,"x_max":796,"o":"m 440 -14 q 253 6 336 -14 q 110 53 171 26 q 83 76 94 60 q 71 110 71 92 q 86 151 71 133 q 128 168 101 168 q 154 163 142 168 q 270 124 201 142 q 428 106 339 106 q 552 120 497 106 q 639 170 607 135 q 671 265 671 206 q 639 337 671 310 q 554 382 607 364 q 438 415 501 400 q 313 449 375 431 q 197 499 250 468 q 113 577 144 529 q 81 699 81 625 q 122 841 81 776 q 243 944 163 906 q 440 983 324 983 q 592 971 522 983 q 717 938 661 958 q 744 919 732 932 q 756 882 756 907 q 741 842 756 861 q 700 824 726 824 q 689 826 694 824 q 678 829 683 828 q 574 856 631 846 q 454 867 518 867 q 278 826 349 867 q 207 708 207 786 q 239 626 207 657 q 324 578 271 596 q 439 545 376 560 q 564 513 501 531 q 679 465 626 494 q 764 385 732 435 q 796 257 796 336 q 752 117 796 179 q 628 21 708 56 q 440 -14 549 -14 m 386 -365 q 365 -356 374 -365 q 356 -333 356 -347 q 372 -304 356 -314 q 415 -271 399 -289 q 432 -226 432 -253 q 383 -208 401 -226 q 364 -160 364 -189 q 384 -110 364 -131 q 433 -89 404 -89 q 484 -110 465 -89 q 503 -162 503 -131 l 503 -208 q 473 -303 503 -268 q 408 -358 443 -337 q 386 -365 397 -365 z "},"Ṡ":{"ha":856,"x_min":71,"x_max":796,"o":"m 440 -14 q 253 6 336 -14 q 110 53 171 26 q 83 76 94 60 q 71 110 71 92 q 86 151 71 133 q 128 168 101 168 q 154 163 142 168 q 270 124 201 142 q 428 106 339 106 q 552 120 497 106 q 639 170 607 135 q 671 265 671 206 q 639 337 671 310 q 554 382 607 364 q 438 415 501 400 q 313 449 375 431 q 197 499 250 468 q 113 577 144 529 q 81 699 81 625 q 122 841 81 776 q 243 944 163 906 q 440 983 324 983 q 592 971 522 983 q 717 938 661 958 q 744 919 732 932 q 756 882 756 907 q 741 842 756 861 q 700 824 726 824 q 689 826 694 824 q 678 829 683 828 q 574 856 631 846 q 454 867 518 867 q 278 826 349 867 q 207 708 207 786 q 239 626 207 657 q 324 578 271 596 q 439 545 376 560 q 564 513 501 531 q 679 465 626 494 q 764 385 732 435 q 796 257 796 336 q 752 117 796 179 q 628 21 708 56 q 440 -14 549 -14 m 428 1038 q 378 1058 399 1038 q 357 1108 357 1079 q 378 1158 357 1138 q 428 1179 399 1179 q 478 1158 457 1179 q 499 1108 499 1138 q 478 1058 499 1079 q 428 1038 457 1038 z "},"Ṣ":{"ha":856,"x_min":71,"x_max":796,"o":"m 440 -14 q 253 6 336 -14 q 110 53 171 26 q 83 76 94 60 q 71 110 71 92 q 86 151 71 133 q 128 168 101 168 q 154 163 142 168 q 270 124 201 142 q 428 106 339 106 q 552 120 497 106 q 639 170 607 135 q 671 265 671 206 q 639 337 671 310 q 554 382 607 364 q 438 415 501 400 q 313 449 375 431 q 197 499 250 468 q 113 577 144 529 q 81 699 81 625 q 122 841 81 776 q 243 944 163 906 q 440 983 324 983 q 592 971 522 983 q 717 938 661 958 q 744 919 732 932 q 756 882 756 907 q 741 842 756 861 q 700 824 726 824 q 689 826 694 824 q 678 829 683 828 q 574 856 631 846 q 454 867 518 867 q 278 826 349 867 q 207 708 207 786 q 239 626 207 657 q 324 578 271 596 q 439 545 376 560 q 564 513 501 531 q 679 465 626 494 q 764 385 732 435 q 796 257 796 336 q 752 117 796 179 q 628 21 708 56 q 440 -14 549 -14 m 428 -231 q 378 -210 399 -231 q 357 -160 357 -189 q 378 -110 357 -131 q 428 -89 399 -89 q 478 -110 457 -89 q 499 -160 499 -131 q 478 -210 499 -189 q 428 -231 457 -231 z "},"Ṩ":{"ha":856,"x_min":71,"x_max":796,"o":"m 440 -14 q 253 6 336 -14 q 110 53 171 26 q 83 76 94 60 q 71 110 71 92 q 86 151 71 133 q 128 168 101 168 q 154 163 142 168 q 270 124 201 142 q 428 106 339 106 q 552 120 497 106 q 639 170 607 135 q 671 265 671 206 q 639 337 671 310 q 554 382 607 364 q 438 415 501 400 q 313 449 375 431 q 197 499 250 468 q 113 577 144 529 q 81 699 81 625 q 122 841 81 776 q 243 944 163 906 q 440 983 324 983 q 592 971 522 983 q 717 938 661 958 q 744 919 732 932 q 756 882 756 907 q 741 842 756 861 q 700 824 726 824 q 689 826 694 824 q 678 829 683 828 q 574 856 631 846 q 454 867 518 867 q 278 826 349 867 q 207 708 207 786 q 239 626 207 657 q 324 578 271 596 q 439 545 376 560 q 564 513 501 531 q 679 465 626 494 q 764 385 732 435 q 796 257 796 336 q 752 117 796 179 q 628 21 708 56 q 440 -14 549 -14 m 428 -231 q 378 -210 399 -231 q 357 -160 357 -189 q 378 -110 357 -131 q 428 -89 399 -89 q 478 -110 457 -89 q 499 -160 499 -131 q 478 -210 499 -189 q 428 -231 457 -231 m 428 1038 q 378 1058 399 1038 q 357 1108 357 1079 q 378 1158 357 1138 q 428 1179 399 1179 q 478 1158 457 1179 q 499 1108 499 1138 q 478 1058 499 1079 q 428 1038 457 1038 z "},"ẞ":{"ha":956,"x_min":135,"x_max":883,"o":"m 589 -14 q 451 8 506 -14 q 361 53 397 31 q 333 101 333 71 q 349 139 333 121 q 386 157 364 157 q 417 149 401 157 q 489 117 453 129 q 589 104 525 104 q 718 158 675 104 q 761 292 761 211 q 698 424 761 385 q 515 464 635 464 q 474 479 489 464 q 458 517 458 494 q 485 576 458 546 l 639 747 q 667 807 667 779 q 652 839 667 826 q 610 851 638 851 l 311 851 q 276 837 292 851 q 261 801 261 822 l 261 56 q 242 11 261 29 q 197 -7 224 -7 q 153 11 171 -7 q 135 56 135 29 l 135 794 q 177 921 135 872 q 308 969 219 969 l 643 969 q 771 925 729 969 q 813 824 813 881 q 801 763 813 793 q 767 708 790 733 l 638 567 q 822 478 760 554 q 883 286 883 403 q 808 70 883 154 q 589 -14 732 -14 z "},"Ə":{"ha":1100,"x_min":76,"x_max":1024,"o":"m 550 -14 q 302 47 408 -14 q 136 218 196 108 q 76 471 76 328 q 96 523 76 503 q 142 543 115 543 l 894 543 q 838 707 883 635 q 714 821 793 779 q 522 863 635 863 q 367 845 433 863 q 243 797 300 828 q 218 792 232 792 q 176 808 192 792 q 163 847 161 825 q 172 878 164 867 q 193 897 179 890 q 341 959 258 935 q 533 983 424 983 q 785 923 674 983 q 960 751 896 863 q 1024 485 1024 640 q 961 226 1021 339 q 797 50 901 114 q 550 -14 692 -14 m 550 104 q 722 147 649 104 q 839 263 794 189 q 894 429 883 336 l 219 429 q 267 260 225 333 q 381 146 308 188 q 550 104 453 104 z "},"T":{"ha":846,"x_min":18,"x_max":828,"o":"m 422 -7 q 378 11 396 -7 q 360 56 360 29 l 360 851 l 76 851 q 35 868 51 851 q 18 910 18 885 q 35 952 18 935 q 76 969 51 969 l 768 969 q 810 952 793 969 q 828 910 828 935 q 810 868 828 885 q 768 851 793 851 l 486 851 l 486 56 q 467 11 486 29 q 422 -7 449 -7 z "},"Ŧ":{"ha":846,"x_min":18,"x_max":828,"o":"m 422 -7 q 378 11 396 -7 q 360 56 360 29 l 360 435 l 200 435 q 166 448 181 435 q 151 483 151 461 q 166 519 151 506 q 200 533 181 533 l 360 533 l 360 851 l 76 851 q 35 868 51 851 q 18 910 18 885 q 35 952 18 935 q 76 969 51 969 l 768 969 q 810 952 793 969 q 828 910 828 935 q 810 868 828 885 q 768 851 793 851 l 486 851 l 486 533 l 644 533 q 679 519 664 533 q 694 483 694 506 q 679 448 694 461 q 644 435 664 435 l 486 435 l 486 56 q 467 11 486 29 q 422 -7 449 -7 z "},"Ť":{"ha":846,"x_min":18,"x_max":828,"o":"m 422 -7 q 378 11 396 -7 q 360 56 360 29 l 360 851 l 76 851 q 35 868 51 851 q 18 910 18 885 q 35 952 18 935 q 76 969 51 969 l 768 969 q 810 952 793 969 q 828 910 828 935 q 810 868 828 885 q 768 851 793 851 l 486 851 l 486 56 q 467 11 486 29 q 422 -7 449 -7 m 397 1026 q 365 1035 378 1026 q 342 1054 353 1043 l 247 1151 q 236 1178 236 1163 q 247 1206 235 1193 q 278 1219 260 1219 q 303 1210 293 1219 l 424 1107 l 544 1210 q 569 1219 554 1219 q 600 1206 588 1219 q 611 1178 613 1193 q 600 1151 611 1163 l 506 1054 q 483 1035 496 1043 q 450 1026 469 1026 l 397 1026 z "},"Ţ":{"ha":846,"x_min":18,"x_max":828,"o":"m 422 -7 q 378 11 396 -7 q 360 56 360 29 l 360 851 l 76 851 q 35 868 51 851 q 18 910 18 885 q 35 952 18 935 q 76 969 51 969 l 768 969 q 810 952 793 969 q 828 910 828 935 q 810 868 828 885 q 768 851 793 851 l 486 851 l 486 56 q 467 11 486 29 q 422 -7 449 -7 m 406 -307 q 350 -300 383 -307 q 281 -271 317 -293 q 270 -261 275 -268 q 265 -247 265 -254 q 272 -228 265 -236 q 292 -219 278 -219 q 300 -221 296 -219 q 306 -224 304 -222 q 349 -242 329 -236 q 388 -247 369 -247 q 444 -233 421 -247 q 467 -183 467 -219 q 452 -151 467 -162 q 417 -140 438 -140 q 389 -143 403 -140 q 356 -156 375 -146 q 350 -158 354 -157 q 342 -160 346 -160 q 324 -153 332 -160 q 317 -137 317 -147 q 319 -126 317 -131 q 322 -118 321 -121 l 411 24 l 469 24 l 406 -87 q 453 -82 428 -82 q 530 -108 500 -82 q 560 -179 560 -135 q 519 -275 560 -243 q 406 -307 479 -307 z "},"Ț":{"ha":846,"x_min":18,"x_max":828,"o":"m 422 -7 q 378 11 396 -7 q 360 56 360 29 l 360 851 l 76 851 q 35 868 51 851 q 18 910 18 885 q 35 952 18 935 q 76 969 51 969 l 768 969 q 810 952 793 969 q 828 910 828 935 q 810 868 828 885 q 768 851 793 851 l 486 851 l 486 56 q 467 11 486 29 q 422 -7 449 -7 m 382 -365 q 360 -356 369 -365 q 351 -333 351 -347 q 368 -304 351 -314 q 411 -271 394 -289 q 428 -226 428 -253 q 378 -208 397 -226 q 360 -160 360 -189 q 380 -110 360 -131 q 429 -89 400 -89 q 480 -110 461 -89 q 499 -162 499 -131 l 499 -208 q 469 -303 499 -268 q 404 -358 439 -337 q 382 -365 393 -365 z "},"Ṭ":{"ha":846,"x_min":18,"x_max":828,"o":"m 422 -7 q 378 11 396 -7 q 360 56 360 29 l 360 851 l 76 851 q 35 868 51 851 q 18 910 18 885 q 35 952 18 935 q 76 969 51 969 l 768 969 q 810 952 793 969 q 828 910 828 935 q 810 868 828 885 q 768 851 793 851 l 486 851 l 486 56 q 467 11 486 29 q 422 -7 449 -7 m 424 -231 q 374 -210 394 -231 q 353 -160 353 -189 q 374 -110 353 -131 q 424 -89 394 -89 q 474 -110 453 -89 q 494 -160 494 -131 q 474 -210 494 -189 q 424 -231 453 -231 z "},"Ṯ":{"ha":846,"x_min":18,"x_max":828,"o":"m 422 -7 q 378 11 396 -7 q 360 56 360 29 l 360 851 l 76 851 q 35 868 51 851 q 18 910 18 885 q 35 952 18 935 q 76 969 51 969 l 768 969 q 810 952 793 969 q 828 910 828 935 q 810 868 828 885 q 768 851 793 851 l 486 851 l 486 56 q 467 11 486 29 q 422 -7 449 -7 m 261 -190 q 231 -178 243 -190 q 219 -149 219 -167 q 231 -119 219 -131 q 261 -107 243 -107 l 586 -107 q 616 -119 604 -107 q 628 -149 628 -131 q 616 -178 628 -167 q 586 -190 604 -190 l 261 -190 z "},"U":{"ha":1053,"x_min":128,"x_max":925,"o":"m 526 -14 q 386 8 457 -14 q 257 77 315 31 q 163 195 199 124 q 128 364 128 267 l 128 913 q 146 958 128 939 q 190 976 164 976 q 235 958 217 976 q 254 913 254 939 l 254 360 q 294 216 254 274 q 396 130 333 158 q 526 101 458 101 q 657 130 594 101 q 759 216 719 158 q 799 360 799 274 l 799 913 q 817 958 799 939 q 861 976 835 976 q 906 958 888 976 q 925 913 925 939 l 925 364 q 890 195 925 267 q 796 77 854 124 q 667 8 738 31 q 526 -14 596 -14 z "},"Ú":{"ha":1053,"x_min":128,"x_max":925,"o":"m 526 -14 q 386 8 457 -14 q 257 77 315 31 q 163 195 199 124 q 128 364 128 267 l 128 913 q 146 958 128 939 q 190 976 164 976 q 235 958 217 976 q 254 913 254 939 l 254 360 q 294 216 254 274 q 396 130 333 158 q 526 101 458 101 q 657 130 594 101 q 759 216 719 158 q 799 360 799 274 l 799 913 q 817 958 799 939 q 861 976 835 976 q 906 958 888 976 q 925 913 925 939 l 925 364 q 890 195 925 267 q 796 77 854 124 q 667 8 738 31 q 526 -14 596 -14 m 526 1026 q 499 1037 510 1026 q 489 1064 489 1047 q 493 1080 489 1072 q 499 1090 497 1088 l 569 1215 q 587 1234 576 1226 q 615 1242 597 1242 q 653 1228 639 1242 q 667 1190 667 1214 q 653 1156 667 1171 l 557 1042 q 526 1026 544 1026 z "},"Ŭ":{"ha":1053,"x_min":128,"x_max":925,"o":"m 526 -14 q 386 8 457 -14 q 257 77 315 31 q 163 195 199 124 q 128 364 128 267 l 128 913 q 146 958 128 939 q 190 976 164 976 q 235 958 217 976 q 254 913 254 939 l 254 360 q 294 216 254 274 q 396 130 333 158 q 526 101 458 101 q 657 130 594 101 q 759 216 719 158 q 799 360 799 274 l 799 913 q 817 958 799 939 q 861 976 835 976 q 906 958 888 976 q 925 913 925 939 l 925 364 q 890 195 925 267 q 796 77 854 124 q 667 8 738 31 q 526 -14 596 -14 m 526 1039 q 409 1069 460 1039 q 332 1151 358 1100 q 328 1171 328 1160 q 340 1201 328 1189 q 371 1214 351 1214 q 410 1188 397 1214 q 456 1138 425 1157 q 526 1119 486 1119 q 598 1138 567 1119 q 643 1188 629 1157 q 682 1214 656 1214 q 713 1201 701 1214 q 725 1171 725 1189 q 721 1151 725 1160 q 644 1069 694 1100 q 526 1039 593 1039 z "},"Û":{"ha":1053,"x_min":128,"x_max":925,"o":"m 526 -14 q 386 8 457 -14 q 257 77 315 31 q 163 195 199 124 q 128 364 128 267 l 128 913 q 146 958 128 939 q 190 976 164 976 q 235 958 217 976 q 254 913 254 939 l 254 360 q 294 216 254 274 q 396 130 333 158 q 526 101 458 101 q 657 130 594 101 q 759 216 719 158 q 799 360 799 274 l 799 913 q 817 958 799 939 q 861 976 835 976 q 906 958 888 976 q 925 913 925 939 l 925 364 q 890 195 925 267 q 796 77 854 124 q 667 8 738 31 q 526 -14 596 -14 m 381 1025 q 350 1038 363 1025 q 339 1067 338 1051 q 350 1093 339 1082 l 444 1190 q 468 1210 456 1201 q 500 1218 481 1218 l 553 1218 q 585 1210 572 1218 q 608 1190 599 1201 l 703 1093 q 714 1067 714 1082 q 703 1038 715 1051 q 672 1025 690 1025 q 647 1035 657 1025 l 526 1138 l 406 1035 q 381 1025 396 1025 z "},"Ȕ":{"ha":1053,"x_min":128,"x_max":925,"o":"m 526 -14 q 386 8 457 -14 q 257 77 315 31 q 163 195 199 124 q 128 364 128 267 l 128 913 q 146 958 128 939 q 190 976 164 976 q 235 958 217 976 q 254 913 254 939 l 254 360 q 294 216 254 274 q 396 130 333 158 q 526 101 458 101 q 657 130 594 101 q 759 216 719 158 q 799 360 799 274 l 799 913 q 817 958 799 939 q 861 976 835 976 q 906 958 888 976 q 925 913 925 939 l 925 364 q 890 195 925 267 q 796 77 854 124 q 667 8 738 31 q 526 -14 596 -14 m 633 1026 q 606 1037 617 1026 q 596 1064 596 1047 q 600 1080 596 1072 q 606 1090 604 1088 l 676 1215 q 694 1234 683 1226 q 722 1242 704 1242 q 760 1228 746 1242 q 774 1190 774 1214 q 760 1156 774 1171 l 664 1042 q 633 1026 651 1026 m 419 1026 q 392 1037 403 1026 q 382 1064 382 1047 q 386 1080 382 1072 q 392 1090 390 1088 l 463 1215 q 480 1234 469 1226 q 508 1242 490 1242 q 546 1228 532 1242 q 560 1190 560 1214 q 546 1156 560 1171 l 450 1042 q 419 1026 438 1026 z "},"Ü":{"ha":1053,"x_min":128,"x_max":925,"o":"m 526 -14 q 386 8 457 -14 q 257 77 315 31 q 163 195 199 124 q 128 364 128 267 l 128 913 q 146 958 128 939 q 190 976 164 976 q 235 958 217 976 q 254 913 254 939 l 254 360 q 294 216 254 274 q 396 130 333 158 q 526 101 458 101 q 657 130 594 101 q 759 216 719 158 q 799 360 799 274 l 799 913 q 817 958 799 939 q 861 976 835 976 q 906 958 888 976 q 925 913 925 939 l 925 364 q 890 195 925 267 q 796 77 854 124 q 667 8 738 31 q 526 -14 596 -14 m 643 1038 q 593 1058 614 1038 q 572 1108 572 1079 q 593 1158 572 1138 q 643 1179 614 1179 q 693 1158 672 1179 q 714 1108 714 1138 q 693 1058 714 1079 q 643 1038 672 1038 m 410 1038 q 360 1058 381 1038 q 339 1108 339 1079 q 360 1158 339 1138 q 410 1179 381 1179 q 460 1158 439 1179 q 481 1108 481 1138 q 460 1058 481 1079 q 410 1038 439 1038 z "},"Ụ":{"ha":1053,"x_min":128,"x_max":925,"o":"m 526 -14 q 386 8 457 -14 q 257 77 315 31 q 163 195 199 124 q 128 364 128 267 l 128 913 q 146 958 128 939 q 190 976 164 976 q 235 958 217 976 q 254 913 254 939 l 254 360 q 294 216 254 274 q 396 130 333 158 q 526 101 458 101 q 657 130 594 101 q 759 216 719 158 q 799 360 799 274 l 799 913 q 817 958 799 939 q 861 976 835 976 q 906 958 888 976 q 925 913 925 939 l 925 364 q 890 195 925 267 q 796 77 854 124 q 667 8 738 31 q 526 -14 596 -14 m 526 -231 q 476 -210 497 -231 q 456 -160 456 -189 q 476 -110 456 -131 q 526 -89 497 -89 q 576 -110 556 -89 q 597 -160 597 -131 q 576 -210 597 -189 q 526 -231 556 -231 z "},"Ù":{"ha":1053,"x_min":128,"x_max":925,"o":"m 526 -14 q 386 8 457 -14 q 257 77 315 31 q 163 195 199 124 q 128 364 128 267 l 128 913 q 146 958 128 939 q 190 976 164 976 q 235 958 217 976 q 254 913 254 939 l 254 360 q 294 216 254 274 q 396 130 333 158 q 526 101 458 101 q 657 130 594 101 q 759 216 719 158 q 799 360 799 274 l 799 913 q 817 958 799 939 q 861 976 835 976 q 906 958 888 976 q 925 913 925 939 l 925 364 q 890 195 925 267 q 796 77 854 124 q 667 8 738 31 q 526 -14 596 -14 m 526 1026 q 496 1042 508 1026 l 400 1156 q 386 1190 386 1171 q 401 1228 386 1214 q 438 1242 415 1242 q 467 1234 456 1242 q 483 1215 478 1226 l 554 1090 q 560 1080 557 1088 q 564 1064 564 1072 q 553 1037 564 1047 q 526 1026 543 1026 z "},"Ủ":{"ha":1053,"x_min":128,"x_max":925,"o":"m 526 -14 q 386 8 457 -14 q 257 77 315 31 q 163 195 199 124 q 128 364 128 267 l 128 913 q 146 958 128 939 q 190 976 164 976 q 235 958 217 976 q 254 913 254 939 l 254 360 q 294 216 254 274 q 396 130 333 158 q 526 101 458 101 q 657 130 594 101 q 759 216 719 158 q 799 360 799 274 l 799 913 q 817 958 799 939 q 861 976 835 976 q 906 958 888 976 q 925 913 925 939 l 925 364 q 890 195 925 267 q 796 77 854 124 q 667 8 738 31 q 526 -14 596 -14 m 517 1025 q 495 1033 506 1025 q 485 1054 485 1040 q 499 1095 485 1079 q 533 1122 514 1111 q 567 1147 553 1133 q 582 1178 582 1160 q 568 1203 582 1196 q 533 1211 554 1211 q 473 1199 493 1211 q 440 1186 453 1186 q 419 1196 426 1186 q 411 1215 411 1206 q 426 1242 411 1232 q 479 1263 450 1257 q 533 1269 508 1269 q 617 1244 588 1269 q 647 1179 647 1219 q 635 1132 647 1150 q 605 1102 622 1114 q 572 1078 588 1090 q 549 1046 556 1065 q 517 1025 540 1025 z "},"Ư":{"ha":1060,"x_min":128,"x_max":1138,"o":"m 526 -14 q 386 8 457 -14 q 257 77 315 31 q 163 195 199 124 q 128 364 128 267 l 128 913 q 146 958 128 939 q 190 976 164 976 q 235 958 217 976 q 254 913 254 939 l 254 360 q 294 216 254 274 q 396 130 333 158 q 526 101 458 101 q 657 130 594 101 q 759 216 719 158 q 799 360 799 274 l 799 913 q 817 958 799 939 q 861 976 835 976 q 897 973 881 976 q 939 969 914 969 q 1008 995 983 969 q 1032 1068 1032 1021 q 1027 1108 1032 1092 q 1022 1139 1022 1124 q 1036 1172 1022 1158 q 1068 1185 1050 1185 q 1119 1148 1100 1185 q 1138 1046 1138 1111 q 1117 960 1138 1000 q 1053 894 1096 919 q 942 869 1010 869 l 925 869 l 925 364 q 890 195 925 267 q 796 77 854 124 q 667 8 738 31 q 526 -14 596 -14 z "},"Ứ":{"ha":1060,"x_min":128,"x_max":1138,"o":"m 526 -14 q 386 8 457 -14 q 257 77 315 31 q 163 195 199 124 q 128 364 128 267 l 128 913 q 146 958 128 939 q 190 976 164 976 q 235 958 217 976 q 254 913 254 939 l 254 360 q 294 216 254 274 q 396 130 333 158 q 526 101 458 101 q 657 130 594 101 q 759 216 719 158 q 799 360 799 274 l 799 913 q 817 958 799 939 q 861 976 835 976 q 897 973 881 976 q 939 969 914 969 q 1008 995 983 969 q 1032 1068 1032 1021 q 1027 1108 1032 1092 q 1022 1139 1022 1124 q 1036 1172 1022 1158 q 1068 1185 1050 1185 q 1119 1148 1100 1185 q 1138 1046 1138 1111 q 1117 960 1138 1000 q 1053 894 1096 919 q 942 869 1010 869 l 925 869 l 925 364 q 890 195 925 267 q 796 77 854 124 q 667 8 738 31 q 526 -14 596 -14 m 526 1026 q 499 1037 510 1026 q 489 1064 489 1047 q 493 1080 489 1072 q 499 1090 497 1088 l 569 1215 q 587 1234 576 1226 q 615 1242 597 1242 q 653 1228 639 1242 q 667 1190 667 1214 q 653 1156 667 1171 l 557 1042 q 526 1026 544 1026 z "},"Ự":{"ha":1060,"x_min":128,"x_max":1138,"o":"m 526 -14 q 386 8 457 -14 q 257 77 315 31 q 163 195 199 124 q 128 364 128 267 l 128 913 q 146 958 128 939 q 190 976 164 976 q 235 958 217 976 q 254 913 254 939 l 254 360 q 294 216 254 274 q 396 130 333 158 q 526 101 458 101 q 657 130 594 101 q 759 216 719 158 q 799 360 799 274 l 799 913 q 817 958 799 939 q 861 976 835 976 q 897 973 881 976 q 939 969 914 969 q 1008 995 983 969 q 1032 1068 1032 1021 q 1027 1108 1032 1092 q 1022 1139 1022 1124 q 1036 1172 1022 1158 q 1068 1185 1050 1185 q 1119 1148 1100 1185 q 1138 1046 1138 1111 q 1117 960 1138 1000 q 1053 894 1096 919 q 942 869 1010 869 l 925 869 l 925 364 q 890 195 925 267 q 796 77 854 124 q 667 8 738 31 q 526 -14 596 -14 m 526 -231 q 476 -210 497 -231 q 456 -160 456 -189 q 476 -110 456 -131 q 526 -89 497 -89 q 576 -110 556 -89 q 597 -160 597 -131 q 576 -210 597 -189 q 526 -231 556 -231 z "},"Ừ":{"ha":1060,"x_min":128,"x_max":1138,"o":"m 526 -14 q 386 8 457 -14 q 257 77 315 31 q 163 195 199 124 q 128 364 128 267 l 128 913 q 146 958 128 939 q 190 976 164 976 q 235 958 217 976 q 254 913 254 939 l 254 360 q 294 216 254 274 q 396 130 333 158 q 526 101 458 101 q 657 130 594 101 q 759 216 719 158 q 799 360 799 274 l 799 913 q 817 958 799 939 q 861 976 835 976 q 897 973 881 976 q 939 969 914 969 q 1008 995 983 969 q 1032 1068 1032 1021 q 1027 1108 1032 1092 q 1022 1139 1022 1124 q 1036 1172 1022 1158 q 1068 1185 1050 1185 q 1119 1148 1100 1185 q 1138 1046 1138 1111 q 1117 960 1138 1000 q 1053 894 1096 919 q 942 869 1010 869 l 925 869 l 925 364 q 890 195 925 267 q 796 77 854 124 q 667 8 738 31 q 526 -14 596 -14 m 526 1026 q 496 1042 508 1026 l 400 1156 q 386 1190 386 1171 q 401 1228 386 1214 q 438 1242 415 1242 q 467 1234 456 1242 q 483 1215 478 1226 l 554 1090 q 560 1080 557 1088 q 564 1064 564 1072 q 553 1037 564 1047 q 526 1026 543 1026 z "},"Ử":{"ha":1060,"x_min":128,"x_max":1138,"o":"m 526 -14 q 386 8 457 -14 q 257 77 315 31 q 163 195 199 124 q 128 364 128 267 l 128 913 q 146 958 128 939 q 190 976 164 976 q 235 958 217 976 q 254 913 254 939 l 254 360 q 294 216 254 274 q 396 130 333 158 q 526 101 458 101 q 657 130 594 101 q 759 216 719 158 q 799 360 799 274 l 799 913 q 817 958 799 939 q 861 976 835 976 q 897 973 881 976 q 939 969 914 969 q 1008 995 983 969 q 1032 1068 1032 1021 q 1027 1108 1032 1092 q 1022 1139 1022 1124 q 1036 1172 1022 1158 q 1068 1185 1050 1185 q 1119 1148 1100 1185 q 1138 1046 1138 1111 q 1117 960 1138 1000 q 1053 894 1096 919 q 942 869 1010 869 l 925 869 l 925 364 q 890 195 925 267 q 796 77 854 124 q 667 8 738 31 q 526 -14 596 -14 m 517 1025 q 495 1033 506 1025 q 485 1054 485 1040 q 499 1095 485 1079 q 533 1122 514 1111 q 567 1147 553 1133 q 582 1178 582 1160 q 568 1203 582 1196 q 533 1211 554 1211 q 473 1199 493 1211 q 440 1186 453 1186 q 419 1196 426 1186 q 411 1215 411 1206 q 426 1242 411 1232 q 479 1263 450 1257 q 533 1269 508 1269 q 617 1244 588 1269 q 647 1179 647 1219 q 635 1132 647 1150 q 605 1102 622 1114 q 572 1078 588 1090 q 549 1046 556 1065 q 517 1025 540 1025 z "},"Ữ":{"ha":1060,"x_min":128,"x_max":1138,"o":"m 526 -14 q 386 8 457 -14 q 257 77 315 31 q 163 195 199 124 q 128 364 128 267 l 128 913 q 146 958 128 939 q 190 976 164 976 q 235 958 217 976 q 254 913 254 939 l 254 360 q 294 216 254 274 q 396 130 333 158 q 526 101 458 101 q 657 130 594 101 q 759 216 719 158 q 799 360 799 274 l 799 913 q 817 958 799 939 q 861 976 835 976 q 897 973 881 976 q 939 969 914 969 q 1008 995 983 969 q 1032 1068 1032 1021 q 1027 1108 1032 1092 q 1022 1139 1022 1124 q 1036 1172 1022 1158 q 1068 1185 1050 1185 q 1119 1148 1100 1185 q 1138 1046 1138 1111 q 1117 960 1138 1000 q 1053 894 1096 919 q 942 869 1010 869 l 925 869 l 925 364 q 890 195 925 267 q 796 77 854 124 q 667 8 738 31 q 526 -14 596 -14 m 335 1032 q 313 1041 322 1032 q 303 1064 303 1050 q 317 1122 303 1092 q 357 1174 331 1153 q 419 1196 383 1196 q 494 1180 460 1196 q 563 1147 529 1164 q 633 1131 596 1131 q 667 1140 656 1131 q 685 1168 679 1150 q 697 1188 689 1179 q 719 1197 704 1197 q 742 1188 735 1197 q 751 1167 750 1179 q 737 1107 751 1138 q 696 1056 722 1076 q 635 1035 669 1035 q 558 1051 593 1035 q 490 1085 524 1068 q 421 1101 457 1101 q 388 1089 400 1101 q 367 1057 375 1076 q 356 1040 364 1047 q 335 1032 349 1032 z "},"Ű":{"ha":1053,"x_min":128,"x_max":925,"o":"m 526 -14 q 386 8 457 -14 q 257 77 315 31 q 163 195 199 124 q 128 364 128 267 l 128 913 q 146 958 128 939 q 190 976 164 976 q 235 958 217 976 q 254 913 254 939 l 254 360 q 294 216 254 274 q 396 130 333 158 q 526 101 458 101 q 657 130 594 101 q 759 216 719 158 q 799 360 799 274 l 799 913 q 817 958 799 939 q 861 976 835 976 q 906 958 888 976 q 925 913 925 939 l 925 364 q 890 195 925 267 q 796 77 854 124 q 667 8 738 31 q 526 -14 596 -14 m 606 1026 q 580 1036 592 1026 q 568 1061 568 1046 q 569 1072 568 1068 l 607 1197 q 629 1230 614 1219 q 660 1240 644 1240 q 694 1228 679 1240 q 708 1194 708 1217 q 699 1160 708 1178 l 642 1050 q 606 1026 631 1026 m 444 1026 q 419 1036 431 1026 q 407 1061 407 1046 q 408 1072 407 1068 l 446 1197 q 468 1230 453 1219 q 499 1240 483 1240 q 533 1228 518 1240 q 547 1194 547 1217 q 538 1160 547 1178 l 481 1050 q 444 1026 469 1026 z "},"Ȗ":{"ha":1053,"x_min":128,"x_max":925,"o":"m 526 -14 q 386 8 457 -14 q 257 77 315 31 q 163 195 199 124 q 128 364 128 267 l 128 913 q 146 958 128 939 q 190 976 164 976 q 235 958 217 976 q 254 913 254 939 l 254 360 q 294 216 254 274 q 396 130 333 158 q 526 101 458 101 q 657 130 594 101 q 759 216 719 158 q 799 360 799 274 l 799 913 q 817 958 799 939 q 861 976 835 976 q 906 958 888 976 q 925 913 925 939 l 925 364 q 890 195 925 267 q 796 77 854 124 q 667 8 738 31 q 526 -14 596 -14 m 371 1026 q 340 1039 351 1026 q 328 1069 328 1051 q 332 1089 328 1081 q 409 1171 358 1140 q 526 1201 460 1201 q 644 1171 593 1201 q 721 1089 694 1140 q 725 1069 725 1081 q 713 1039 725 1051 q 682 1026 701 1026 q 643 1053 656 1026 q 598 1103 629 1085 q 526 1121 567 1121 q 456 1103 486 1121 q 410 1053 425 1085 q 371 1026 397 1026 z "},"Ū":{"ha":1053,"x_min":128,"x_max":925,"o":"m 526 -14 q 386 8 457 -14 q 257 77 315 31 q 163 195 199 124 q 128 364 128 267 l 128 913 q 146 958 128 939 q 190 976 164 976 q 235 958 217 976 q 254 913 254 939 l 254 360 q 294 216 254 274 q 396 130 333 158 q 526 101 458 101 q 657 130 594 101 q 759 216 719 158 q 799 360 799 274 l 799 913 q 817 958 799 939 q 861 976 835 976 q 906 958 888 976 q 925 913 925 939 l 925 364 q 890 195 925 267 q 796 77 854 124 q 667 8 738 31 q 526 -14 596 -14 m 364 1056 q 334 1067 346 1056 q 322 1097 322 1079 q 334 1127 322 1115 q 364 1139 346 1139 l 689 1139 q 719 1127 707 1139 q 731 1097 731 1115 q 719 1067 731 1079 q 689 1056 707 1056 l 364 1056 z "},"Ṻ":{"ha":1053,"x_min":128,"x_max":925,"o":"m 526 -14 q 386 8 457 -14 q 257 77 315 31 q 163 195 199 124 q 128 364 128 267 l 128 913 q 146 958 128 939 q 190 976 164 976 q 235 958 217 976 q 254 913 254 939 l 254 360 q 294 216 254 274 q 396 130 333 158 q 526 101 458 101 q 657 130 594 101 q 759 216 719 158 q 799 360 799 274 l 799 913 q 817 958 799 939 q 861 976 835 976 q 906 958 888 976 q 925 913 925 939 l 925 364 q 890 195 925 267 q 796 77 854 124 q 667 8 738 31 q 526 -14 596 -14 m 364 1056 q 334 1067 346 1056 q 322 1097 322 1079 q 334 1127 322 1115 q 364 1139 346 1139 l 689 1139 q 719 1127 707 1139 q 731 1097 731 1115 q 719 1067 731 1079 q 689 1056 707 1056 l 364 1056 m 643 1206 q 593 1226 614 1206 q 572 1276 572 1247 q 593 1326 572 1306 q 643 1347 614 1347 q 693 1326 672 1347 q 714 1276 714 1306 q 693 1226 714 1247 q 643 1206 672 1206 m 410 1206 q 360 1226 381 1206 q 339 1276 339 1247 q 360 1326 339 1306 q 410 1347 381 1347 q 460 1326 439 1347 q 481 1276 481 1306 q 460 1226 481 1247 q 410 1206 439 1206 z "},"Ų":{"ha":1053,"x_min":128,"x_max":925,"o":"m 553 -282 q 463 -251 503 -282 q 424 -165 424 -221 q 452 -76 424 -112 q 519 -14 481 -40 q 381 10 450 -12 q 254 79 311 33 q 163 196 197 125 q 128 364 128 267 l 128 913 q 146 958 128 939 q 190 976 164 976 q 235 958 217 976 q 254 913 254 939 l 254 360 q 294 216 254 274 q 396 130 333 158 q 526 101 458 101 q 657 130 594 101 q 759 216 719 158 q 799 360 799 274 l 799 913 q 817 958 799 939 q 861 976 835 976 q 906 958 888 976 q 925 913 925 939 l 925 364 q 892 201 925 271 q 806 86 860 132 q 686 15 751 40 q 613 -22 650 3 q 550 -76 575 -46 q 525 -139 525 -107 q 542 -187 526 -169 q 596 -204 558 -204 q 623 -201 611 -204 q 644 -196 635 -199 q 657 -193 653 -193 q 688 -224 688 -193 q 672 -249 688 -237 q 621 -273 650 -264 q 553 -282 592 -282 z "},"Ů":{"ha":1053,"x_min":128,"x_max":925,"o":"m 526 -14 q 386 8 457 -14 q 257 77 315 31 q 163 195 199 124 q 128 364 128 267 l 128 913 q 146 958 128 939 q 190 976 164 976 q 235 958 217 976 q 254 913 254 939 l 254 360 q 294 216 254 274 q 396 130 333 158 q 526 101 458 101 q 657 130 594 101 q 759 216 719 158 q 799 360 799 274 l 799 913 q 817 958 799 939 q 861 976 835 976 q 906 958 888 976 q 925 913 925 939 l 925 364 q 890 195 925 267 q 796 77 854 124 q 667 8 738 31 q 526 -14 596 -14 m 526 1004 q 434 1042 472 1004 q 396 1135 396 1081 q 434 1227 396 1189 q 526 1265 472 1265 q 619 1227 581 1265 q 657 1135 657 1189 q 619 1042 657 1081 q 526 1004 581 1004 m 526 1067 q 574 1087 554 1067 q 594 1135 594 1107 q 574 1183 594 1163 q 526 1203 554 1203 q 478 1183 499 1203 q 458 1135 458 1163 q 478 1087 458 1107 q 526 1067 499 1067 z "},"Ũ":{"ha":1053,"x_min":128,"x_max":925,"o":"m 526 -14 q 386 8 457 -14 q 257 77 315 31 q 163 195 199 124 q 128 364 128 267 l 128 913 q 146 958 128 939 q 190 976 164 976 q 235 958 217 976 q 254 913 254 939 l 254 360 q 294 216 254 274 q 396 130 333 158 q 526 101 458 101 q 657 130 594 101 q 759 216 719 158 q 799 360 799 274 l 799 913 q 817 958 799 939 q 861 976 835 976 q 906 958 888 976 q 925 913 925 939 l 925 364 q 890 195 925 267 q 796 77 854 124 q 667 8 738 31 q 526 -14 596 -14 m 335 1032 q 313 1041 322 1032 q 303 1064 303 1050 q 317 1122 303 1092 q 357 1174 331 1153 q 419 1196 383 1196 q 494 1180 460 1196 q 563 1147 529 1164 q 633 1131 596 1131 q 667 1140 656 1131 q 685 1168 679 1150 q 697 1188 689 1179 q 719 1197 704 1197 q 742 1188 735 1197 q 751 1167 750 1179 q 737 1107 751 1138 q 696 1056 722 1076 q 635 1035 669 1035 q 558 1051 593 1035 q 490 1085 524 1068 q 421 1101 457 1101 q 388 1089 400 1101 q 367 1057 375 1076 q 356 1040 364 1047 q 335 1032 349 1032 z "},"Ṹ":{"ha":1053,"x_min":128,"x_max":925,"o":"m 526 -14 q 386 8 457 -14 q 257 77 315 31 q 163 195 199 124 q 128 364 128 267 l 128 913 q 146 958 128 939 q 190 976 164 976 q 235 958 217 976 q 254 913 254 939 l 254 360 q 294 216 254 274 q 396 130 333 158 q 526 101 458 101 q 657 130 594 101 q 759 216 719 158 q 799 360 799 274 l 799 913 q 817 958 799 939 q 861 976 835 976 q 906 958 888 976 q 925 913 925 939 l 925 364 q 890 195 925 267 q 796 77 854 124 q 667 8 738 31 q 526 -14 596 -14 m 335 1032 q 313 1041 322 1032 q 303 1064 303 1050 q 317 1122 303 1092 q 357 1174 331 1153 q 419 1196 383 1196 q 494 1180 460 1196 q 563 1147 529 1164 q 633 1131 596 1131 q 667 1140 656 1131 q 685 1168 679 1150 q 697 1188 689 1179 q 719 1197 704 1197 q 742 1188 735 1197 q 751 1167 750 1179 q 737 1107 751 1138 q 696 1056 722 1076 q 635 1035 669 1035 q 558 1051 593 1035 q 490 1085 524 1068 q 421 1101 457 1101 q 388 1089 400 1101 q 367 1057 375 1076 q 356 1040 364 1047 q 335 1032 349 1032 m 526 1208 q 499 1219 510 1208 q 489 1246 489 1229 q 493 1262 489 1254 q 499 1272 497 1269 l 569 1397 q 587 1416 576 1408 q 615 1424 597 1424 q 653 1410 639 1424 q 667 1372 667 1396 q 653 1338 667 1353 l 557 1224 q 526 1208 544 1208 z "},"V":{"ha":964,"x_min":33,"x_max":931,"o":"m 467 -7 q 381 57 410 -7 l 38 889 q 33 913 33 900 q 50 958 33 940 q 96 976 67 976 q 156 933 138 976 l 482 119 l 808 933 q 868 976 826 976 q 914 958 897 976 q 931 913 931 940 q 926 889 931 900 l 583 57 q 497 -7 554 -7 l 467 -7 z "},"W":{"ha":1404,"x_min":38,"x_max":1369,"o":"m 397 -7 q 349 8 371 -7 q 315 56 326 24 l 43 892 q 39 915 39 907 q 56 959 38 942 q 100 976 74 976 q 140 963 124 976 q 163 926 157 949 l 396 160 l 631 924 q 658 962 638 947 q 703 976 678 976 q 748 962 728 976 q 775 924 768 947 l 1010 160 l 1243 926 q 1267 963 1250 949 q 1306 976 1283 976 q 1351 959 1333 976 q 1367 915 1369 942 q 1363 892 1367 907 l 1090 56 q 1057 8 1079 24 q 1008 -7 1035 -7 q 958 11 981 -7 q 926 56 935 29 l 703 764 l 479 56 q 448 11 471 29 q 397 -7 425 -7 z "},"Ẃ":{"ha":1404,"x_min":38,"x_max":1369,"o":"m 397 -7 q 349 8 371 -7 q 315 56 326 24 l 43 892 q 39 915 39 907 q 56 959 38 942 q 100 976 74 976 q 140 963 124 976 q 163 926 157 949 l 396 160 l 631 924 q 658 962 638 947 q 703 976 678 976 q 748 962 728 976 q 775 924 768 947 l 1010 160 l 1243 926 q 1267 963 1250 949 q 1306 976 1283 976 q 1351 959 1333 976 q 1367 915 1369 942 q 1363 892 1367 907 l 1090 56 q 1057 8 1079 24 q 1008 -7 1035 -7 q 958 11 981 -7 q 926 56 935 29 l 703 764 l 479 56 q 448 11 471 29 q 397 -7 425 -7 m 703 1026 q 676 1037 686 1026 q 665 1064 665 1047 q 669 1080 665 1072 q 675 1090 674 1088 l 746 1215 q 763 1234 753 1226 q 792 1242 774 1242 q 829 1228 815 1242 q 843 1190 843 1214 q 829 1156 843 1171 l 733 1042 q 703 1026 721 1026 z "},"Ŵ":{"ha":1404,"x_min":38,"x_max":1369,"o":"m 397 -7 q 349 8 371 -7 q 315 56 326 24 l 43 892 q 39 915 39 907 q 56 959 38 942 q 100 976 74 976 q 140 963 124 976 q 163 926 157 949 l 396 160 l 631 924 q 658 962 638 947 q 703 976 678 976 q 748 962 728 976 q 775 924 768 947 l 1010 160 l 1243 926 q 1267 963 1250 949 q 1306 976 1283 976 q 1351 959 1333 976 q 1367 915 1369 942 q 1363 892 1367 907 l 1090 56 q 1057 8 1079 24 q 1008 -7 1035 -7 q 958 11 981 -7 q 926 56 935 29 l 703 764 l 479 56 q 448 11 471 29 q 397 -7 425 -7 m 557 1025 q 526 1038 539 1025 q 515 1067 514 1051 q 526 1093 515 1082 l 621 1190 q 644 1210 632 1201 q 676 1218 657 1218 l 729 1218 q 762 1210 749 1218 q 785 1190 775 1201 l 879 1093 q 890 1067 890 1082 q 879 1038 892 1051 q 849 1025 867 1025 q 824 1035 833 1025 l 703 1138 l 582 1035 q 557 1025 572 1025 z "},"Ẅ":{"ha":1404,"x_min":38,"x_max":1369,"o":"m 397 -7 q 349 8 371 -7 q 315 56 326 24 l 43 892 q 39 915 39 907 q 56 959 38 942 q 100 976 74 976 q 140 963 124 976 q 163 926 157 949 l 396 160 l 631 924 q 658 962 638 947 q 703 976 678 976 q 748 962 728 976 q 775 924 768 947 l 1010 160 l 1243 926 q 1267 963 1250 949 q 1306 976 1283 976 q 1351 959 1333 976 q 1367 915 1369 942 q 1363 892 1367 907 l 1090 56 q 1057 8 1079 24 q 1008 -7 1035 -7 q 958 11 981 -7 q 926 56 935 29 l 703 764 l 479 56 q 448 11 471 29 q 397 -7 425 -7 m 819 1038 q 769 1058 790 1038 q 749 1108 749 1079 q 769 1158 749 1138 q 819 1179 790 1179 q 869 1158 849 1179 q 890 1108 890 1138 q 869 1058 890 1079 q 819 1038 849 1038 m 586 1038 q 536 1058 557 1038 q 515 1108 515 1079 q 536 1158 515 1138 q 586 1179 557 1179 q 636 1158 615 1179 q 657 1108 657 1138 q 636 1058 657 1079 q 586 1038 615 1038 z "},"Ẁ":{"ha":1404,"x_min":38,"x_max":1369,"o":"m 397 -7 q 349 8 371 -7 q 315 56 326 24 l 43 892 q 39 915 39 907 q 56 959 38 942 q 100 976 74 976 q 140 963 124 976 q 163 926 157 949 l 396 160 l 631 924 q 658 962 638 947 q 703 976 678 976 q 748 962 728 976 q 775 924 768 947 l 1010 160 l 1243 926 q 1267 963 1250 949 q 1306 976 1283 976 q 1351 959 1333 976 q 1367 915 1369 942 q 1363 892 1367 907 l 1090 56 q 1057 8 1079 24 q 1008 -7 1035 -7 q 958 11 981 -7 q 926 56 935 29 l 703 764 l 479 56 q 448 11 471 29 q 397 -7 425 -7 m 703 1026 q 672 1042 685 1026 l 576 1156 q 563 1190 563 1171 q 577 1228 563 1214 q 614 1242 592 1242 q 643 1234 632 1242 q 660 1215 654 1226 l 731 1090 q 737 1080 733 1088 q 740 1064 740 1072 q 730 1037 740 1047 q 703 1026 719 1026 z "},"X":{"ha":932,"x_min":61,"x_max":871,"o":"m 119 -7 q 78 10 96 -7 q 61 51 61 28 q 74 90 61 74 l 394 485 l 76 876 q 64 915 64 893 q 81 959 64 942 q 125 976 99 976 q 176 951 158 976 l 469 579 l 763 954 q 808 976 778 976 q 851 959 833 976 q 869 917 869 942 q 858 882 869 897 l 538 486 l 858 92 q 871 56 871 78 q 854 12 871 31 q 808 -7 838 -7 q 758 19 778 -7 l 461 393 l 168 18 q 119 -7 147 -7 z "},"Y":{"ha":888,"x_min":38,"x_max":853,"o":"m 444 -7 q 399 11 418 -7 q 381 56 381 29 l 381 410 l 49 875 q 38 913 38 893 q 55 958 38 939 q 99 976 72 976 q 154 944 133 976 l 444 522 l 735 944 q 790 976 756 976 q 835 958 818 976 q 851 913 853 939 q 840 875 851 893 l 507 410 l 507 56 q 489 11 507 29 q 444 -7 471 -7 z "},"Ý":{"ha":888,"x_min":38,"x_max":853,"o":"m 444 -7 q 399 11 418 -7 q 381 56 381 29 l 381 410 l 49 875 q 38 913 38 893 q 55 958 38 939 q 99 976 72 976 q 154 944 133 976 l 444 522 l 735 944 q 790 976 756 976 q 835 958 818 976 q 851 913 853 939 q 840 875 851 893 l 507 410 l 507 56 q 489 11 507 29 q 444 -7 471 -7 m 444 1026 q 417 1037 428 1026 q 407 1064 407 1047 q 411 1080 407 1072 q 417 1090 415 1088 l 488 1215 q 505 1234 494 1226 q 533 1242 515 1242 q 571 1228 557 1242 q 585 1190 585 1214 q 571 1156 585 1171 l 475 1042 q 444 1026 463 1026 z "},"Ŷ":{"ha":888,"x_min":38,"x_max":853,"o":"m 444 -7 q 399 11 418 -7 q 381 56 381 29 l 381 410 l 49 875 q 38 913 38 893 q 55 958 38 939 q 99 976 72 976 q 154 944 133 976 l 444 522 l 735 944 q 790 976 756 976 q 835 958 818 976 q 851 913 853 939 q 840 875 851 893 l 507 410 l 507 56 q 489 11 507 29 q 444 -7 471 -7 m 299 1025 q 268 1038 281 1025 q 257 1067 256 1051 q 268 1093 257 1082 l 363 1190 q 386 1210 374 1201 q 418 1218 399 1218 l 471 1218 q 503 1210 490 1218 q 526 1190 517 1201 l 621 1093 q 632 1067 632 1082 q 621 1038 633 1051 q 590 1025 608 1025 q 565 1035 575 1025 l 444 1138 l 324 1035 q 299 1025 314 1025 z "},"Ÿ":{"ha":888,"x_min":38,"x_max":853,"o":"m 444 -7 q 399 11 418 -7 q 381 56 381 29 l 381 410 l 49 875 q 38 913 38 893 q 55 958 38 939 q 99 976 72 976 q 154 944 133 976 l 444 522 l 735 944 q 790 976 756 976 q 835 958 818 976 q 851 913 853 939 q 840 875 851 893 l 507 410 l 507 56 q 489 11 507 29 q 444 -7 471 -7 m 561 1038 q 511 1058 532 1038 q 490 1108 490 1079 q 511 1158 490 1138 q 561 1179 532 1179 q 611 1158 590 1179 q 632 1108 632 1138 q 611 1058 632 1079 q 561 1038 590 1038 m 328 1038 q 278 1058 299 1038 q 257 1108 257 1079 q 278 1158 257 1138 q 328 1179 299 1179 q 378 1158 357 1179 q 399 1108 399 1138 q 378 1058 399 1079 q 328 1038 357 1038 z "},"Ẏ":{"ha":888,"x_min":38,"x_max":853,"o":"m 444 -7 q 399 11 418 -7 q 381 56 381 29 l 381 410 l 49 875 q 38 913 38 893 q 55 958 38 939 q 99 976 72 976 q 154 944 133 976 l 444 522 l 735 944 q 790 976 756 976 q 835 958 818 976 q 851 913 853 939 q 840 875 851 893 l 507 410 l 507 56 q 489 11 507 29 q 444 -7 471 -7 m 444 1038 q 394 1058 415 1038 q 374 1108 374 1079 q 394 1158 374 1138 q 444 1179 415 1179 q 494 1158 474 1179 q 515 1108 515 1138 q 494 1058 515 1079 q 444 1038 474 1038 z "},"Ỵ":{"ha":888,"x_min":38,"x_max":853,"o":"m 444 -7 q 399 11 418 -7 q 381 56 381 29 l 381 410 l 49 875 q 38 913 38 893 q 55 958 38 939 q 99 976 72 976 q 154 944 133 976 l 444 522 l 735 944 q 790 976 756 976 q 835 958 818 976 q 851 913 853 939 q 840 875 851 893 l 507 410 l 507 56 q 489 11 507 29 q 444 -7 471 -7 m 444 -231 q 394 -210 415 -231 q 374 -160 374 -189 q 394 -110 374 -131 q 444 -89 415 -89 q 494 -110 474 -89 q 515 -160 515 -131 q 494 -210 515 -189 q 444 -231 474 -231 z "},"Ỳ":{"ha":888,"x_min":38,"x_max":853,"o":"m 444 -7 q 399 11 418 -7 q 381 56 381 29 l 381 410 l 49 875 q 38 913 38 893 q 55 958 38 939 q 99 976 72 976 q 154 944 133 976 l 444 522 l 735 944 q 790 976 756 976 q 835 958 818 976 q 851 913 853 939 q 840 875 851 893 l 507 410 l 507 56 q 489 11 507 29 q 444 -7 471 -7 m 444 1026 q 414 1042 426 1026 l 318 1156 q 304 1190 304 1171 q 319 1228 304 1214 q 356 1242 333 1242 q 385 1234 374 1242 q 401 1215 396 1226 l 472 1090 q 478 1080 475 1088 q 482 1064 482 1072 q 472 1037 482 1047 q 444 1026 461 1026 z "},"Ỷ":{"ha":888,"x_min":38,"x_max":853,"o":"m 444 -7 q 399 11 418 -7 q 381 56 381 29 l 381 410 l 49 875 q 38 913 38 893 q 55 958 38 939 q 99 976 72 976 q 154 944 133 976 l 444 522 l 735 944 q 790 976 756 976 q 835 958 818 976 q 851 913 853 939 q 840 875 851 893 l 507 410 l 507 56 q 489 11 507 29 q 444 -7 471 -7 m 435 1025 q 413 1033 424 1025 q 403 1054 403 1040 q 417 1095 403 1079 q 451 1122 432 1111 q 485 1147 471 1133 q 500 1178 500 1160 q 486 1203 500 1196 q 451 1211 472 1211 q 391 1199 411 1211 q 358 1186 371 1186 q 337 1196 344 1186 q 329 1215 329 1206 q 344 1242 329 1232 q 397 1263 368 1257 q 451 1269 426 1269 q 535 1244 506 1269 q 565 1179 565 1219 q 553 1132 565 1150 q 523 1102 540 1114 q 490 1078 506 1090 q 467 1046 474 1065 q 435 1025 458 1025 z "},"Ȳ":{"ha":888,"x_min":38,"x_max":853,"o":"m 444 -7 q 399 11 418 -7 q 381 56 381 29 l 381 410 l 49 875 q 38 913 38 893 q 55 958 38 939 q 99 976 72 976 q 154 944 133 976 l 444 522 l 735 944 q 790 976 756 976 q 835 958 818 976 q 851 913 853 939 q 840 875 851 893 l 507 410 l 507 56 q 489 11 507 29 q 444 -7 471 -7 m 282 1056 q 252 1067 264 1056 q 240 1097 240 1079 q 252 1127 240 1115 q 282 1139 264 1139 l 607 1139 q 637 1127 625 1139 q 649 1097 649 1115 q 637 1067 649 1079 q 607 1056 625 1056 l 282 1056 z "},"Ỹ":{"ha":888,"x_min":38,"x_max":853,"o":"m 444 -7 q 399 11 418 -7 q 381 56 381 29 l 381 410 l 49 875 q 38 913 38 893 q 55 958 38 939 q 99 976 72 976 q 154 944 133 976 l 444 522 l 735 944 q 790 976 756 976 q 835 958 818 976 q 851 913 853 939 q 840 875 851 893 l 507 410 l 507 56 q 489 11 507 29 q 444 -7 471 -7 m 253 1032 q 231 1041 240 1032 q 221 1064 221 1050 q 235 1122 221 1092 q 275 1174 249 1153 q 338 1196 301 1196 q 413 1180 378 1196 q 481 1147 447 1164 q 551 1131 514 1131 q 585 1140 574 1131 q 603 1168 597 1150 q 615 1188 607 1179 q 638 1197 622 1197 q 660 1188 653 1197 q 669 1167 668 1179 q 655 1107 669 1138 q 614 1056 640 1076 q 553 1035 588 1035 q 476 1051 511 1035 q 408 1085 442 1068 q 339 1101 375 1101 q 306 1089 318 1101 q 285 1057 293 1076 q 274 1040 282 1047 q 253 1032 267 1032 z "},"Z":{"ha":886,"x_min":65,"x_max":824,"o":"m 146 0 q 89 24 113 0 q 65 81 65 47 q 82 132 65 111 l 663 849 l 128 849 q 85 866 103 849 q 68 908 68 883 q 85 951 68 933 q 128 969 103 969 l 731 969 q 793 944 771 969 q 815 883 815 918 q 793 828 815 853 l 219 118 l 764 118 q 806 101 789 118 q 824 58 824 83 q 806 17 824 33 q 764 0 789 0 l 146 0 z "},"Ź":{"ha":886,"x_min":65,"x_max":824,"o":"m 146 0 q 89 24 113 0 q 65 81 65 47 q 82 132 65 111 l 663 849 l 128 849 q 85 866 103 849 q 68 908 68 883 q 85 951 68 933 q 128 969 103 969 l 731 969 q 793 944 771 969 q 815 883 815 918 q 793 828 815 853 l 219 118 l 764 118 q 806 101 789 118 q 824 58 824 83 q 806 17 824 33 q 764 0 789 0 l 146 0 m 443 1026 q 416 1037 426 1026 q 406 1064 406 1047 q 410 1080 406 1072 q 415 1090 414 1088 l 486 1215 q 503 1234 493 1226 q 532 1242 514 1242 q 569 1228 556 1242 q 583 1190 583 1214 q 569 1156 583 1171 l 474 1042 q 443 1026 461 1026 z "},"Ž":{"ha":886,"x_min":65,"x_max":824,"o":"m 146 0 q 89 24 113 0 q 65 81 65 47 q 82 132 65 111 l 663 849 l 128 849 q 85 866 103 849 q 68 908 68 883 q 85 951 68 933 q 128 969 103 969 l 731 969 q 793 944 771 969 q 815 883 815 918 q 793 828 815 853 l 219 118 l 764 118 q 806 101 789 118 q 824 58 824 83 q 806 17 824 33 q 764 0 789 0 l 146 0 m 417 1026 q 385 1035 397 1026 q 361 1054 372 1043 l 267 1151 q 256 1178 256 1163 q 267 1206 254 1193 q 297 1219 279 1219 q 322 1210 313 1219 l 443 1107 l 564 1210 q 589 1219 574 1219 q 619 1206 607 1219 q 631 1178 632 1193 q 619 1151 631 1163 l 525 1054 q 502 1035 515 1043 q 469 1026 489 1026 l 417 1026 z "},"Ż":{"ha":886,"x_min":65,"x_max":824,"o":"m 146 0 q 89 24 113 0 q 65 81 65 47 q 82 132 65 111 l 663 849 l 128 849 q 85 866 103 849 q 68 908 68 883 q 85 951 68 933 q 128 969 103 969 l 731 969 q 793 944 771 969 q 815 883 815 918 q 793 828 815 853 l 219 118 l 764 118 q 806 101 789 118 q 824 58 824 83 q 806 17 824 33 q 764 0 789 0 l 146 0 m 443 1038 q 393 1058 414 1038 q 372 1108 372 1079 q 393 1158 372 1138 q 443 1179 414 1179 q 493 1158 472 1179 q 514 1108 514 1138 q 493 1058 514 1079 q 443 1038 472 1038 z "},"Ẓ":{"ha":886,"x_min":65,"x_max":824,"o":"m 146 0 q 89 24 113 0 q 65 81 65 47 q 82 132 65 111 l 663 849 l 128 849 q 85 866 103 849 q 68 908 68 883 q 85 951 68 933 q 128 969 103 969 l 731 969 q 793 944 771 969 q 815 883 815 918 q 793 828 815 853 l 219 118 l 764 118 q 806 101 789 118 q 824 58 824 83 q 806 17 824 33 q 764 0 789 0 l 146 0 m 443 -231 q 393 -210 414 -231 q 372 -160 372 -189 q 393 -110 372 -131 q 443 -89 414 -89 q 493 -110 472 -89 q 514 -160 514 -131 q 493 -210 514 -189 q 443 -231 472 -231 z "},"a":{"ha":781,"x_min":64,"x_max":678,"o":"m 290 -14 q 178 11 231 -14 q 95 83 126 36 q 64 194 64 129 q 142 356 64 293 q 383 419 221 419 l 551 419 l 551 431 q 506 563 551 524 q 365 603 460 603 q 263 592 307 603 q 181 569 219 582 q 163 567 169 567 q 126 582 142 567 q 111 619 111 597 q 147 672 111 657 q 255 708 196 693 q 388 722 314 722 q 553 682 489 722 q 647 579 617 642 q 678 449 678 517 l 678 56 q 659 11 678 29 q 614 -7 640 -7 q 569 11 588 -7 q 551 56 551 29 l 551 92 q 451 19 514 53 q 290 -14 389 -14 m 338 97 q 460 129 403 97 q 551 201 517 161 l 551 318 l 400 318 q 247 293 303 318 q 190 208 190 268 q 222 131 190 164 q 338 97 253 97 z "},"á":{"ha":781,"x_min":64,"x_max":678,"o":"m 290 -14 q 178 11 231 -14 q 95 83 126 36 q 64 194 64 129 q 142 356 64 293 q 383 419 221 419 l 551 419 l 551 431 q 506 563 551 524 q 365 603 460 603 q 263 592 307 603 q 181 569 219 582 q 163 567 169 567 q 126 582 142 567 q 111 619 111 597 q 147 672 111 657 q 255 708 196 693 q 388 722 314 722 q 553 682 489 722 q 647 579 617 642 q 678 449 678 517 l 678 56 q 659 11 678 29 q 614 -7 640 -7 q 569 11 588 -7 q 551 56 551 29 l 551 92 q 451 19 514 53 q 290 -14 389 -14 m 338 97 q 460 129 403 97 q 551 201 517 161 l 551 318 l 400 318 q 247 293 303 318 q 190 208 190 268 q 222 131 190 164 q 338 97 253 97 m 388 788 q 360 798 371 788 q 350 825 350 808 q 354 841 350 833 q 360 851 358 849 l 431 976 q 448 995 438 988 q 476 1003 458 1003 q 514 989 500 1003 q 528 951 528 975 q 514 917 528 932 l 418 803 q 388 788 406 788 z "},"ă":{"ha":781,"x_min":64,"x_max":678,"o":"m 290 -14 q 178 11 231 -14 q 95 83 126 36 q 64 194 64 129 q 142 356 64 293 q 383 419 221 419 l 551 419 l 551 431 q 506 563 551 524 q 365 603 460 603 q 263 592 307 603 q 181 569 219 582 q 163 567 169 567 q 126 582 142 567 q 111 619 111 597 q 147 672 111 657 q 255 708 196 693 q 388 722 314 722 q 553 682 489 722 q 647 579 617 642 q 678 449 678 517 l 678 56 q 659 11 678 29 q 614 -7 640 -7 q 569 11 588 -7 q 551 56 551 29 l 551 92 q 451 19 514 53 q 290 -14 389 -14 m 338 97 q 460 129 403 97 q 551 201 517 161 l 551 318 l 400 318 q 247 293 303 318 q 190 208 190 268 q 222 131 190 164 q 338 97 253 97 m 388 800 q 269 831 321 800 q 193 913 217 861 q 189 932 189 921 q 201 963 189 950 q 232 975 213 975 q 271 949 258 975 q 317 899 286 918 q 388 881 347 881 q 459 899 428 881 q 504 949 490 918 q 543 975 517 975 q 574 963 563 975 q 586 932 586 950 q 582 913 586 921 q 506 831 558 861 q 388 800 454 800 z "},"ắ":{"ha":781,"x_min":64,"x_max":678,"o":"m 290 -14 q 178 11 231 -14 q 95 83 126 36 q 64 194 64 129 q 142 356 64 293 q 383 419 221 419 l 551 419 l 551 431 q 506 563 551 524 q 365 603 460 603 q 263 592 307 603 q 181 569 219 582 q 163 567 169 567 q 126 582 142 567 q 111 619 111 597 q 147 672 111 657 q 255 708 196 693 q 388 722 314 722 q 553 682 489 722 q 647 579 617 642 q 678 449 678 517 l 678 56 q 659 11 678 29 q 614 -7 640 -7 q 569 11 588 -7 q 551 56 551 29 l 551 92 q 451 19 514 53 q 290 -14 389 -14 m 338 97 q 460 129 403 97 q 551 201 517 161 l 551 318 l 400 318 q 247 293 303 318 q 190 208 190 268 q 222 131 190 164 q 338 97 253 97 m 385 922 q 364 931 372 922 q 356 950 356 940 q 358 966 356 960 q 363 978 360 972 l 413 1063 q 435 1088 424 1081 q 457 1096 447 1096 q 490 1084 475 1096 q 504 1051 504 1072 q 486 1013 504 1031 l 415 936 q 399 925 407 928 q 385 922 392 922 m 388 800 q 269 827 321 800 q 193 900 217 854 q 189 918 189 908 q 200 944 189 933 q 228 956 211 956 q 261 932 247 956 q 310 888 278 906 q 388 869 343 869 q 468 888 439 869 q 514 932 497 906 q 547 956 528 956 q 575 944 564 956 q 586 918 586 933 q 582 900 586 908 q 506 827 558 854 q 388 800 454 800 z "},"ặ":{"ha":781,"x_min":64,"x_max":678,"o":"m 290 -14 q 178 11 231 -14 q 95 83 126 36 q 64 194 64 129 q 142 356 64 293 q 383 419 221 419 l 551 419 l 551 431 q 506 563 551 524 q 365 603 460 603 q 263 592 307 603 q 181 569 219 582 q 163 567 169 567 q 126 582 142 567 q 111 619 111 597 q 147 672 111 657 q 255 708 196 693 q 388 722 314 722 q 553 682 489 722 q 647 579 617 642 q 678 449 678 517 l 678 56 q 659 11 678 29 q 614 -7 640 -7 q 569 11 588 -7 q 551 56 551 29 l 551 92 q 451 19 514 53 q 290 -14 389 -14 m 338 97 q 460 129 403 97 q 551 201 517 161 l 551 318 l 400 318 q 247 293 303 318 q 190 208 190 268 q 222 131 190 164 q 338 97 253 97 m 396 -231 q 346 -210 367 -231 q 325 -160 325 -189 q 346 -110 325 -131 q 396 -89 367 -89 q 446 -110 425 -89 q 467 -160 467 -131 q 446 -210 467 -189 q 396 -231 425 -231 m 388 800 q 269 831 321 800 q 193 913 217 861 q 189 932 189 921 q 201 963 189 950 q 232 975 213 975 q 271 949 258 975 q 317 899 286 918 q 388 881 347 881 q 459 899 428 881 q 504 949 490 918 q 543 975 517 975 q 574 963 563 975 q 586 932 586 950 q 582 913 586 921 q 506 831 558 861 q 388 800 454 800 z "},"ằ":{"ha":781,"x_min":64,"x_max":678,"o":"m 290 -14 q 178 11 231 -14 q 95 83 126 36 q 64 194 64 129 q 142 356 64 293 q 383 419 221 419 l 551 419 l 551 431 q 506 563 551 524 q 365 603 460 603 q 263 592 307 603 q 181 569 219 582 q 163 567 169 567 q 126 582 142 567 q 111 619 111 597 q 147 672 111 657 q 255 708 196 693 q 388 722 314 722 q 553 682 489 722 q 647 579 617 642 q 678 449 678 517 l 678 56 q 659 11 678 29 q 614 -7 640 -7 q 569 11 588 -7 q 551 56 551 29 l 551 92 q 451 19 514 53 q 290 -14 389 -14 m 338 97 q 460 129 403 97 q 551 201 517 161 l 551 318 l 400 318 q 247 293 303 318 q 190 208 190 268 q 222 131 190 164 q 338 97 253 97 m 390 922 q 376 925 383 922 q 360 936 368 928 l 289 1013 q 271 1051 271 1031 q 285 1084 271 1072 q 318 1096 300 1096 q 341 1088 329 1096 q 363 1063 353 1081 l 413 978 q 417 966 415 972 q 419 950 419 960 q 411 931 419 940 q 390 922 403 922 m 388 800 q 269 827 321 800 q 193 900 217 854 q 189 918 189 908 q 200 944 189 933 q 228 956 211 956 q 261 932 247 956 q 310 888 278 906 q 388 869 343 869 q 468 888 439 869 q 514 932 497 906 q 547 956 528 956 q 575 944 564 956 q 586 918 586 933 q 582 900 586 908 q 506 827 558 854 q 388 800 454 800 z "},"ẳ":{"ha":781,"x_min":64,"x_max":678,"o":"m 290 -14 q 178 11 231 -14 q 95 83 126 36 q 64 194 64 129 q 142 356 64 293 q 383 419 221 419 l 551 419 l 551 431 q 506 563 551 524 q 365 603 460 603 q 263 592 307 603 q 181 569 219 582 q 163 567 169 567 q 126 582 142 567 q 111 619 111 597 q 147 672 111 657 q 255 708 196 693 q 388 722 314 722 q 553 682 489 722 q 647 579 617 642 q 678 449 678 517 l 678 56 q 659 11 678 29 q 614 -7 640 -7 q 569 11 588 -7 q 551 56 551 29 l 551 92 q 451 19 514 53 q 290 -14 389 -14 m 338 97 q 460 129 403 97 q 551 201 517 161 l 551 318 l 400 318 q 247 293 303 318 q 190 208 190 268 q 222 131 190 164 q 338 97 253 97 m 378 922 q 356 930 367 922 q 346 956 346 938 q 360 996 346 979 q 392 1025 374 1013 q 424 1049 410 1038 q 438 1075 438 1061 q 394 1101 438 1101 q 334 1091 354 1101 q 301 1081 314 1081 q 280 1090 288 1081 q 272 1110 272 1100 q 276 1125 272 1117 q 288 1139 279 1133 q 340 1160 311 1154 q 394 1167 369 1167 q 479 1144 449 1167 q 510 1076 510 1121 q 498 1029 510 1047 q 469 999 486 1011 q 435 975 451 988 q 413 943 419 963 q 378 922 404 922 m 388 800 q 269 827 321 800 q 193 900 217 854 q 189 918 189 908 q 200 944 189 933 q 228 956 211 956 q 261 932 247 956 q 310 888 278 906 q 388 869 343 869 q 468 888 439 869 q 514 932 497 906 q 547 956 528 956 q 575 944 564 956 q 586 918 586 933 q 582 900 586 908 q 506 827 558 854 q 388 800 454 800 z "},"ẵ":{"ha":781,"x_min":64,"x_max":678,"o":"m 290 -14 q 178 11 231 -14 q 95 83 126 36 q 64 194 64 129 q 142 356 64 293 q 383 419 221 419 l 551 419 l 551 431 q 506 563 551 524 q 365 603 460 603 q 263 592 307 603 q 181 569 219 582 q 163 567 169 567 q 126 582 142 567 q 111 619 111 597 q 147 672 111 657 q 255 708 196 693 q 388 722 314 722 q 553 682 489 722 q 647 579 617 642 q 678 449 678 517 l 678 56 q 659 11 678 29 q 614 -7 640 -7 q 569 11 588 -7 q 551 56 551 29 l 551 92 q 451 19 514 53 q 290 -14 389 -14 m 338 97 q 460 129 403 97 q 551 201 517 161 l 551 318 l 400 318 q 247 293 303 318 q 190 208 190 268 q 222 131 190 164 q 338 97 253 97 m 221 979 q 203 985 211 979 q 194 1001 194 992 q 222 1068 194 1035 q 301 1101 249 1101 q 362 1092 335 1101 q 416 1074 389 1083 q 474 1064 443 1064 q 531 1090 514 1064 q 538 1101 533 1096 q 556 1106 543 1106 q 582 1083 579 1106 q 551 1016 582 1049 q 474 983 519 983 q 413 994 442 983 q 358 1014 385 1004 q 303 1024 332 1024 q 264 1016 276 1024 q 246 996 251 1008 q 236 984 244 989 q 221 979 228 979 m 388 800 q 269 827 321 800 q 193 900 217 854 q 189 918 189 908 q 200 944 189 933 q 228 956 211 956 q 261 932 247 956 q 310 888 278 906 q 388 869 343 869 q 468 888 439 869 q 514 932 497 906 q 547 956 528 956 q 575 944 564 956 q 586 918 586 933 q 582 900 586 908 q 506 827 558 854 q 388 800 454 800 z "},"â":{"ha":781,"x_min":64,"x_max":678,"o":"m 290 -14 q 178 11 231 -14 q 95 83 126 36 q 64 194 64 129 q 142 356 64 293 q 383 419 221 419 l 551 419 l 551 431 q 506 563 551 524 q 365 603 460 603 q 263 592 307 603 q 181 569 219 582 q 163 567 169 567 q 126 582 142 567 q 111 619 111 597 q 147 672 111 657 q 255 708 196 693 q 388 722 314 722 q 553 682 489 722 q 647 579 617 642 q 678 449 678 517 l 678 56 q 659 11 678 29 q 614 -7 640 -7 q 569 11 588 -7 q 551 56 551 29 l 551 92 q 451 19 514 53 q 290 -14 389 -14 m 338 97 q 460 129 403 97 q 551 201 517 161 l 551 318 l 400 318 q 247 293 303 318 q 190 208 190 268 q 222 131 190 164 q 338 97 253 97 m 242 786 q 211 799 224 786 q 200 828 199 813 q 211 854 200 843 l 306 951 q 329 971 317 963 q 361 979 342 979 l 414 979 q 447 971 433 979 q 469 951 460 963 l 564 854 q 575 828 575 843 q 564 799 576 813 q 533 786 551 786 q 508 796 518 786 l 388 899 l 267 796 q 242 786 257 786 z "},"ấ":{"ha":781,"x_min":64,"x_max":678,"o":"m 290 -14 q 178 11 231 -14 q 95 83 126 36 q 64 194 64 129 q 142 356 64 293 q 383 419 221 419 l 551 419 l 551 431 q 506 563 551 524 q 365 603 460 603 q 263 592 307 603 q 181 569 219 582 q 163 567 169 567 q 126 582 142 567 q 111 619 111 597 q 147 672 111 657 q 255 708 196 693 q 388 722 314 722 q 553 682 489 722 q 647 579 617 642 q 678 449 678 517 l 678 56 q 659 11 678 29 q 614 -7 640 -7 q 569 11 588 -7 q 551 56 551 29 l 551 92 q 451 19 514 53 q 290 -14 389 -14 m 338 97 q 460 129 403 97 q 551 201 517 161 l 551 318 l 400 318 q 247 293 303 318 q 190 208 190 268 q 222 131 190 164 q 338 97 253 97 m 532 922 q 511 931 519 922 q 503 950 503 940 q 505 966 503 960 q 510 978 507 972 l 560 1063 q 583 1088 571 1081 q 604 1096 594 1096 q 637 1084 622 1096 q 651 1051 651 1072 q 633 1013 651 1031 l 563 936 q 547 925 554 928 q 532 922 539 922 m 242 786 q 211 798 224 786 q 200 824 199 810 q 211 849 200 838 l 306 929 q 329 947 317 939 q 361 954 342 954 l 414 954 q 446 947 433 954 q 469 929 458 939 l 564 849 q 575 824 575 838 q 564 798 576 810 q 533 786 551 786 q 508 794 519 786 l 388 890 l 267 794 q 242 786 256 786 z "},"ậ":{"ha":781,"x_min":64,"x_max":678,"o":"m 290 -14 q 178 11 231 -14 q 95 83 126 36 q 64 194 64 129 q 142 356 64 293 q 383 419 221 419 l 551 419 l 551 431 q 506 563 551 524 q 365 603 460 603 q 263 592 307 603 q 181 569 219 582 q 163 567 169 567 q 126 582 142 567 q 111 619 111 597 q 147 672 111 657 q 255 708 196 693 q 388 722 314 722 q 553 682 489 722 q 647 579 617 642 q 678 449 678 517 l 678 56 q 659 11 678 29 q 614 -7 640 -7 q 569 11 588 -7 q 551 56 551 29 l 551 92 q 451 19 514 53 q 290 -14 389 -14 m 338 97 q 460 129 403 97 q 551 201 517 161 l 551 318 l 400 318 q 247 293 303 318 q 190 208 190 268 q 222 131 190 164 q 338 97 253 97 m 396 -231 q 346 -210 367 -231 q 325 -160 325 -189 q 346 -110 325 -131 q 396 -89 367 -89 q 446 -110 425 -89 q 467 -160 467 -131 q 446 -210 467 -189 q 396 -231 425 -231 m 242 786 q 211 799 224 786 q 200 828 199 813 q 211 854 200 843 l 306 951 q 329 971 317 963 q 361 979 342 979 l 414 979 q 447 971 433 979 q 469 951 460 963 l 564 854 q 575 828 575 843 q 564 799 576 813 q 533 786 551 786 q 508 796 518 786 l 388 899 l 267 796 q 242 786 257 786 z "},"ầ":{"ha":781,"x_min":64,"x_max":678,"o":"m 290 -14 q 178 11 231 -14 q 95 83 126 36 q 64 194 64 129 q 142 356 64 293 q 383 419 221 419 l 551 419 l 551 431 q 506 563 551 524 q 365 603 460 603 q 263 592 307 603 q 181 569 219 582 q 163 567 169 567 q 126 582 142 567 q 111 619 111 597 q 147 672 111 657 q 255 708 196 693 q 388 722 314 722 q 553 682 489 722 q 647 579 617 642 q 678 449 678 517 l 678 56 q 659 11 678 29 q 614 -7 640 -7 q 569 11 588 -7 q 551 56 551 29 l 551 92 q 451 19 514 53 q 290 -14 389 -14 m 338 97 q 460 129 403 97 q 551 201 517 161 l 551 318 l 400 318 q 247 293 303 318 q 190 208 190 268 q 222 131 190 164 q 338 97 253 97 m 539 922 q 524 925 532 922 q 508 936 517 928 l 438 1013 q 419 1051 419 1031 q 434 1084 419 1072 q 467 1096 449 1096 q 490 1088 478 1096 q 511 1063 501 1081 l 561 978 q 566 966 564 972 q 568 950 568 960 q 560 931 568 940 q 539 922 551 922 m 242 786 q 211 798 224 786 q 200 824 199 810 q 211 849 200 838 l 306 929 q 329 947 317 939 q 361 954 342 954 l 414 954 q 446 947 433 954 q 469 929 458 939 l 564 849 q 575 824 575 838 q 564 798 576 810 q 533 786 551 786 q 508 794 519 786 l 388 890 l 267 794 q 242 786 256 786 z "},"ẩ":{"ha":781,"x_min":64,"x_max":678,"o":"m 290 -14 q 178 11 231 -14 q 95 83 126 36 q 64 194 64 129 q 142 356 64 293 q 383 419 221 419 l 551 419 l 551 431 q 506 563 551 524 q 365 603 460 603 q 263 592 307 603 q 181 569 219 582 q 163 567 169 567 q 126 582 142 567 q 111 619 111 597 q 147 672 111 657 q 255 708 196 693 q 388 722 314 722 q 553 682 489 722 q 647 579 617 642 q 678 449 678 517 l 678 56 q 659 11 678 29 q 614 -7 640 -7 q 569 11 588 -7 q 551 56 551 29 l 551 92 q 451 19 514 53 q 290 -14 389 -14 m 338 97 q 460 129 403 97 q 551 201 517 161 l 551 318 l 400 318 q 247 293 303 318 q 190 208 190 268 q 222 131 190 164 q 338 97 253 97 m 532 926 q 510 934 521 926 q 500 958 500 942 q 514 993 500 979 q 546 1018 528 1007 q 578 1039 564 1029 q 592 1060 592 1049 q 549 1085 592 1085 q 500 1075 518 1085 q 469 1065 482 1065 q 448 1074 456 1065 q 440 1093 440 1083 q 456 1121 440 1111 q 501 1140 479 1135 q 550 1144 524 1144 q 632 1124 603 1144 q 661 1061 661 1104 q 641 1010 661 1028 q 598 980 621 993 q 567 946 575 967 q 532 926 558 926 m 242 786 q 211 798 224 786 q 200 824 199 810 q 211 849 200 838 l 306 929 q 329 947 317 939 q 361 954 342 954 l 414 954 q 446 947 433 954 q 469 929 458 939 l 564 849 q 575 824 575 838 q 564 798 576 810 q 533 786 551 786 q 508 794 519 786 l 388 890 l 267 794 q 242 786 256 786 z "}}}
